<?xml version="1.0" encoding="utf-8"?>
<!-- Generator: Adobe Illustrator 16.0.4, SVG Export Plug-In . SVG Version: 6.00 Build 0)  -->
<!DOCTYPE svg PUBLIC "-//W3C//DTD SVG 1.1//EN" "http://www.w3.org/Graphics/SVG/1.1/DTD/svg11.dtd">
<svg version="1.1" id="Layer_1" xmlns="http://www.w3.org/2000/svg" xmlns:xlink="http://www.w3.org/1999/xlink" x="0px" y="0px"
	 width="72px" height="72px" viewBox="0 0 72 72" enable-background="new 0 0 72 72" xml:space="preserve">
<g>
	<g>
		<path fill="#0B0A0B" d="M42.551,31.311c0.199,0.092,0.646,0.604,0.838,0.912c0.109-0.204,0.227-0.402,0.351-0.59
			c-0.178-0.23-0.506-0.572-0.779-0.825c-0.403,0.352-0.997,0.782-1.551,1.086c-0.397,0.928-1.059,1.906-2.499,2.347
			c-1.328,0.405-2.418-0.111-3.373-0.729c-1.263,0.164-2.838,0.067-4.297-0.288c-1.958,1.406-5.415,5.039-4.884,7.162
			c0.618,2.476,6.121,2.122,6.266,2.095c1.244-0.233,1.306-1.688,0.769-1.98c-0.21-0.113-2.296,0.129-3.884-0.774
			c-0.123,0.278-0.222,0.557-0.287,0.831c-0.324-1.795,3.383-5.744,5.054-5.974c-0.185,0.12-0.429,0.293-0.709,0.508
			c0.201,0.571,0.404,1.757,0.375,2.733c1.967-1.121,5.319-1.951,6.242-1.583c0.27,0.106,0.876,0.993,1.221,1.578
			c0.131-0.578,0.377-1.313,0.639-1.542c0.403-0.353,2.002-0.297,2.683-0.202C44.118,34.184,43.434,32.764,42.551,31.311z"/>
		<g>
			<path fill="#0B0A0B" d="M62.05,38.021c-0.476-2.222-1.649-3.671-2.835-4.344c0.002-2.412-1.025-4.99-1.848-5.565
				c-1.654-1.158-9.898-1.643-13.45,3.267c-0.188-0.268-0.484-0.601-0.703-0.802c2.188-2.07,3.113-5.01,2.799-6.683
				c-0.156-0.829-0.574-1.419-1.114-1.771c-0.274-2.634-1.573-4.935-3.469-6.504c1.706-0.056,3.279-0.764,4.297-2.102
				c1.976-2.599,1.101-6.586-1.951-8.907c-3.054-2.32-7.128-2.094-9.104,0.504c-1.825,2.401-1.216,5.988,1.296,8.35
				c-1.546-0.086-3.18,0.206-4.814,0.962c-1.169,0.542-2.154,1.224-2.974,2.004c0.676-3.682-1.296-7.144-4.438-7.756
				c-3.168-0.619-6.324,1.892-7.05,5.607c-0.725,3.715,1.255,7.229,4.423,7.847c1.513,0.295,3.024-0.123,4.267-1.046
				c-0.918,3.222-0.271,6.656,1.454,8.711c0.083,0.471,0.301,0.958,0.684,1.434c0.709,0.881,1.959,1.516,3.354,1.903
				c-1.74,1.204-5.436,4.829-4.864,7.373c0.242,1.078,1.285,1.688,2.487,2.017c-1.244,1.103-2.918,0.914-3.487,1.732
				c-0.52,0.747-0.16,2.28,1.36,2.498c-0.371,1.314,0.243,2.486,0.952,2.82c0.14,0.411,0.385,0.759,0.713,1.003
				c-0.016,0.135-0.026,0.266-0.033,0.392c-4.598,0.617-7.128-4.596-10.497-6.328c-1.323-0.682-2.967-0.933-4.536,0.134
				c6.433-2.952,8.494,7.763,15.028,6.741c0.073,1.648,0.931,2.48,1.951,2.854c0.133,0.048,0.267,0.09,0.403,0.129
				c-0.007,0.104-0.016,0.214-0.023,0.326c-1.422,0.13-2.034,0.684-2.161,1.334c-2.89,0.454-9.466-1.715-11.415,2.628
				c-0.407,0.904-0.493,1.844-0.312,2.747c-0.724,0.095-0.956,1.39-0.638,2.108c0.425,0.962,1.785,2.165,3.706,3
				c0.275,0.616,0.74,1.194,0.956,1.194c0.205,0,0.579-0.308,0.783-0.591c0.95,0.252,1.988,0.403,3.079,0.405
				c0.476,0.002,0.961-0.024,1.448-0.074c0.212,0.349,0.63,0.953,1.035,0.813c0.43-0.148,0.603-0.715,0.729-1.108
				c1.28-0.306,2.539-0.806,3.667-1.546c0,0,0.015,0.36,0.18,0.479c0.57-0.066,1.154-0.281,1.706-0.581
				c0.303,0.237,0.65,0.473,0.909,0.315c0.27-0.165,0.359-0.752,0.461-1.264c0.166-0.142,0.324-0.287,0.47-0.433
				c0.061,0.056,0.132,0.112,0.211,0.17c0.183,0.729,0.483,1.204,0.714,1.265c0.213,0.059,0.553-0.174,0.764-0.506
				c0.63,0.236,1.279,0.385,1.716,0.322c0.034-0.161-0.069-0.471-0.069-0.471c1.326,0.458,3.421,0.962,5.708,0.856
				c0.322,0.476,0.691,0.984,0.992,0.954c0.3-0.031,0.516-0.668,0.562-1.122c0.418-0.075,0.839-0.172,1.259-0.298
				c0.695-0.209,1.342-0.474,1.929-0.777c0.102,0.301,0.231,0.665,0.545,0.651c0.354-0.015,0.735-0.925,0.872-1.548
				c1.35-1.034,2.158-2.284,2.212-3.401c0.021-0.434-0.298-1.184-0.751-1.285c0.178-1.197-0.156-2.341-1.056-3.166
				c-1.966-1.804-6.102-0.47-8.896-0.083c0.127-0.184,0.198-0.382,0.202-0.59c0.01-0.592-0.532-1.125-1.373-1.463
				c0.124-0.299,0.254-0.607,0.373-0.873c0.582-0.129,1.174-0.354,1.749-0.694c1.816-1.079,3.116-3.208,3.783-5.577
				c0.635-0.031,1.286-0.117,1.941-0.255c0.854,0.784,2.409,1.033,3.233,1.047c0.95,0.814,2.278,0.992,3.133,0.293
				c0.948,0.089,2.093-0.167,3.44-0.986C61.06,44.928,62.73,41.209,62.05,38.021z M33.559,38.053c-0.418,0.263-0.72,0.502-0.84,0.66
				c-0.145,0.189-0.348,0.465-0.283,1.114c-0.146,0.076-0.291,0.165-0.435,0.264c-0.773-0.078-1.693-0.213-2.402-0.562
				c0.807-1.652,2.482-3.25,3.684-4.215C33.447,35.985,33.608,37.228,33.559,38.053z M37.272,53.482
				c-1.266,0.236-2.173,0.864-2.187,1.62c0,0.047,0.004,0.092,0.01,0.14c-0.136,0.062-0.3,0.168-0.438,0.29
				c-0.207-0.223-0.535-0.396-1.021-0.466c0.026-0.198,0.047-0.38,0.062-0.524c0.84-0.191,1.608-0.526,2.193-0.983
				c0.461-0.358,0.862-0.778,1.214-1.233c0.143,0.091,0.291,0.175,0.452,0.25C37.479,52.828,37.373,53.146,37.272,53.482z"/>
			<path fill="#F4F2EF" d="M30.504,26.836c-2.866-2.588-3.394-6.839-2.116-9.339c0.868-1.701,2.667-2.492,4.923-0.346
				c0.045-3.533,3.705-4.387,5.871-0.91c1.08,1.732,1.84,4.307,1.995,7.235c1.404-2.106,4.279-1.947,4.468,0.71
				c0.131,1.849-0.626,4.926-4.093,7.343c0.174-0.474,0.295-0.911,0.434-1.231c-0.71,0.647-0.867,2.919-3.156,3.607
				c-2.154,0.648-3.518-1.127-4.718-1.342c0.348,0.203,0.708,0.465,1.091,0.725c-2.808,0.093-5.763-0.636-7.209-2.123
				C26.156,29.274,27.5,26.678,30.504,26.836z"/>
			<path fill="#F4F2EF" d="M57.975,46.439c-2.495,1.628-5.307,1.194-6.083-1.364c1.094-0.571,2.095-1.289,2.904-2.128
				c0.081,0.427,0.247,0.794,0.449,0.936c-0.128-0.319-0.282-1.415-0.118-1.982c0.272,0.625,0.521,1.204,0.638,1.733
				c0.17-1.178-0.867-2.957-1.194-4.498c-0.485-2.31,1.433-3.14,2.596-1.709c0.877,1.075,1.396,2.988,1.441,3.861
				c0.331-0.674-0.116-2.855-1.129-4.054c-0.697-0.822-1.647-0.992-2.361-0.611c-0.256-0.951-0.095-1.942,0.493-2.328
				c1.456-0.957,4.604,2.207,4.728,6.647c0.424-1.902-0.375-4.274-1.617-5.705c-0.627-0.722-1.348-1.226-2.027-1.368
				c1.607-1.211,4.372,1.026,4.981,4.268C62.289,41.408,60.461,44.817,57.975,46.439z"/>
			<path fill="#DFC771" d="M50.409,56.09c-1.88-1.717-6.063-0.248-9.015-0.002c-0.591,0.528-1.697,0.871-2.959,0.851
				c-1.595-0.027-2.922-0.632-3.263-1.42c-0.111,0.079-0.24,0.181-0.337,0.269c0.177,0.361,0.132,0.79-0.045,1.143
				c0.71,0.818,1.376,2.049,1.16,3.3c-0.051,0.303-0.171,0.631-0.349,0.97c0.333,0.375,0.598,0.675,0.513,1.284
				c-0.026,0.184-0.126,0.417-0.287,0.676c2.154,1.231,7.494,2.195,11.439,0.477C50.901,62.053,52.59,58.084,50.409,56.09z"/>
			<path fill="#DFC771" d="M16.98,58.96c1.868-4.227,9.208-1.84,11.165-2.513c0.024,0.956,1.492,1.78,3.365,1.78
				c1.245,0,2.336-0.342,2.935-0.851c0.05-0.042,0.098-0.092,0.144-0.144c0.562,0.637,1.328,1.832,1.097,2.919
				c-0.658,3.105-6.339,6.309-11.135,6.309C19.08,66.461,15.502,62.303,16.98,58.96z"/>
			<path fill="#F4F2EF" d="M56.987,33.397c-0.479-1.203-2.832-4.421-5.759-5.542c0.789-0.117,1.558-0.167,2.269-0.164
				c1.395,0.62,4.058,2.496,5.286,5.384c0.009,0.131,0.017,0.264,0.022,0.399C58.135,33.194,57.485,33.167,56.987,33.397z"/>
			<path fill="#884E00" d="M58.699,32.229c-0.916-1.939-2.69-3.562-4.575-4.524c1.465,0.067,2.618,0.347,3.104,0.646
				C57.431,28.474,58.366,29.696,58.699,32.229z"/>
			<path fill="#F4F2EF" d="M46.985,42.291c0.624,0.85,1.669,2.559,1.914,3.537c-0.562,0.15-1.157,0.271-1.784,0.35
				c-0.071-0.263-0.224-0.672-0.4-1.063C46.876,44.187,46.971,43.218,46.985,42.291z"/>
			<path fill="#F4F2EF" d="M46.311,34.751c-0.194,0.181-0.39,0.369-0.59,0.563c-0.156-0.322-0.393-0.643-0.643-0.887
				c0.174-0.161,0.371-0.337,0.587-0.524C45.854,34.167,46.085,34.47,46.311,34.751z"/>
			<path fill="#F4F2EF" d="M48.104,33.199c-0.241,0.193-0.489,0.398-0.74,0.613c-0.192-0.26-0.425-0.539-0.646-0.779
				c0.261-0.209,0.53-0.418,0.805-0.628C47.694,32.669,47.9,32.952,48.104,33.199z"/>
			<path fill="#F4F2EF" d="M50.073,31.728c-0.213,0.147-0.44,0.309-0.68,0.483c-0.179-0.262-0.389-0.524-0.593-0.745
				c0.214-0.149,0.424-0.293,0.628-0.427C49.62,31.274,49.847,31.516,50.073,31.728z"/>
			<path fill="#F4F2EF" d="M50.74,30.258c0.243-0.123,0.452-0.207,0.609-0.24c0.228-0.048,0.612,0.299,0.564,0.468
				c-0.014,0.043-0.226,0.179-0.587,0.411C51.161,30.681,50.95,30.454,50.74,30.258z"/>
			<path fill="#0B0A0B" d="M34.949,5.286c1.855-2.441,5.703-2.637,8.595-0.438c2.893,2.198,3.732,5.959,1.879,8.399
				c-1.048,1.38-2.736,2.042-4.526,1.959c-1.245-0.891-2.702-1.484-4.273-1.684C33.898,11.305,33.138,7.668,34.949,5.286z"/>
			<path fill="#0B0A0B" d="M21.163,21.685c-2.963-0.578-4.811-3.898-4.125-7.414c0.688-3.516,3.646-5.897,6.611-5.318
				c2.965,0.578,4.812,3.898,4.125,7.415c-0.043,0.216-0.096,0.428-0.155,0.636c-0.89,0.993-1.541,2.113-1.975,3.279
				C24.397,21.434,22.782,22.001,21.163,21.685z"/>
			<path fill="#0B0A0B" d="M31.329,14.624c6.564-3.04,12.541,1.854,13.314,7.355c-1.03-0.5-2.387-0.223-3.268,0.845
				c-0.297-3.202-1.057-6.41-3.064-8.064c-2.245-1.852-5.008-0.937-5.14,2.016c-1.692-1.776-3.906-1.433-4.99,0.539
				c-1.83,3.329-0.148,7.823,1.809,9.306c-1.794-0.061-3.23,1.224-3.195,2.784C24.284,25.614,24.645,17.718,31.329,14.624z"/>
			<path fill="#F4F2EF" d="M35.909,41.563c0.045-0.123,0.078-0.243,0.099-0.358c1.694,1.906,1.758,5.458,0.19,7.657
				c-1.677,2.35-4.991,2.951-6.286,1.69c-0.733-0.713-0.612-2.156,0.48-3.248c0.885-0.884,2.786-1.87,3.556-1.037
				c0.791,0.854-0.275,2.91-2.019,3.536c0.516,0.012,1.043-0.204,1.488-0.551c0.082,0.316,0.013,0.751-0.162,0.974
				c0.482-0.241,0.501-0.807,0.388-1.171c0.841-0.796,1.269-2.064,0.476-2.999c-0.224-0.266-0.625-0.385-1.108-0.372
				c-0.137-0.564-0.552-0.891-1.143-0.989c0.063-0.214,0.205-0.524,0.412-0.754C33.711,43.798,35.466,42.749,35.909,41.563z"/>
			<path fill="#F4F2EF" d="M31.246,44.67c-0.262-0.469-0.873-0.74-1.612-0.688c0.095-0.383,0.287-0.859,0.436-1.186
				c0.092,0.009,0.185,0.017,0.277,0.022c0.169,0.799,0.8,1.129,1.586,1.137c-0.158,0.198-0.296,0.461-0.357,0.709
				C31.47,44.661,31.359,44.663,31.246,44.67z"/>
			<path fill="#F4F2EF" d="M35.582,41.435c-0.599,1.555-4.303,3.225-4.901,1.404c0.914,0.041,1.693-0.023,2.038-0.108
				c1.463-0.366,1.571-2.095,0.73-2.46c-0.162-0.07-0.559-0.1-1.058-0.144C34.391,39.035,36.152,39.956,35.582,41.435z"/>
			<path fill="#F4F2EF" d="M25.222,44.441c0.446-0.742,2.194-0.378,3.66-1.83c0.276,0.061,0.556,0.108,0.834,0.144
				c-0.141,0.303-0.322,0.807-0.427,1.272c-0.542,0.108-1.127,0.385-1.684,0.875c-0.537,0.473-0.887,0.97-1.096,1.457
				C25.097,46.162,24.898,44.981,25.222,44.441z"/>
			<path fill="#F4F2EF" d="M27.854,45.19c1.459-1.284,2.696-0.987,3.136-0.493c-2.039,0.297-4.05,2.449-3.774,4.417
				C26.579,48.53,26.067,46.766,27.854,45.19z"/>
			<path fill="#F4F2EF" d="M27.728,49.589c-0.666-1.716,1.341-4.358,3.51-4.566c0.773-0.074,1.376,0.196,1.537,0.679
				c-0.85,0.092-1.889,0.554-2.69,1.354c-1.198,1.192-1.28,2.752-0.621,3.59C28.596,50.705,27.987,50.26,27.728,49.589z"/>
			<path fill="#0B0A0B" d="M33.354,54.611c-0.036,0.485-0.117,1.116-0.192,1.524c-0.831,0.144-1.915,0.118-2.691-0.012
				c0.075-0.466,0.154-1.14,0.182-1.56C31.532,54.763,32.472,54.768,33.354,54.611z"/>
			<path fill="#DFC771" d="M30.308,55.095c-0.032,0.381-0.063,0.753-0.086,0.983c-0.277-0.061-0.496-0.135-0.621-0.22
				c0.465,0.996,3.972,0.847,4.304,0.065c-0.127,0.059-0.276,0.106-0.438,0.146c0.051-0.236,0.096-0.497,0.134-0.749
				c1.427,0.227,1.081,1.46,0.571,1.838c-0.665,0.491-1.592,0.677-2.663,0.677c-1.726,0-3.07-0.67-3.07-1.453
				C28.44,55.787,28.93,55.263,30.308,55.095z"/>
			<path fill="#BEC0C2" d="M20.466,67.585c-0.109-0.026-0.412-0.385-0.661-0.825c0.385,0.155,0.79,0.296,1.212,0.415
				C20.856,67.378,20.567,67.61,20.466,67.585z"/>
			<path fill="#BEC0C2" d="M26.762,68.203c-0.144,0.029-0.543-0.377-0.712-0.663c0.397-0.048,0.797-0.115,1.195-0.2
				C27.152,67.634,26.911,68.175,26.762,68.203z"/>
			<path fill="#DFC771" d="M31.433,65.326c-2.18,1.352-4.434,1.974-7.059,1.974c-4.176,0-7.57-2.256-8.375-3.799
				c-0.162-0.311-0.055-1.606,0.505-1.715c0.706,2.725,3.851,5.055,8.05,5.05c5.104-0.005,9.434-2.943,10.896-5.37
				c0.192,0.196,0.433,0.621,0.395,0.959c-0.108,0.93-3.192,3.454-4.337,3.454C31.402,65.773,31.433,65.461,31.433,65.326z"/>
			<path fill="#BEC0C2" d="M33.873,65.764c-0.088,0.05-0.363-0.105-0.542-0.271c0.283-0.167,0.557-0.354,0.814-0.555
				C34.062,65.239,33.959,65.715,33.873,65.764z"/>
			<path fill="#BEC0C2" d="M35.924,65.453c-0.146-0.043-0.365-0.458-0.472-0.836c0.272,0.163,0.595,0.323,0.932,0.463
				C36.259,65.258,36.055,65.492,35.924,65.453z"/>
			<path fill="#BEC0C2" d="M44.937,66.626c-0.184,0.013-0.455-0.431-0.661-0.76c0.341-0.024,0.687-0.062,1.032-0.116
				C45.241,66.031,45.109,66.612,44.937,66.626z"/>
			<path fill="#BEC0C2" d="M49.25,65.096c-0.094,0-0.211-0.299-0.321-0.568c0.307-0.168,0.599-0.348,0.868-0.536
				C49.656,64.536,49.357,65.096,49.25,65.096z"/>
			<path fill="#DFC771" d="M52.107,60.388c-0.058,1.283-2.06,3.68-5.442,4.696c-3.362,1.011-7.082,0.184-8.762-0.494
				c-0.012,0.161,0.08,0.54,0.138,0.666c-0.41-0.055-2.186-0.667-2.888-1.236c0.203-0.218,0.379-0.434,0.524-0.639
				c1.795,1.137,7.13,2.487,11.241,0.82c2.642-1.071,4.244-3.021,4.633-4.881C51.909,59.456,52.127,59.944,52.107,60.388z"/>
			<path fill="#DFC771" d="M41.519,55.129c-0.015,0.79-1.39,1.406-3.074,1.378c-1.684-0.029-3.038-0.693-3.024-1.482
				c0.01-0.572,0.735-1.052,1.773-1.263c-0.079,0.295-0.146,0.596-0.182,0.877c-0.299-0.087-0.533-0.197-0.664-0.326
				c0.283,1.163,3.924,1.046,4.306,0.331c-0.178,0.065-0.386,0.116-0.613,0.153c0.079-0.181,0.202-0.478,0.338-0.808
				C41.08,54.263,41.525,54.675,41.519,55.129z"/>
			<path fill="#0B0A0B" d="M39.728,54.839c-0.815,0.086-1.797,0.027-2.511-0.145c0.111-0.42,0.412-1.364,0.684-1.978
				c0.762,0.279,1.661,0.379,2.597,0.231C40.269,53.434,39.979,54.162,39.728,54.839z"/>
			<path fill="#005695" d="M42.425,51.918c-1.069,0.704-3.438,1.173-5.103,0.114c0.664-0.938,1.025-1.943,1.334-2.889
				c0.826,0.036,2.211-0.996,2.518-1.643c-0.353,0.262-1.658,1.19-2.426,1.343c0.348-1.167,0.45-2.459,0.404-2.763
				c-0.794,3.012-1.594,5.614-3.485,7.151c-1.714,1.391-4.6,1.244-5.625,0.796c-1.033-0.451-1.633-0.881-1.64-3.241
				c0.38,0.17,0.833,0.225,1.337,0.137c1.684,1.394,5.167,0.495,6.745-1.755c1.812-2.583,1.548-6.385-0.454-8.28
				c-0.028-1.268-1.662-1.9-3.307-1.2c-0.021-0.308,0.021-0.564,0.147-0.707c0.951-1.061,6.164-2.925,7.188-2.4
				c0.308,0.157,1.303,1.7,1.448,1.919c0.228-0.966,0.546-1.731,0.78-1.937c0.479-0.423,4.398-0.24,4.903,1.208
				c0.138,0.395-0.353,1.051-0.487,1.651c-0.107-0.573-0.285-0.871-0.493-1.19C47.216,42.062,46.243,49.403,42.425,51.918z"/>
			<path fill="#884E00" d="M46.602,45.702c0.08,0.195,0.147,0.375,0.196,0.513c-0.105,0.011-0.214,0.02-0.32,0.026
				C46.522,46.062,46.563,45.884,46.602,45.702z"/>
			<path fill="#0B0A0B" d="M50.518,45.699c0.128,0.523,0.368,0.976,0.678,1.344c-0.814-0.109-1.925-0.406-2.471-0.779
				C49.328,46.118,49.93,45.928,50.518,45.699z"/>
			<path fill="#F4F2EF" d="M50.83,45.575c0.245-0.104,0.487-0.213,0.727-0.331c0.422,1.038,1.345,2.12,2.77,2.399
				C53.041,48.241,51.334,47.198,50.83,45.575z"/>
			<path fill="#0B0A0B" d="M58.244,43.518c-0.212-0.076-0.75,2.076-1.271,2.807C57.437,46.056,58.455,43.595,58.244,43.518z"/>
			<path fill="#0B0A0B" d="M59.705,42.25c-0.195,0.024-0.523,2.438-1.192,3.286C59.225,45.152,59.993,42.211,59.705,42.25z"/>
			<path fill="#0B0A0B" d="M60.687,42.134c-0.231,0.077-0.541,1.691-0.945,2.211C60.166,44.21,60.915,42.058,60.687,42.134z"/>
			<path fill="#0B0A0B" d="M39.224,60.013c1.029-1.413,3.19-3.64,5.618-3.955C43.297,55.858,40.37,57.537,39.224,60.013z"/>
			<path fill="#0B0A0B" d="M38.592,58.7c0.881-1.031,2.976-2.095,4.006-2.227C41.501,56.29,39.107,57.537,38.592,58.7z"/>
			<path fill="#0B0A0B" d="M31.056,60.207c0.157-0.976-2.674-2.993-5.599-3.197C26.93,57.35,30.08,58.507,31.056,60.207z"/>
			<path fill="#0B0A0B" d="M34.244,31.224c0.941,0.78,2.429,3.172,4.852,1.919c1.758-0.91,1.85-3.461,2.288-4.865
				c0.62-0.954,1.102-2.15,1.38-3.623c0.594,0.02,1.138,0.183,1.454,0.492c-0.158-0.744-1.819-1.183-2.827-0.284
				c0.374-0.132,0.788-0.203,1.189-0.209c-0.617,2.97-2.204,4.862-4.074,5.771c-2.671,1.296-5.953,0.618-8.146-1.521
				c0.388-0.314,0.823-0.548,1.146-0.608c-1.014-0.314-2.433,1.036-2.05,1.981c0.023-0.422,0.347-0.876,0.755-1.244
				C31.26,30.143,32.7,30.92,34.244,31.224z"/>
			<path fill="#D31245" d="M38.968,32.876c-1.283,0.665-2.242,0.22-3.043-0.417c0.782-0.558,1.966-0.674,2.894-0.358
				c-0.125-0.184-0.371-0.309-0.675-0.376c0.501-0.394,1.587-0.668,2.118-0.306C39.992,32.02,39.602,32.549,38.968,32.876z"/>
			<path fill="#0B0A0B" d="M38.711,30.685c0.854-0.416,1.644-1.039,2.309-1.895c-0.221,0.725-0.355,1.623-0.672,2.421
				c-0.46-0.341-1.754-0.368-2.444,0.476c-0.743-0.085-1.701,0.128-2.15,0.632c-0.42-0.356-0.796-0.747-1.158-1.033
				C35.968,31.491,37.404,31.323,38.711,30.685z"/>
			<path fill="#0B0A0B" d="M34.373,25.125c-0.225,0.266-0.408,0.555-0.526,0.86c0.845-1.144,2.95-2.635,5.099-2.646
				c-0.202-0.099-0.484-0.135-0.815-0.115c0.61-1.658-1.439-6.276-2.941-5.678c-1.314,0.522,0.575,5.18,1.569,5.995
				c-0.456,0.169-0.922,0.401-1.35,0.685c-0.011-2.048-2.122-5.956-3.618-5.142C30.443,19.815,32.425,24.659,34.373,25.125z"/>
			<path fill="#0B0A0B" d="M35.247,17.707c1.256-0.532,3.267,4.092,2.701,5.533c-0.299,0.035-0.629,0.111-0.97,0.223
				C36.239,22.999,34.146,18.174,35.247,17.707z"/>
			<path fill="#0B0A0B" d="M31.869,19.234c1.193-0.689,3.337,3.14,3.365,5.111c-0.271,0.195-0.524,0.41-0.743,0.646
				C32.949,24.739,30.673,19.925,31.869,19.234z"/>
			<path fill="#F4F2EF" d="M45.512,33.147c0.031,0.219,1.511,2.158,1.689,2.218c0.181,0.061,0.386-0.552,0.35-0.755
				c-0.038-0.205-1.308-1.763-1.512-1.858C45.836,32.655,45.476,32.895,45.512,33.147z"/>
			<path fill="#F4F2EF" d="M47.334,31.576c0.057,0.236,1.379,1.954,1.522,2.051c0.29,0.193,0.756-0.272,0.768-0.491
				c0.012-0.24-1.234-1.858-1.486-1.931C47.886,31.133,47.262,31.277,47.334,31.576z"/>
			<path fill="#F4F2EF" d="M49.251,30.26c0.084,0.239,1.334,1.676,1.572,1.776c0.391,0.166,0.736-0.162,0.588-0.518
				c-0.236-0.573-1.289-1.507-1.447-1.574S49.149,29.967,49.251,30.26z"/>
			
				<ellipse transform="matrix(-0.852 0.5236 -0.5236 -0.852 83.2069 29.377)" fill="#0B0A0B" cx="37.45" cy="26.451" rx="2.589" ry="1.866"/>
			
				<ellipse transform="matrix(-0.8518 0.5239 -0.5239 -0.8518 83.1808 29.3382)" fill="#0B0A0B" cx="37.44" cy="26.435" rx="2.359" ry="1.637"/>
			<path fill="#F4F2EF" d="M29.581,39.555c-0.079,0.173-0.281,0.619-0.354,0.924C29.407,40.246,29.595,39.844,29.581,39.555z"/>
			<path fill="#F4F2EF" d="M33.331,35.267c0.331-0.281,0.771-0.584,0.972-0.692C34.238,34.82,33.611,35.274,33.331,35.267z"/>
		</g>
		<path fill="#884E00" d="M50.74,27.938c-2.646,0.493-5.445,1.808-7.139,4.625c0.257,0.429,0.518,0.924,0.76,1.457
			c0.158,0.005,0.343,0.097,0.529,0.243c0.158-0.184,0.361-0.389,0.599-0.609c-0.133-0.193-0.223-0.34-0.241-0.398
			c-0.156-0.504,0.503-0.876,0.779-0.828c0.083,0.015,0.259,0.16,0.468,0.369c0.274-0.219,0.564-0.44,0.861-0.659
			c-0.149-0.257-0.248-0.473-0.249-0.584c-0.014-0.517,0.683-0.672,1.043-0.588c0.118,0.026,0.273,0.139,0.446,0.297
			c0.229-0.151,0.452-0.298,0.668-0.435c-0.158-0.221-0.269-0.419-0.288-0.558c-0.068-0.483,0.624-0.629,1.032-0.527
			c0.128,0.032,0.327,0.164,0.545,0.347c0.355-0.177,0.636-0.283,0.796-0.288c0.443-0.011,0.864,0.433,0.78,0.756
			c-0.022,0.087-0.263,0.26-0.662,0.533c0.092,0.138,0.156,0.264,0.182,0.367c0.146,0.59-0.35,0.938-0.719,0.873
			c-0.145-0.023-0.39-0.19-0.657-0.421c-0.229,0.159-0.473,0.335-0.732,0.526c0.142,0.224,0.25,0.433,0.298,0.59
			c0.155,0.497-0.454,0.976-0.97,0.864c-0.136-0.029-0.353-0.22-0.588-0.484c-0.246,0.199-0.499,0.41-0.76,0.633
			c0.12,0.18,0.21,0.34,0.244,0.45c0.155,0.518-0.276,1.248-0.575,1.176c-0.11-0.026-0.393-0.325-0.709-0.704
			c-0.214,0.197-0.431,0.403-0.649,0.617c0.101,0.291,0.117,0.562,0,0.748c0.782,0.263,1.441,0.691,1.591,1.311
			c0.205,0.861-0.39,1.539-0.6,2.337c0.101,0.554,0.152,1.169,0.162,1.814c0.938,0.983,2.026,3.005,2.201,3.96
			c2.777-0.814,4.715-2.368,5.562-3.332c0-0.334,0.059-0.662,0.203-0.918c-0.257-0.602-0.515-1.242-0.687-1.92
			c-0.321-1.273-0.04-2.195,0.501-2.702c-0.309-1.391,0.031-2.37,0.729-2.812c0.29-0.184,0.608-0.253,0.942-0.229
			c0.092-0.117,0.195-0.221,0.312-0.304C55.572,31.22,52.876,28.743,50.74,27.938z"/>
		<path fill="#F4F2EF" d="M44.488,34.302c0.163,0.379,0.315,0.772,0.451,1.172c0.089,0.228,0.17,0.454,0.234,0.676
			c0.13,0.026,0.26,0.058,0.388,0.093C45.912,35.762,44.955,34.555,44.488,34.302z"/>
		<path fill="#F4F2EF" d="M42.571,31.292c0.19,0.167,0.639,0.597,0.949,1.136C43.542,32.144,42.986,31.332,42.571,31.292z"/>
	</g>
	<g>
		<path fill="#0B0A0B" d="M49.209,21.343c-0.765-2.113-4.526-2.424-5.839-5.267c0.197-0.125,0.335-0.294,0.345-0.439
			c0.024-0.316-0.561-2.81-1.515-3.315c-0.325-0.171-0.964-0.349-1.8-0.492c-7.057-6.879-18.662-1.162-17.842,7.747
			c-0.229,0.353-0.455,0.721-0.674,1.105c0.095,2.011,0.829,3.314,1.254,3.243c0.261,1.634-1.231,3.173-0.686,5.47
			c0.428,1.803,1.908,2.83,3.291,2.788c1.628-0.051,2.911-1.268,2.487-3.973c-0.326-2.079-1.423-4.801-1.264-8.354
			c1.622-1.681,3.444-2.957,5.336-3.768c2.881-1.234,6.109-1.521,9.711-1.175c-1.189-0.669-6.304-0.803-10.024,0.882
			c-4.127,1.867-7.091,5.591-7.365,6.996c0.633-0.962,1.325-1.843,2.061-2.639c-0.274,3.524,0.864,6.14,1.207,8.151
			c0.307,1.796-0.186,3.531-2.195,3.593c-1.113,0.035-2.326-0.722-2.866-2.572c-0.616-2.107,1.017-3.693,0.498-5.801
			c-0.639,0.427-1.161-2.107-1.114-2.865c2.392-3.835,5.35-6.507,8.926-7.813c3.807-1.39,9.239-1.046,10.939-0.261
			c0.615,0.284,1.374,2.865,1.304,3.079c-0.071,0.213-0.664,0.45-0.9,0.544c0.205,0.084,0.438,0.064,0.644-0.01
			c1.54,3.253,4.931,3.323,5.725,5.267c0.685,1.67-0.117,3.786-2.827,3.798c-0.016,0.131-0.038,0.266-0.062,0.402
			C48.634,25.75,49.96,23.422,49.209,21.343z"/>
		<g>
			<path fill="#F4F2EF" d="M40.269,14.796c-0.191-0.007-0.381-0.012-0.57-0.015C39.888,14.785,40.077,14.789,40.269,14.796z"/>
			<polygon fill="#F4F2EF" points="40.269,14.796 40.272,14.796 40.272,14.796 			"/>
			<path fill="#884E00" d="M48.853,21.462c-0.794-1.944-4.185-2.014-5.725-5.267c-0.206,0.074-0.438,0.095-0.644,0.01
				c0.236-0.094,0.829-0.331,0.9-0.544c0.07-0.214-0.688-2.795-1.304-3.079c-1.7-0.785-7.132-1.129-10.939,0.261
				c-3.577,1.306-6.535,3.978-8.926,7.813c-0.047,0.758,0.475,3.292,1.114,2.865c0.52,2.108-1.114,3.694-0.498,5.801
				c0.54,1.851,1.753,2.607,2.866,2.572c2.01-0.062,2.502-1.797,2.195-3.593c-0.342-2.012-1.48-4.627-1.207-8.151
				c-0.735,0.795-1.427,1.676-2.061,2.639c0.273-1.404,3.238-5.128,7.365-6.996c3.72-1.685,8.834-1.551,10.024-0.882
				c-0.591-0.057-1.172-0.095-1.742-0.116c0.213,0.128,0.422,0.265,0.624,0.41c0.267,0.189,0.361,0.271,0.533,0.411
				c1.896,1.57,3.194,3.871,3.469,6.504c0.54,0.352,0.958,0.943,1.114,1.771c0.074,0.396,0.076,0.861,0.013,1.367
				C48.735,25.248,49.537,23.132,48.853,21.462z M24.935,25.871c0.068-0.015,0.136-0.018,0.206-0.009
				c0.568,0.079,0.914,0.985,0.77,2.025c-0.069,0.492-0.235,0.924-0.45,1.236C24.307,29.045,24.413,26.63,24.935,25.871z
				 M46.807,22.903c-1.034-0.156-1.718-1.731-1.627-2.592C46.281,20.438,47.207,21.811,46.807,22.903z"/>
		</g>
		<path fill="#0B0A0B" d="M47.188,22.034c-0.263-1.501-1.707-2.219-2.712-1.912c0.026,0.084,0.053,0.169,0.077,0.253
			c0.127-0.041,0.26-0.068,0.398-0.074c-0.172,1.581,1.059,2.748,1.722,2.857c-0.162,0.225-0.414,0.367-0.752,0.374
			c0.021,0.067,0.039,0.135,0.055,0.205C46.804,23.675,47.356,22.992,47.188,22.034z M46.807,22.903
			c-1.034-0.156-1.718-1.731-1.627-2.592C46.281,20.438,47.207,21.811,46.807,22.903z"/>
		<path fill="#884E00" d="M30.906,12.488c-2.539,0.987-5.56,2.977-8.076,6.679c-0.126-8.076,9.972-13.417,17.166-7.401
			C37.564,11.411,33.789,11.368,30.906,12.488z"/>
		<path fill="#0B0A0B" d="M25.166,25.682c-0.712-0.099-1.421,0.764-1.581,1.927c-0.162,1.164,0.285,2.188,0.996,2.287
			c0.712,0.098,1.421-0.766,1.582-1.929C26.325,26.803,25.878,25.781,25.166,25.682z M25.911,27.887
			c-0.069,0.492-0.235,0.924-0.45,1.236c-1.153-0.078-1.047-2.493-0.525-3.253c0.068-0.015,0.136-0.018,0.206-0.009
			C25.709,25.941,26.055,26.847,25.911,27.887z"/>
		<path fill="#884E00" d="M24.393,28.429c-0.194-0.597-0.177-1.725,0.251-2.426c-0.377,0.265-0.694,0.866-0.796,1.598
			c-0.144,1.04,0.2,1.947,0.77,2.026c0.251,0.034,0.503-0.097,0.719-0.343C24.926,29.305,24.568,28.973,24.393,28.429z"/>
		<g>
			<path fill="#F4F2EF" d="M38.387,14.796c-0.119,0.005-0.242,0.012-0.36,0.019C38.145,14.808,38.268,14.801,38.387,14.796z"/>
			<path fill="#F4F2EF" d="M39.004,14.781c-0.143,0.001-0.284,0.005-0.426,0.009C38.72,14.786,38.861,14.783,39.004,14.781z"/>
			<path fill="#F4F2EF" d="M39.135,14.78c0.166-0.001,0.33-0.001,0.498,0.001C39.465,14.779,39.301,14.779,39.135,14.78z"/>
		</g>
	</g>
</g>
</svg>
