<?xml version="1.0" encoding="utf-8"?>
<!-- Generator: Adobe Illustrator 16.0.4, SVG Export Plug-In . SVG Version: 6.00 Build 0)  -->
<!DOCTYPE svg PUBLIC "-//W3C//DTD SVG 1.1//EN" "http://www.w3.org/Graphics/SVG/1.1/DTD/svg11.dtd">
<svg version="1.1" id="Layer_1" xmlns="http://www.w3.org/2000/svg" xmlns:xlink="http://www.w3.org/1999/xlink" x="0px" y="0px"
	 width="72px" height="72px" viewBox="0 0 72 72" enable-background="new 0 0 72 72" xml:space="preserve">
<g>
	<path fill="#231F20" d="M69.777,25.546c-0.074-1.824-0.922-2.394-1.469-2.465c-0.527-0.067-0.867,0.25-1.039,0.509
		c-0.166-0.086-0.346-0.129-0.527-0.129c-1.34-0.005-1.553,1.861-1.967,3.023c-0.379,1.069-0.84,1.894-1.148,2.515
		c-0.088-0.16-0.193-0.306-0.32-0.435c-1.119-1.125-3.291-0.715-3.291,0.388c0.002,0.824,1.053,1.535,1.164,2.3
		c0.045,0.289,0.018,0.617-0.033,0.959c-0.404,0.245-0.699,0.624-0.889,1.065c-1.852,0.193-7.58,0.419-9.369,0.362
		c0.639-2.584,0.092-5.267-1.752-7.233c-0.328-0.35-0.697-0.681-1.102-0.981c0.373-0.001,0.746-0.063,1.105-0.194
		c2.121-0.765,3.047-3.584,2.068-6.295c-0.98-2.71-3.492-4.286-5.613-3.52c-2.121,0.765-3.047,3.584-2.068,6.295
		c0.334,0.924,0.848,1.717,1.461,2.33c-1.281-0.272-2.729-0.233-4.295,0.279c-0.867,0.283-1.617,0.7-2.254,1.209
		c0.189-0.673,0.275-1.411,0.234-2.179c-0.162-2.936-2.135-5.216-4.4-5.091c-2.265,0.125-3.97,2.606-3.808,5.543
		c0.162,2.936,2.129,5.216,4.394,5.091c0.503-0.027,0.978-0.173,1.41-0.413c-0.376,0.954-0.546,1.967-0.509,2.941
		c-0.594-0.474-1.29-0.963-1.98-1.5c-1.549-1.205-3.105-2.575-4.67-2.563c-1.354,0.011-2.436,0.727-3.173,1.767
		c-0.652,0.005-1.262,0.197-1.681,0.64c-0.355,0.376-0.498,0.848-0.318,1.289c-0.605,0.35-1.145,0.881-1.531,1.607
		c-0.591,1.11-0.884,2.614-0.457,4.1c-0.307,0.177-0.679,0.341-1.105,0.552c-1.132,0.239-2.917,0.257-4.332,0.061
		c-3.331-0.479-6.41-2.01-9.197-2.397c-2.782-0.46-5.059-0.046-5.91,0.295c0.869-0.19,3.053-0.634,5.853-0.113
		c2.863,0.451,5.914,2.047,9.195,2.525c1.373,0.189,2.558,0.221,3.364,0.154c-0.71,0.347-1.303,0.646-1.388,0.772
		c-0.168,0.244-0.082,1.126,0.322,1.871c-0.681,0.392-1.546,0.828-2.263,1.074c-0.285,0.099-0.514,0.158-0.754,0.153
		c-0.549-0.791-1.374-0.858-2.065-0.616C6.143,40.54,1.85,48.513,2.712,51.281c1.19,3.817,7.943,4.276,11.628,2.156
		c2.974-1.71,2.628-4.207-0.109-5.2c-0.318-0.685-0.246-1.352,0.118-1.983c0.021,0,0.041,0.002,0.062,0.002
		c0.918,0,1.502-0.539,1.803-1.162c1.532-0.067,3.253-0.75,4.724-1.743c0.959,0.825,2.04,1.45,2.458,1.463
		c0.224,0.007,1.187-0.359,2.687-0.827c0.328,2.208,2.053,5.488,4.012,6.967c3.686,2.777,7.166,0.375,6.819-2.434
		c-0.132-1.067-0.904-2.144-1.174-2.887c2.751-0.031,4.388-1.276,3.648-2.834c0.277-0.32,0.51-0.67,0.666-1.036
		c0.119-0.286-0.033-0.387-0.234-0.463c-0.48-0.184-1.277-0.383-2.014-0.426c0.777-0.448,1.545-1.037,2.018-1.474
		c0.234,0.065,0.471,0.08,0.727,0.089c0.557,0.275,1.236,0.415,1.914,0.452c2.719,2.881,6.586,2.053,8.035,0.641
		c0.771-0.124,1.609-0.464,2.049-0.952c0.646-0.718,0.607-2.086-0.229-2.627c-0.406-0.264-1.037-0.133-1.67,0.166
		c-0.324-0.304-0.674-0.507-1.021-0.634c0.131-0.202,0.254-0.408,0.367-0.615c2.154,0.423,7.652,1.044,10.656,0.582
		c0.861,1.067,2.143,0.931,2.611,0.496c0.52,0.105,1.17,0.102,1.744-0.019c2.135-0.452,3.523-2.019,4.125-4.273
		c0.248-0.93,0.205-1.639,0.377-2.312c0.125-0.485,0.777-1.123,0.996-2.648C70.637,26.818,70.467,25.941,69.777,25.546z"/>
	<path fill="#FFFFFF" d="M22.625,32.816c1.023-1.974,3.547-2.813,5.236-1.331c0.694,0.61,1.081,1.867,1.749,2.49
		c0.631,0.589,1.495,0.405,2.039,0.677c0.793,0.396,0.902,1.792-0.671,2.186c-0.804,0.203-1.701,0.072-2.365-0.208
		c-0.053-0.455-0.063-0.865-0.051-1.204c-0.203,0.5-0.256,1.53,0.035,2.549c0.434,1.518,1.457,2.503,1.479,3.147
		c0.005,0.147-0.04,0.284-0.152,0.412c-0.308,0.353-1.155,0.435-1.957-0.019c-0.868-0.492-1.624-1.476-2.009-2.381
		c-0.169-0.398-0.457-1.379-0.458-1.735c-0.13,0.448,0.027,1.164,0.228,1.756c0.142,0.417,0.385,0.883,0.702,1.316
		c-1.357,0.006-2.528-1.741-3.005-3.422c-0.096,0.304,0.062,1.067,0.458,1.807c-0.917-0.434-1.378-1.28-1.622-2.111
		C21.844,35.32,22.067,33.893,22.625,32.816z"/>
	<path fill="#FFFFFF" d="M68.291,23.25c0.434,0.054,1.16,0.597,1.213,2.304c0.043,1.343-0.477,3.232-1.23,4.329
		c-0.43-0.108-0.988-0.154-1.52-0.146c1.029-1.324,1.475-3.004,1.439-4.158c-0.033-0.939-0.324-1.544-0.723-1.858
		C67.666,23.362,67.928,23.204,68.291,23.25z"/>
	<path fill="#231F20" d="M29.09,27.546c1.366-0.002,2.984,1.364,4.58,2.625c1.534,1.213,2.732,1.81,3.28,2.893
		c0.489,0.973,0.029,2.261-1.485,2.28c-0.249-0.476-0.552-0.966-0.912-1.458c-1.206-1.64-2.725-2.729-4.711-3.38
		c0.278-0.232,0.723-0.519,0.893-0.62c-0.315-0.026-1.164,0.471-1.57,0.932c-0.444-0.903-1.715-1.588-2.92-1.682
		C26.89,28.341,27.865,27.548,29.09,27.546z"/>
	<path fill="#AE6219" d="M34.23,40.999c-0.092-0.102-0.145-0.251-0.161-0.43c0.473-0.109,1.084-0.341,1.387-0.646
		c0.216,0.036,0.487,0,0.697-0.12C36.007,40.274,35.288,40.695,34.23,40.999z"/>
	<path fill="#AE6219" d="M35.207,38.522c0.193,0.687,0.188,1.06,0.129,1.228c-0.084,0.244-0.843,0.488-1.27,0.606
		c0.026-0.474,0.256-1.063,0.644-1.47C34.867,38.723,35.037,38.604,35.207,38.522z"/>
	<path fill="#AE6219" d="M36.201,39.567c-0.16,0.115-0.458,0.177-0.668,0.185c0.059-0.233,0.024-0.701-0.136-1.305
		c0.339-0.116,0.632-0.107,0.812-0.067C36.281,38.932,36.254,39.335,36.201,39.567z"/>
	<path fill="#FFFFFF" d="M34.567,38.725c-0.821,0.859-0.813,1.958-0.528,2.327c-0.355,0.095-0.733,0.175-1.118,0.239
		c-0.515-0.951-0.284-2.229,0.358-3.2c0.628-0.947,1.566-1.572,2.499-1.431c0.211,0.565,0.332,1.086,0.403,1.532
		C35.901,38.121,35.132,38.133,34.567,38.725z"/>
	<path fill="#AE6219" d="M30.068,40.433c0.832,0.231,1.644,0.359,2.461,0.319c0.052,0.196,0.128,0.386,0.23,0.564
		c-0.901,0.14-1.819,0.184-2.529,0.091c0.027-0.084,0.039-0.175,0.037-0.268C30.264,40.919,30.186,40.685,30.068,40.433z"/>
	<path fill="#FFFFFF" d="M29.329,31.535c0.123-0.104,0.272-0.18,0.338-0.14c0.085,0.051-0.347,0.682-0.587,0.687
		C29.237,31.921,29.317,31.729,29.329,31.535z"/>
	<path fill="#AE6219" d="M28.925,32.211c0.226,0.191,0.509,0.021,0.708-0.23c0.152,0.074,0.31,0.157,0.47,0.246
		c-0.344,0.291-0.337,0.474-0.221,0.612c0.153,0.182,0.621,0.011,0.896-0.186c0.003-0.002,0.005-0.004,0.008-0.005
		c0.102,0.067,0.204,0.138,0.306,0.211c-0.405,0.289-0.413,0.48-0.3,0.63c0.143,0.19,0.619,0.047,0.905-0.134
		c0.007-0.004,0.015-0.009,0.022-0.015c0.12,0.099,0.239,0.201,0.358,0.308c-0.219,0.157-0.331,0.332-0.285,0.537
		c0.058,0.257,0.431,0.229,0.725,0.061c0.037-0.022,0.076-0.046,0.114-0.072c0.712,0.721,1.368,1.571,1.866,2.526
		c-0.539,0.253-1.027,0.706-1.392,1.258c-0.507,0.768-0.776,1.722-0.621,2.585c-0.807,0.027-1.622-0.071-2.536-0.354
		c-0.319-0.608-0.803-1.339-1.087-2.32c-0.102-0.354-0.173-0.697-0.22-1.023c0.674,0.32,1.613,0.459,2.458,0.24
		c1.603-0.413,1.581-2.148,0.627-2.625c-0.673-0.336-1.366-0.094-1.939-0.623c-0.313-0.29-0.631-0.946-0.991-1.55
		C28.841,32.265,28.885,32.239,28.925,32.211z"/>
	<path fill="#AE6219" d="M34.676,36.626c-0.482-0.956-1.138-1.833-1.875-2.589c0.188-0.171,0.326-0.381,0.257-0.526
		c-0.085-0.181-0.275-0.264-0.784,0.015c0,0-0.001,0-0.002,0.001c-0.124-0.112-0.248-0.22-0.375-0.326
		c0.188-0.179,0.303-0.4,0.152-0.529c-0.178-0.153-0.465-0.102-0.756,0.06c-0.112-0.081-0.224-0.158-0.335-0.233
		c0.185-0.192,0.295-0.427,0.133-0.55c-0.198-0.15-0.504-0.066-0.802,0.138c-0.18-0.101-0.36-0.195-0.537-0.279
		c0.133-0.233,0.182-0.48,0.059-0.565c-0.117-0.08-0.336-0.042-0.494,0.056c-0.012-0.086-0.034-0.17-0.061-0.253
		c0.091-0.098,0.216-0.216,0.356-0.339c1.947,0.626,3.437,1.647,4.721,3.335c0.647,0.851,1.086,1.699,1.39,2.47
		C35.363,36.449,35.017,36.498,34.676,36.626z"/>
	<path fill="#FFFFFF" d="M24.421,29.929c1.459-1.436,4.689,0.138,4.702,1.569c0.002,0.266-0.125,0.484-0.412,0.654
		c-0.197-0.319-0.408-0.614-0.638-0.817c-1.017-0.896-2.629-1.059-3.966-0.374C23.997,30.561,24.14,30.206,24.421,29.929z"/>
	<path fill="#FDB927" d="M13.901,48.123c-2.507-0.781-5.205-0.387-5.603-0.01c0.979-0.27,3.285-0.435,5.794,0.399
		c2.564,0.854,3.015,3.036,0.126,4.639c-3.958,2.197-10.212,1.364-11.257-1.985c-0.627-2.013,2.727-9.833,10.288-9.875
		c-0.652,0.4-1.159,1.171-1.168,2.28c-0.014,1.653,0.876,2.548,2.051,2.67C13.788,46.844,13.661,47.525,13.901,48.123z"/>
	<path fill="#FDB927" d="M14.419,45.986c-1.121,0-2.077-0.781-2.062-2.423c0.013-1.352,0.865-2.131,1.572-2.312
		c0.595-0.162,1.175-0.059,1.582,0.508c-0.296,0.055-1.017,0.015-1.116,0.078c-1.064,0.678-1.191,2.345,0.167,3.038
		c0.418,0.147,0.873,0.219,1.349,0.225C15.584,45.664,15.013,45.986,14.419,45.986z"/>
	<path fill="#231F20" d="M14.663,44.688c-0.996-0.61-1.077-1.978-0.21-2.663c0.199-0.063,1.131,0.117,2.153-0.207
		c0.692-0.219,1.592-0.696,2.261-1.075c0.259,0.503,0.532,0.955,0.995,1.524c0.243,0.299,0.548,0.61,0.86,0.893
		C18.404,44.593,16.139,45.197,14.663,44.688z"/>
	<path fill="#FDB927" d="M30.309,50.707c-2.042-1.495-3.75-5.043-3.991-6.792c0.57-0.175,1.211-0.36,1.914-0.546
		c0.419-0.109,0.837-0.212,1.248-0.305c0.136,0.017,0.288,0.027,0.452,0.033c-0.107,0.767,0.54,1.771,1.171,2.18
		c-0.581-0.07-1.065-0.085-1.284-0.016c0.6,0.03,4.273,0.688,4.854,1.045c-0.115-0.189-0.644-0.402-1.315-0.588
		c0.147-0.069,0.327-0.17,0.445-0.244c0.578,0.097,1.128,0.147,1.643,0.158c0.374,0.924,1.053,2.029,1.183,2.941
		C36.992,51.086,33.923,53.349,30.309,50.707z"/>
	<path fill="#FDB927" d="M30.908,43.096c0.062,0.541,0.492,1.501,1.778,2.139c0.263,0.067,0.521,0.127,0.775,0.177
		c-0.145,0.083-0.309,0.16-0.451,0.215c-0.465-0.113-0.971-0.215-1.445-0.286c-0.934-0.556-1.387-1.714-1.402-2.235
		C30.4,43.106,30.653,43.102,30.908,43.096z"/>
	<path fill="#231F20" d="M35.723,44.553c-0.855,0.082-1.792,0.006-2.773-0.273c-0.483-0.249-1.109-0.763-1.474-1.194
		c-0.11,0.002-0.221,0.005-0.333,0.007c0.16,0.806,1.121,1.716,1.599,1.935c3.773,0.854,7.084,0.004,6.489-2.057
		c-0.742,0.766-1.83,1.334-3.13,1.534c0.164,0.058,0.567,0.112,0.763,0.112C36.569,44.81,35.861,44.656,35.723,44.553z"/>
	<path fill="#F79C85" d="M39.557,35.282c0.412,0.625,0.404,1.819,0.303,2.396c0.068-0.107,0.119-0.234,0.16-0.371
		c0.285,0.229,0.693,0.79,0.564,1.462c-0.895-0.322-1.756-0.908-1.756-1.752C38.828,36.485,39.215,35.895,39.557,35.282z"/>
	<path fill="#B22C1B" d="M40.07,37.087c0.125-0.695-0.041-1.581-0.404-2.006c0.131-0.244,0.246-0.492,0.32-0.739
		c0.186,0.079,0.375,0.174,0.555,0.284c-0.055,1.659,0.408,3.208,1.221,4.423c-0.301-0.033-0.658-0.107-1.02-0.225
		C40.986,37.897,40.379,37.276,40.07,37.087z"/>
	<path fill="#231F20" d="M50.109,35.704c0.307-0.595,0.545-1.209,0.717-1.83c1.805,0.095,7.234-0.094,9.336-0.344
		c-0.25,0.78-0.199,1.703,0.152,2.436c0.059,0.122,0.125,0.233,0.193,0.339C57.408,36.643,51.943,36.015,50.109,35.704z"/>
	<path fill="#FFFFFF" d="M60.568,35.843c-0.494-1.019-0.338-2.648,0.533-3.349c-0.055,0.311-0.117,0.628-0.156,0.935
		c-0.238,1.853,0.695,3.057,2.033,3.478C62.383,37.255,61.148,37.036,60.568,35.843z"/>
	<path fill="#FFFFFF" d="M70.24,27.689c-0.221,1.513-0.779,2.126-0.939,2.732c-0.184,0.699-0.162,1.387-0.416,2.27
		c-0.541,1.889-1.852,3.565-3.924,4.03c-2.082,0.465-4.08-0.659-3.777-3.235c0.084-0.708,0.312-1.486,0.201-2.248
		c-0.148-0.998-1.152-1.718-1.152-2.278c0-0.94,1.986-1.078,2.854-0.2c0.816,0.828,0.666,2.394,0.32,3.407
		c0.209-0.25,0.365-0.623,0.449-1.045c0.707,0.434,1.393,1.269,1.508,2.231c0.328-1.139-0.719-2.104-1.453-2.472
		c0.062-0.531,0.035-1.142-0.166-1.635c0.316-0.583,0.896-1.521,1.291-2.673c0.482-1.412,0.641-2.925,1.672-2.925
		c0.762,0,1.229,0.897,1.209,1.919c-0.025,1.321-0.426,2.776-1.357,4.172c-0.74,0.027-1.385,0.155-1.498,0.348
		c0.629-0.211,3.135-0.141,3.879,0.125c-0.098-0.12-0.281-0.216-0.516-0.289c0.779-0.92,1.359-2.787,1.359-4.166
		C70.271,26.176,70.355,26.912,70.24,27.689z"/>
	<path fill="#231F20" d="M52.252,37.19c0.502,0.385,0.781,1.563,0.102,2.237c-0.77,0.765-2.295,1.218-3.035,0.887
		c-0.602-0.268-0.756-0.859-0.637-1.233C48.855,38.537,51.459,36.577,52.252,37.19z"/>
	<path fill="#FFFFFF" d="M30.017,32.688c0.08,0.167,1.04-0.448,0.92-0.597C30.843,31.976,29.949,32.548,30.017,32.688z"/>
	<path fill="#FFFFFF" d="M30.934,33.347c0.071,0.171,1.064-0.387,0.953-0.543C31.801,32.684,30.875,33.203,30.934,33.347z"/>
	<path fill="#FFFFFF" d="M32.864,33.569c0.119,0.143-0.841,0.757-0.926,0.586C31.872,34.023,32.766,33.449,32.864,33.569z"/>
	<path fill="#231F20" d="M36.298,39.936c0.234,0.242,0.881,0.642,1.415,0.68c0.795-0.484,1.51-1.011,1.873-1.31
		c-0.758-0.279-1.34-0.865-1.549-1.676c-0.652-0.745-1.126-1.549-1.465-2.341c-0.278,0.153-0.615,0.247-1.002,0.257
		C36.539,37.491,36.625,39.207,36.298,39.936z"/>
	<path fill="#EF3E42" d="M37.461,41.083c-0.361,0.206-1.127,0.484-1.751,0.512c0.549-0.173,1.181-0.491,1.781-0.845
		c-0.326-0.044-0.962-0.235-1.263-0.65c-0.296,0.488-1.132,0.929-2.229,1.222l-0.453,0.109c-1.095,0.239-2.348,0.341-3.434,0.212
		c-0.007,0.011-0.013,0.02-0.02,0.027c-0.256,0.327-1.198,0.657-2.256,0.087c-0.486-0.264-0.921-0.663-1.275-1.109
		c-1.081,0.16-1.975-0.626-2.527-1.526c-1.073-0.354-1.684-1.194-1.996-2.085c-0.858,0.543-3.197,1.514-3.445,1.71
		c-0.154,0.478,0.317,1.821,1.512,3.328c0.831,1.049,2.583,2.354,3.311,2.542c0.256-0.036,2.28-0.855,4.729-1.504
		c2.148-0.568,4.95-1.061,6.137-0.608c-0.841-0.126-2.333,0.044-4.017,0.39c0.805-0.011,2.385-0.08,2.759,0.24
		c-0.402-0.057-0.833-0.053-1.232-0.053c0.317,0.299,0.918,0.84,1.202,1.002c4.868,1.04,6.53-1.8,6.919-2.508
		C39.387,41.358,38.234,41.154,37.461,41.083z"/>
	<path fill="#FEE4CD" d="M50.07,28.21c0.998,1.998,0.934,3.782,0.553,5.417c-0.176,0.751-0.656,1.965-1.178,2.847
		c-0.908-0.263-1.75-0.023-1.98,0.276c0.973-0.383,2.076-0.188,2.916,0.556c-0.91,0.495-1.76,1.28-1.889,1.687
		c-0.176,0.554,0.029,1.213,0.744,1.522c0.23,0.099,0.543,0.131,0.885,0.109c-1.764,1.273-5.547,1.737-7.916-1.436
		c-1.1-1.475-1.449-3.142-1.49-4.45c0.309,0.211,0.58,0.469,0.76,0.767c-0.166-0.816-1.523-1.897-2.619-1.441
		c0.225-0.01,0.586,0.064,0.979,0.215c-0.379,0.961-1.213,1.788-1.213,2.71c0,1.333,1.588,2.147,3.266,2.235
		c0.023,0.036,0.047,0.072,0.074,0.105c0.096,0.127,0.191,0.249,0.291,0.364c-0.387-0.044-0.896-0.133-1.219-0.226
		c0.211-0.024,0.426-0.066,0.641-0.13c-2.426,0.075-3.693-0.918-3.578-3.352c-0.129,0.453-0.166,0.872-0.127,1.252
		c-0.475-0.667-0.889-1.423-1.144-2.12c0.608-0.494,0.786-1.342,0.364-2.178c-0.165-0.328-0.463-0.68-0.806-1.001
		c0.531-0.837,1.304-1.136,2.13-1.126c1.793,0.02,3.746,1.38,5.043,3.645c-0.188-1.138-0.59-2.826-0.582-4.296
		c0.02-3.029,1.412-3.971,2.605-3.977c1.141-0.006,2.494,1.039,3.312,3.035C48.961,28.403,49.617,27.576,50.07,28.21z"/>
	<path fill="#231F20" d="M49.875,27.876c-0.285-0.529-0.545-0.89-0.943-1.329l-0.127-0.139c-1.91-1.997-4.924-2.9-8.098-1.812
		c-2.637,0.903-4.697,3.28-4.695,7.031c0.065,0.054,0.127,0.107,0.188,0.161c0.547-0.863,1.321-1.223,2.331-1.218
		c1.5,0.007,3.631,1.074,4.814,3.289c-0.334-1.18-0.627-2.427-0.621-3.706c0.01-3.038,1.371-4.184,2.82-4.216
		c1.502,0.002,2.756,1.343,3.311,2.854C48.994,28.085,49.5,27.586,49.875,27.876z"/>
	<path fill="#231F20" d="M48.334,34.272c-0.281,1.375-1.064,2.53-1.621,2.417c-0.637-0.131-0.768-1.649-0.508-2.92
		c0.328-1.594,1.055-2.494,1.666-2.369C48.414,31.512,48.684,32.573,48.334,34.272z"/>
	<path fill="#231F20" d="M48.545,35.514c0.016-0.372,0.09-0.892,0.225-1.396c0.24-0.891,0.631-1.735,1.043-1.647
		c0.215,0.045,0.377,0.354,0.404,0.879c0.039,0.776-0.17,1.626-0.617,2.346C49.1,36.502,48.506,36.561,48.545,35.514z"/>
	<path fill="#FFFFFF" d="M47.965,33.705c-0.611,0.008-0.828-2.027-0.158-2.157c-0.592-0.045-1.145,1.153-1.379,2.293
		c-0.258,1.261-0.121,2.603,0.322,2.693c0.453,0.095,1.119-1.125,1.365-2.325c0.037-0.183,0.113-0.513,0.137-0.679
		C48.201,33.616,48.096,33.703,47.965,33.705z"/>
	<path fill="#FFFFFF" d="M49.777,34.016c-0.309-0.065-0.346-1.183-0.086-1.34c-0.277,0.065-0.527,0.812-0.715,1.493
		c-0.133,0.478-0.229,0.984-0.236,1.386c-0.018,0.893,0.25,0.739,0.672,0.042c0.324-0.534,0.541-1.19,0.613-1.793
		C49.979,33.933,49.902,34.042,49.777,34.016z"/>
	<path fill="#FFFFFF" d="M35.848,31.493c0.182,0.157,0.364,0.295,0.472,0.402C36.338,31.785,36.031,31.387,35.848,31.493z"/>
	<path fill="#231F20" d="M43.762,21.585c-0.932-2.578-0.074-5.25,1.914-5.968s4.355,0.79,5.287,3.367
		c0.93,2.577,0.072,5.249-1.916,5.968c-0.48,0.173-0.984,0.217-1.484,0.146c-0.6-0.383-1.268-0.698-1.996-0.913
		C44.801,23.566,44.152,22.671,43.762,21.585z"/>
	<path fill="#231F20" d="M34.845,28.616c-2.12,0.117-3.964-2.066-4.12-4.877c-0.155-2.811,1.438-5.184,3.559-5.3
		c2.12-0.117,3.969,2.066,4.124,4.877c0.051,0.922-0.09,1.796-0.371,2.56c-0.672,0.627-1.197,1.367-1.574,2.159
		C35.982,28.376,35.435,28.584,34.845,28.616z"/>
	<path fill="#231F20" d="M23.225,34.465c0.291-0.575,0.72-2.085,0.874-2.501C23.599,32.325,23.183,34.084,23.225,34.465z"/>
	<path fill="#231F20" d="M24.214,35.003c0.188-0.406,0.465-2.484,0.576-3.106C24.416,32.269,24.07,34.611,24.214,35.003z"/>
	<path fill="#231F20" d="M25.302,34.314c0.14-0.354,0.348-1.81,0.43-2.283C25.4,32.227,25.137,34.029,25.302,34.314z"/>
	<path fill="#FFFFFF" d="M30.735,29.886c-0.169,0.101-0.614,0.388-0.893,0.62C30.112,30.523,30.638,30.08,30.735,29.886z"/>
	<path fill="#FFFFFF" d="M36.572,35.289c-0.278,0.153-0.615,0.247-1.002,0.257C35.738,35.706,36.408,35.617,36.572,35.289z"/>
	<path fill="#FFFFFF" d="M36.863,44.616c-0.196,0-0.599-0.055-0.763-0.112C36.347,44.407,36.708,44.491,36.863,44.616z"/>
	<path fill="#231F20" d="M9.788,47.263c0.335-0.074,2.315-0.04,2.7,0.13C12.283,47.016,10.139,46.95,9.788,47.263z"/>
</g>
</svg>
