<?xml version="1.0" encoding="utf-8"?>
<!-- Generator: Adobe Illustrator 16.0.4, SVG Export Plug-In . SVG Version: 6.00 Build 0)  -->
<!DOCTYPE svg PUBLIC "-//W3C//DTD SVG 1.1//EN" "http://www.w3.org/Graphics/SVG/1.1/DTD/svg11.dtd">
<svg version="1.1" id="Layer_1" xmlns="http://www.w3.org/2000/svg" xmlns:xlink="http://www.w3.org/1999/xlink" x="0px" y="0px"
	 width="72px" height="72px" viewBox="0 0 72 72" enable-background="new 0 0 72 72" xml:space="preserve">
<g>
	<g>
		<g>
			<path fill="#0B0A0B" d="M28.59,9.554c3.213-0.208,5.328,0.453,6.605,1.4c1.023-0.228,1.739-0.307,2.545-0.177
				c0.801,0.131,1.446,0.805,1.959,1.485c0.411,0.551,0.871,1.452,0.822,2.025c-0.02,0.479-0.608,0.913-1.072,1.168
				c1.946,1.401,3.219,3.547,3.585,6.135c0.469-0.287,1.407-0.591,1.742-0.472c0.106-1.046,0.925-2.776,2.054-2.771
				c1.7,0.008,2.189,3.179,0.812,5.245c0.033,0.241,0.119,0.651,0.13,0.943c1.07-0.523,3.081-1.324,3.741-1.546
				c-0.232-0.783,0.363-1.39,0.877-1.574c-0.018-1.546,1.225-3.608,2.198-4.292c-0.507-1.806-2.578-3.009-2.918-4.351
				c-0.476-1.882,1.646-2.726,3.288-1.367c1.244,1.031,1.578,2.732,2.122,4.071c0.606-0.361,1.709-0.527,2.375-0.485
				c1.181-2.32-0.365-4.965,0.626-6.452c0.761-1.137,2.164-1.045,2.986-0.023c1.031,1.274,1.229,3.276-0.651,7.429
				c0.616,0.204,1.494,0.91,1.77,1.611c1.425-1.269,2.119-3.407,2.635-4.209c0.945-1.47,2.345-0.985,2.758,0.51
				c0.947,3.41-3.021,6.069-3.844,6.525c0.278,1.709-0.259,3.303-2.393,4.504c4.278,2.263,1.875,6.458-0.014,5.662
				c-1.461-0.617-0.853-1.784-2.029-2.68c-1.35-1.028-3.647,0.2-5.379-1.727c-0.643,0.512-2.116,0.617-3.064-0.559
				c-0.94,0.212-4.307,1.461-6.105,2.455c-1.035,1.654-3.35,3.739-6.288,4.315c0.399,0.287,1.396,1.2,1.869,1.861
				c3.992-0.575,4.648,2.605,2.605,4.475c0.901,0.877,1.409,1.924,1.331,3.208c5.291,2.029,7.273,8.097,4.221,10.31
				c0.636,0.567,1.261,1.363,1.653,1.935c0.262-0.077,0.507-0.102,0.855,0.052c0.555-0.879,1.127-2.166,2.221-4.389
				c1.056-2.148,2.515-3.802,4.763-4.373c1.688-0.432,3.159,0.077,4.092,0.756c1.832,0.387,3.662,2.938,2.406,7.785
				c0.18,0.157,0.471,0.463,0.412,0.663c-0.066,0.221-0.529,0.351-0.787,0.398c-0.625,1.479-1.415,2.784-2.409,4.037
				c0.22,0.265,0.602,0.594,0.431,0.881c-0.173,0.285-0.901,0.289-1.413,0.207c-0.969,0.982-2.172,2.016-3.401,2.72l0.261,1.062
				c-0.729,0.613-1.68,1.162-3.049,1.537c0.069,0.181,0.089,0.418-0.063,0.575c-0.286,0.303-1.237,0.207-1.666-0.151
				c-3.448,0.668-5.793-0.595-4.909-2.349c-1.95-0.728-1.379-3.384-0.59-4.482c-0.612-0.506-0.715-1.343-0.28-2.233
				c-0.367-1.128-1.11-2.08-1.936-2.905c-1.481,1.041-4.095,1.013-6.843-2.616c-1.242,0.473-3.008,0.588-4.396,0.365
				c-0.43,0.848-1.412,1.729-2.175,2.226c0.007,0.21-0.022,0.455-0.076,0.59c2.91,0.979,2.679,4.839,0.743,6.368
				c0.285,0.36,0.276,1.196-0.051,1.532c-0.45,0.457-1.352,0.863-2.03,1.122c-0.162,0.829-0.573,1.218-0.993,1.15
				c-0.354-0.06-0.361-0.482-0.336-0.725c-0.61,0.125-1.553,0.326-2.15,0.257c-0.172-0.253-0.327-0.609-0.449-0.853
				c-1.009,0.219-2.178,0.438-3.14,0.551c-0.52,1.551-1.835,0.678-2.077,0.274c-0.878,0.04-1.843,0-2.707-0.091
				c-0.48,0.968-2.113,0.943-2.147-0.445c-0.784-0.274-1.531-0.627-2.275-1.007c-1.372,0.75-1.984-0.498-1.676-1.269
				c-1.17-1.217-1.575-2.401-0.729-2.979c-1.518-2.848,0.502-4.951,1.554-5.472c-2.531-0.675-4.246-2.77-4.922-3.729
				c-1.089-1.546-2.655-4.74-3.919-5.84c-0.977-0.851-1.835-1.382-3.165-1.322c1.166-0.259,2.304,0.295,3.316,1.17
				c1.466,1.273,2.7,4.046,3.968,5.82c1.354,1.899,3.429,3.36,5.142,3.657c4.205-1.439,8.429,1.438,9.588,1.654
				c0.06-0.752,0.825-1.387,2.032-1.543c0.001,0.006-0.1-0.166-0.115-0.166c-2.305-0.596-4.023-1.87-4.056-3.695
				c-0.03-1.852,1.475-4.132,5.097-6.027c0.285-1.365,1.001-2.45,1.614-3.137c-1.144-1.938,1.571-2.648,2.217-2.642
				c0.023-0.215-0.079-0.785-0.177-0.98c-2.313,0.946-8.706,4.067-15.611,1.157c-1.149,0.324-2.729,0.066-2.814-1.036
				c-4.519-0.367-6.104-3.042-6.782-4.884c-1.88-0.464-3.225-2.253-3.04-5.934c-0.233-0.84,0.028-1.713,0.441-2.202
				c0.346-2.407,1.887-5.06,4.074-7.003c2.85-2.571,6.612-3.944,10.633-2.963C16.627,7.145,25.61,4.178,28.59,9.554z M22.203,29.045
				c-1.264,1.576-2.999,1.984-3.979,2.035c0.092,0.646,0.082,1.585-0.115,2.206c0.736,0.402,0.733,1.167,0.611,1.708
				c2.837,1.545,8.201,0.444,11.002-1.187c-0.038-0.072-0.06-0.158-0.091-0.219c-1.447-0.237-3.019-1.397-3.685-2.315
				C24.914,31.146,23.538,30.555,22.203,29.045z M33.062,50.78c-0.172,0.562-0.968,1.367-1.596,1.599
				c0.671-0.014,1.719,0.312,2.107,1.111c0.647-0.455,1.53-1.354,1.676-1.938C34.503,51.398,33.595,51.047,33.062,50.78z"/>
			<path fill="#F4F2EF" d="M62.741,8.75c1.846,2.21-0.331,5.858-0.524,7.407c0.652,0.18,1.51,1.028,1.9,1.695
				c1.293-0.583,2.451-3.248,3.016-4.358c0.532-1.043,1.894-0.799,2.081,0.614c0.324,2.442-0.992,4.25-3.741,6.169
				c0.222,2.354-1.176,3.837-2.565,4.648c3.898,1.908,2.242,5.775,0.647,5.344c-1.325-0.359-0.941-1.985-2.005-2.704
				c-0.744-0.5-1.343-0.546-2.815-0.585c-1.1-0.027-2.19-0.501-2.688-0.949c0.265-0.216,0.479-0.726,0.439-1.04
				c-0.735,1.551-2.611,1.332-3.295,0.49c0.484-0.128,1.308-0.342,1.854-0.439c0.544-0.501,0.401-1.708-0.89-2.208
				c-0.681-0.171-1.6-0.113-2.302,0.059c-0.241-1.306,1.884-1.817,3.52-0.793c-0.438-0.634-1.647-0.969-2.655-0.771
				c0.044-1.53,1.192-3.208,2.134-4.092c0.073-0.393-0.433-1.42-0.7-1.804c-0.876-1.243-1.909-1.905-2.138-2.837
				c-0.29-1.185,0.904-2.121,2.597-0.927c1.391,0.982,2.079,3.922,2.455,4.135c0.659-0.387,1.798-0.638,2.571-0.603
				c1.312-1.823-0.124-5.278,0.742-6.474C60.988,7.892,62.004,7.867,62.741,8.75z"/>
			<path fill="#884E00" d="M34.816,11.029c-7.135,1.686-10.884,8.204-11.591,9.057c0.075-2.215-0.446-4.421-2.225-5.73
				C24.436,9.252,31.583,9.295,34.816,11.029z"/>
			<path fill="#884E00" d="M39.354,12.479c0.104,0.13,1.05,1.389,0.841,1.871c-0.096,0.311-0.56,0.732-0.978,0.938
				c-0.16-0.097-0.405-0.219-0.52-0.26c0.259-0.056,0.578-0.171,0.938-0.279c-1.408-0.181-4.988,1.16-7.168,2.683
				c-1.945,1.27-4.611,3.534-5.278,5.446c-0.393,1.128,0.617,1.65,1.353,3.858c0.582,1.744,0.318,3.113-0.995,3.85
				c-1.283,0.721-2.892,0.082-4.285-1.093c-1.243-1.047-2.143-2.714-2.312-3.521c1.175-1.563,1.87-3.358,2.222-5.164
				c1.726-2.664,3.899-4.984,5.891-6.494c3.469-2.498,6.639-3.094,7.929-3.169C38.207,11.074,38.817,11.815,39.354,12.479z"/>
			<path fill="#F4F2EF" d="M17.978,13.564c-1.487,0.828-1.918,3.173-0.857,5.231c1.098,2.127,3.296,3.594,5.435,2.483
				c-0.158,0.759-0.391,1.516-0.705,2.197c-1.769,1.19-4.893-0.289-6.512-2.668c-1.571-2.306-1.654-5.824,0.523-7.429
				C16.511,13.354,17.435,13.451,17.978,13.564z"/>
			<path fill="#884E00" d="M8.196,16.587c2.358-2.179,5.273-3.157,7.182-3.201c-1.138,0.999-1.64,2.525-1.498,4.241
				c-1.413,0.451-2.906,1.077-3.98,1.856c-0.14-0.268-0.503-1.039-1.035-0.87c-0.306,0.097-0.635,0.907-0.24,1.885
				c0.406,0.995,1.066,1.466,1.488,1.276c0.623-0.279,0.156-1.32-0.131-2.085c1.088-0.737,2.821-1.505,3.92-1.826
				c0.372,3.502,3.562,6.33,6.553,6.404c-0.557,1.394-2.187,2.997-3.405,3.955c-0.845-1.295-1.758-1.682-2.283-3.033
				c-0.615-1.596-0.432-2.397-0.938-4.163c-0.508-1.768-2.562-1.25-3.11,0.33c-0.539,1.552,0.164,3.332,0.798,4.435
				c-0.877-0.416-1.844-1.29-2.233-2.253c-0.377-0.931-0.938-2.449-1.065-2.705c-0.122-1.125-0.724-1.487-1.034-1.021
				c-1.258-0.417-2.147,1.402-1.964,2.985c-0.253-0.146-0.734-0.048-0.931,0.167C4.803,20.604,6.436,18.173,8.196,16.587z"/>
			<path fill="#884E00" d="M22.187,16.358c-0.584-0.201-1.167,0.061-1.278,0.364c0.273-0.235,1.109-0.33,1.361-0.182
				c0.49,0.891,0.673,2.979,0.392,4.225c-1.271,1.125-3.858,0.686-5.363-2.274c-0.939-1.842-0.545-4.044,0.972-4.855
				C19.786,13.973,21.399,14.767,22.187,16.358z"/>
			<path fill="#0B0A0B" d="M20.605,16.792c0.021-0.059,0.034-0.126,0.034-0.173c-0.952-0.528-3.078,0.023-3.667,0.249
				c0.738-0.581,2.624-1.036,3.667-0.4c0.055-0.513-0.035-1.243-0.292-1.942C20.948,15.347,20.996,16.524,20.605,16.792z"/>
			<path fill="#0B0A0B" d="M21.564,20.884c0.378-1.374,0.144-2.996-0.772-4.055C22.369,17.646,22.035,20.147,21.564,20.884z"/>
			<path fill="#F4F2EF" d="M9.777,20.032c0.278,0.67,0.597,1.384,0.291,1.527c-0.247,0.116-0.748-0.244-1.145-1.199
				c-0.23-0.549-0.266-1.409,0.039-1.507C9.282,18.749,9.513,19.345,9.777,20.032z"/>
			<path fill="#0B0A0B" d="M56.08,21.617c0.433-1.203,1.811-2.669,2.827-2.733C57.909,19.49,56.932,20.623,56.08,21.617z"/>
			<path fill="#0B0A0B" d="M56.486,18.922c-0.279,0.335-1.097,1.452-1.388,2.577C55.173,20.586,55.734,19.045,56.486,18.922z"/>
			<path fill="#F4F2EF" d="M7.85,20.275c-0.127-0.194-0.314-0.303-0.443-0.375C7.462,19.728,7.751,19.923,7.85,20.275z"/>
			<path fill="#F4F2EF" d="M7.804,20.874c0.423,0.73,0.616,1.7,1.112,2.815c0.576,1.296,1.705,2.175,3.071,2.519
				c-1.007-1.8-1.312-3.611-0.849-4.801c0.418-1.068,1.95-1.798,2.336-0.292c0.428,1.652,0.315,4.091,1.917,5.742
				c1.17,1.206,2.102,2.678,2.336,4.206c0.404,2.645-0.867,3.801-2.469,4.473c0.314,0.185,2.119-0.506,2.734-1.948
				c0.861,0.82,0.103,2.462-1.387,3.086c-1.297,0.54-2.842,0.471-3.028-0.414c0.098,0.007,0.413,0.011,0.462-0.086
				c-1.894-0.29-3.255-0.699-4.672-1.685c-1.024-0.711-1.914-1.832-2.419-3.144c-0.894-2.322-2.973-3.969-3.104-6.429
				c-0.087-1.607,1.196-2.13,1.415-1.629c0.324,3.002,2.297,4.679,3.289,5.341c-0.743-1.001-2.612-2.611-2.888-5.352
				C5.363,20.35,7.001,19.276,7.804,20.874z"/>
			<path fill="#0B0A0B" d="M56.315,22.744c0.638-0.976,1.6-1.746,2.511-1.728C58.077,21.437,57.1,22.049,56.315,22.744z"/>
			<path fill="#0B0A0B" d="M26.097,26.524c0.528,1.25,0.054,2.294-0.604,2.503c-0.854,0.266-1.68-0.44-2.012-1.318
				c-0.44-0.955-0.265-2.185,0.629-2.476C24.819,25.002,25.683,25.545,26.097,26.524z"/>
			<path fill="#F4F2EF" d="M24.143,25.464c0.507-0.186,1.246,0.281,1.648,1.271c0.336,0.803,0.304,1.758-0.32,2.054
				c-0.679,0.238-1.322-0.383-1.671-1.265C23.431,26.591,23.542,25.679,24.143,25.464z"/>
			<path fill="#884E00" d="M6.359,30.931c-1.737-0.576-2.454-2.678-2.481-4.129C4.775,28.77,5.903,29.738,6.359,30.931z"/>
			<path fill="#D31245" d="M32.736,33.292c0.126-0.197,0.148-0.808,0-1.098c1.32-0.229,2.535,1.833,1.307,1.982
				c-1.28,0.182-2.46-0.467-3.05-1.534c-0.613-1.117-1.187-2.398-1.594-3.043C30.646,29.833,32.497,31.278,32.736,33.292z"/>
			<path fill="#F4F2EF" d="M30.72,33.026c1.112,1.808,3.219,1.783,4.202,1.276c0.777-0.4,1.656-1.141,2.066-1.813
				c0.307,0.032,0.986,0.101,1.322,0.06c-1.523,1.88-4.281,3.337-6.439,2.521c-0.903-0.342-1.347-0.783-1.831-1.586
				c-0.418-0.608-1.101-1.917-1.607-1.951c0.564,0.435,0.898,1.355,1.029,1.616c-1.162-0.337-2.408-1.081-3.077-1.88
				c0.914-0.036,2.216-0.531,2.622-1.711C29.814,30.958,29.886,31.667,30.72,33.026z"/>
			<path fill="#0B0A0B" d="M13.466,34.02c-0.85-1.083-1.679-2.694-1.583-3.479C12.428,31.706,12.941,32.854,13.466,34.02z"/>
			<path fill="#0B0A0B" d="M12.784,34.674c-0.616-0.342-2.374-2.02-2.336-2.996C10.933,32.425,11.938,33.789,12.784,34.674z"/>
			<path fill="#0B0A0B" d="M12.379,35.327c-1.798-0.504-3.081-2.029-2.976-2.564C10.08,33.566,11.114,34.688,12.379,35.327z"/>
			<path fill="#005695" d="M43.663,39.371c0.244,0.011,0.708-0.26,0.998-0.464c0.771,0.861,1.162,1.806,1.385,2.916
				c-0.168-0.069-0.573-0.129-0.628-0.108c7.437,3.493,6.546,9.193,4.879,10.312c-0.284-0.228-0.579-0.472-0.89-0.62
				c0.27-0.064,0.841-0.4,0.852-0.665c-0.616,0.379-1.729,0.774-2.364,0.762c0.211-0.345,0.261-0.749,0.539-0.96
				c-0.754,0.266-1.154,1.925-3.357,2.535c0.155,0.128,0.787-0.019,0.982-0.126c0.075,0.145,0.126,0.455,0.144,0.745
				c0.104-0.092,0.14-0.322,0.096-0.483c0.182,0.107,0.445,0.357,0.572,0.505c-2.34,1.268-5.079-0.929-6.417-2.485
				c0.523-0.199,1.657-0.808,1.837-1.199c-4.841,2.42-9.37,0.881-11.411-1.204c0.118,0.514,1.161,1.345,1.84,1.758
				c-1.112,2.713-6.566,2.265-8.607,0.094c-1.832-1.951,0.064-5.319,3.948-7.542c-0.024,0.46-0.136,1.156,0.383,2.223
				c-0.397-2.271,0.659-4.286,1.44-5.344c0.723,0.844,3.115,1.626,3.978,1.251c-1.588-0.168-3.35-0.952-3.856-1.786
				c-0.554-0.912,0.477-1.927,1.906-2.061c0.029,0.389-0.023,0.739-0.134,1.017c-0.235-0.07-0.439-0.184-0.711-0.402
				c0.507,0.964,2.441,2.203,6.718,1.337c1.158,0.072,2.154,2.255,1.17,3.438c0.518-0.05,2.266-1.203,1.661-4.19
				c1.329-0.586,3.096-1.534,3.056-2.942c-0.069,0.233-0.302,0.581-0.439,0.679c-0.101-0.606-0.362-1.278-0.678-1.783
				C45.602,34.029,47.134,36.875,43.663,39.371z"/>
			<path fill="#DFC771" d="M58.245,46.631c1.655-1.134,3.752-1.303,5.218-0.479c-2.189,0.227-3.496,2.187-4.675,5.252
				c-1.304,3.388-2.357,6.253-5.628,9.476c-0.971,0.957-1.719,0.969-3.019,2.314c-1.837-0.598-1.454-3.294,0.194-5.215
				c-0.252-0.011-0.626,0.542-0.834,0.803c-1.551-1.343,1.799-4.846,3.342-4.317c-0.287,0.6-0.597,1.014-0.989,1.549
				c0.866-0.261,2.562-3.443,3.071-4.621C55.453,50.168,56.62,47.743,58.245,46.631z"/>
			<path fill="#DFC771" d="M58.61,52.853c0.878-2.471,1.934-4.848,3.263-5.721c1.191-0.779,2.359-0.858,3.037-0.129
				c-3.3-0.775-5.036,3.766-5.739,5.836c-0.831,2.455-3.023,6.675-5.839,8.198C55.739,58.858,57.396,56.271,58.61,52.853z"/>
			<path fill="#DFC771" d="M62.738,58.601c0.104-0.007,0.399,0.084,0.553,0.193c0.646-0.773,1.797-2.503,2.278-3.705
				c-0.159,0-0.408-0.028-0.532-0.116c-0.549-0.396-0.228-1.433,0.271-1.511c0.22-0.036,0.627,0.121,0.778,0.234
				c0.949-2.906,0.321-6.558-1.842-6.459c-2.428,0.106-3.574,2.733-4.387,4.681c-1.17,3.354-3.223,7.757-6.524,9.393
				c1.456,1.408,3.868,1.878,5.729,1.389c1.265-0.893,2.682-2.087,3.184-2.775C61.863,59.648,62.28,58.628,62.738,58.601z"/>
			<path fill="#DFC771" d="M25.14,54.622c0.095,1.201,2.468,2.112,3.841,1.717c-2.317-0.289-3.492-1.134-3.492-1.869
				c0-0.783,0.906-1.314,1.819-1.372c0.194,0.366,0.397,0.754,0.588,1.098c-0.202-0.086-0.328-0.165-0.458-0.275
				c1.184,1.952,4.138,1.423,4.318-0.259c-0.083,0.097-0.171,0.19-0.266,0.233c-0.195-0.345-0.369-0.747-0.533-1.165
				c1.947-0.113,3.48,1.274,1.022,3.311c0.566-0.092,1.209-0.763,1.476-1.257c2.477,0.889,2.401,4.157,0.789,5.684
				c-1.824,1.73-4.87,2.28-6.635,2.626c-3.985,0.782-8.358-0.413-11.474-2.564c-3.966-2.744-3.03-6.277-0.406-7.422
				C19.101,51.637,23.912,54.313,25.14,54.622z"/>
			<path fill="#0B0A0B" d="M63.07,54.008c-0.413,0.385-1.568,0.342-1.887-0.045c-0.296-0.357,0.131-1.103,0.664-1.21
				C62.468,52.635,63.393,53.709,63.07,54.008z"/>
			<path fill="#BEC0C2" d="M62.854,53.881c-0.263,0.26-1.324,0.215-1.519-0.077c-0.149-0.226,0.232-0.797,0.581-0.816
				C62.337,52.96,63.052,53.69,62.854,53.881z"/>
			<path fill="#BEC0C2" d="M66.653,54.525c-0.166,0.333-1.23,0.397-1.461,0.245c-0.31-0.203-0.174-1.036,0.2-1.055
				C65.74,53.696,66.74,54.355,66.653,54.525z"/>
			<path fill="#0B0A0B" d="M60.709,58.865c-0.115,0.333-1.479,0.736-2.171,0.171c-0.341-0.278,0.021-1.186,0.537-1.269
				C59.629,57.68,60.842,58.497,60.709,58.865z"/>
			<path fill="#BEC0C2" d="M60.455,58.78c-0.182,0.253-1.279,0.44-1.727,0.124c-0.266-0.188,0.111-0.933,0.39-0.97
				C59.403,57.892,60.595,58.582,60.455,58.78z"/>
			<path fill="#DFC771" d="M23.939,63.72c-2.722,0.365-5.177-0.146-7.257-1.229c-2.367-1.234-3.854-3.134-2.93-3.757
				C15.542,61.389,19.994,63.29,23.939,63.72z"/>
			<path fill="#BEC0C2" d="M63.904,59.797c-0.091,0.295-1.271,0.147-1.453,0.029c-0.25-0.155,0.044-1.075,0.362-0.983
				C63.259,58.976,63.987,59.53,63.904,59.797z"/>
			<path fill="#DFC771" d="M34.003,62.271c-0.459,0.535-3.086,1.481-4.97,1.748c0.275-0.208,0.647-0.676,0.845-1.042
				c1.162-0.309,3.098-1.038,4.192-1.863C34.258,61.25,34.356,61.861,34.003,62.271z"/>
			<path fill="#DFC771" d="M59.054,62.969c0.08,0.295,0.209,0.821,0.209,0.821c-2.359,0.157-4.236-0.388-6.149-1.473
				c-0.078-0.318-0.112-0.602-0.069-0.859C54.429,62.68,56.349,63.519,59.054,62.969z"/>
			<path fill="#DFC771" d="M50.108,64.871c-0.611-1.394,1.778-2.58,2.674-3.298c-0.021,0.176,0.031,0.553,0.11,0.728
				C52.043,62.812,50.074,63.994,50.108,64.871z"/>
			<path fill="#BEC0C2" d="M15.665,62.451c-0.952,0.451-1.313-0.644-1.128-0.866C14.798,61.843,15.249,62.211,15.665,62.451z"/>
			<path fill="#DFC771" d="M58.916,64.08c-0.577,0.399-1.688,0.926-2.499,1.176c-0.145-0.178-0.456-0.48-0.742-0.503
				c-0.502-0.036-1.138,0.385-0.994,0.933c-2.211,0.339-4.238-0.281-4.347-0.656c-0.203-0.7,1.913-2.068,2.634-2.555
				C54.702,63.677,56.859,64.188,58.916,64.08z"/>
			<path fill="#DFC771" d="M29.485,63.087c-0.075,0.178-0.505,0.748-0.642,0.87c-0.126-0.212-0.225-0.516-0.257-0.67
				C28.823,63.223,29.23,63.141,29.485,63.087z"/>
			<path fill="#BEC0C2" d="M31.907,63.645c0.004,0.365-0.328,0.863-0.583,0.822c-0.148-0.022-0.209-0.165-0.119-0.601
				C31.439,63.801,31.684,63.727,31.907,63.645z"/>
			<path fill="#BEC0C2" d="M20.053,64.047c-0.519,0.828-1.648,0.273-1.472-0.295C19.018,63.896,19.551,64.01,20.053,64.047z"/>
			<path fill="#0B0A0B" d="M53.672,65.033c-0.334,0.364-1.43,0.196-1.564-0.154c-0.17-0.438,0.266-1.004,0.8-1.025
				C53.386,63.837,53.972,64.707,53.672,65.033z"/>
			<path fill="#BEC0C2" d="M24.796,63.978c-0.282,0.805-1.035,0.598-1.33,0.153C23.934,64.093,24.405,64.035,24.796,63.978z"/>
			<path fill="#BEC0C2" d="M53.536,64.899c-0.22,0.255-1.139,0.135-1.265-0.116c-0.11-0.222,0.274-0.729,0.608-0.743
				C53.216,64.021,53.692,64.719,53.536,64.899z"/>
			<path fill="#BEC0C2" d="M56.274,65.902c-0.28,0.238-1.239,0.037-1.352-0.207c-0.194-0.427,0.447-0.783,0.703-0.738
				C55.999,65.023,56.545,65.677,56.274,65.902z"/>
		</g>
		<path fill="#884E00" d="M20.595,24.258c-0.216,0.923-1.753,3.043-3.468,4.065c0.066,0.108,0.169,0.256,0.21,0.331
			c0.548-0.334,2.941-1.85,4.276-4.682C21.404,24.12,20.935,24.245,20.595,24.258z"/>
	</g>
	<path fill="#F4F2EF" d="M47.272,24.014c-0.639,0.776-2.051,0.617-2.381-0.508c-0.182-0.621-0.235-1.546-0.168-2.083
		c-1.756,0.175-3.153,1.985-3.807,3.7c-0.093-0.516,0.332-1.33,0.49-1.692c-0.353-0.177-0.798-1.312-1.319-2.622
		c-0.487-1.227-1.03-2.848-0.467-3.079c0.524-0.212,2.491,1.585,2.762,4.37c0.145-0.114,0.261-0.261,0.444-0.352
		c-0.267-2.462-2.33-5.656-4.707-6.536c-0.219,0.055-0.607,0.199-0.763,0.266c-0.023,0.375,0.451,0.991,0.511,1.428
		c-0.532-0.406-1.514-0.662-2.151-0.759c-1.963,0.83-3.757,2.071-5.3,3.401c0.01,2.993,1.973,5.509,2.252,5.953
		c-0.905-0.588-3.096-1.912-5.154-1.806c0.201,0.493,0.641,1.143,1.025,1.915c0.435-0.101,0.878-0.13,1.233,0.113
		c-0.48,0.007-0.828,0.061-1.109,0.147c0.302,0.652,0.545,1.385,0.569,2.184c2.624,2.921,6.495,4.338,9.584,4.088
		C43.711,31.817,47.89,27.382,47.272,24.014z"/>
	<path fill="#0B0A0B" d="M39.415,21.811c0.613,1.454,0.998,3.4,0.313,3.742c-0.698,0.299-1.525-0.771-2.529-2.988
		c-0.835-1.846-1.218-3.465-0.707-3.698C37.065,18.608,38.497,19.645,39.415,21.811z"/>
</g>
</svg>
