<?xml version="1.0" encoding="utf-8"?>
<!-- Generator: Adobe Illustrator 16.0.4, SVG Export Plug-In . SVG Version: 6.00 Build 0)  -->
<!DOCTYPE svg PUBLIC "-//W3C//DTD SVG 1.1//EN" "http://www.w3.org/Graphics/SVG/1.1/DTD/svg11.dtd">
<svg version="1.1" id="Layer_1" xmlns="http://www.w3.org/2000/svg" xmlns:xlink="http://www.w3.org/1999/xlink" x="0px" y="0px"
	 width="72px" height="72px" viewBox="0 0 72 72" enable-background="new 0 0 72 72" xml:space="preserve">
<g>
	<path fill="#231F20" d="M63.474,46.434c-0.628-0.338-1.22-0.583-1.819-0.599c-2.361-0.839-4.614,0.343-6.102,2.039
		c-0.291-0.363-0.618-0.65-0.956-0.821c0.087-0.947,0.084-1.9-0.15-2.793c0.445-0.329,0.777-0.701,0.961-1.115
		c0.664-1.504-0.289-2.933-0.869-3.55c2.527-0.955,4.25-2.136,3.964-3.661c-0.151-0.809-1.48-1.687-1.771-4.299
		c0.222-1.145,0.107-2.388-0.566-3.501c-1.623-2.679-5.442-3.951-6.557-5.12c0.608-1.195,1.285-3.607,0.625-6.408
		c-0.139-0.585-0.311-1.156-0.515-1.71C54.065,12.269,52.573,3.044,46.482,3c-3.673-0.027-5.166,2.916-5.49,4.828
		C38.464,7.464,35.79,7.63,33.32,8.456c-1.035-3.475-6.371-4.463-9.522-0.012c-2.602,3.676-1.068,7.532,1.002,8.766
		c-0.195,0.699-0.328,1.409-0.397,2.122c-4.849,3.152-4.65,9.022-1.689,11.011c-0.084,0.045-0.168,0.092-0.252,0.139
		c-0.878-0.714-2.058-0.985-2.986-0.154c-0.953,0.853-0.47,2.385-0.08,3.05c-0.339,0.586-0.593,1.244-0.718,1.977
		c-0.421,0.188-0.867,0.488-1.333,0.875c-1.254,1.036-1.973,2.502-1.27,3.346c0.813,0.979,2.358,0.721,3.331,0.16
		c0.125,0.087,0.267,0.173,0.413,0.253c-0.257,0.847,0.109,1.816,1.372,2.313c0.966,0.383,2.115,0.038,3.063-0.635
		c0.429,0.421,1.937,1.526,3.666-0.968c2.222-0.344,4.058-1.308,5.731-2.701c0.101,0.149,0.208,0.294,0.323,0.43
		c-0.486,0.275-0.568,0.901-0.304,1.537c-3.167,0.904-6.583,2.652-8.047,4.842c-1.556,0.853-3.261,2.537-3.351,4.618
		c-0.574,0.407-0.606,1.041-0.315,1.447c-0.243,0.229-0.48,0.472-0.689,0.679c-0.041-0.016-0.081-0.032-0.122-0.046
		c-0.345-1.541-0.975-3.686-2.578-5.289c-1.928-1.93-5.32-2.447-7.604-0.795c-0.085,0.019-0.17,0.036-0.256,0.059
		c-0.599,0.155-1.677,0.571-1.981,1.714c-1.31,1.434-1.491,4.214-0.581,6.535c-0.298,0.27-0.546,0.577-0.614,0.776
		c-0.342,1.315,0.833,2.575,1.783,2.75c0.307,0.057,0.565,0.075,0.786,0.073c1.616,1.605,2.703,1.989,3.36,2.265
		c-0.31,0.337-0.506,0.617-0.844,1.181c0.515,0.478,1.667,1,2.289,1.256c0.002,0.415,0.155,0.821,0.291,1.028
		c0.289,0.439,1.514,0.645,1.783,0.645c0.203,0,0.779-0.136,1.229-0.601c0.386,0.132,0.956,0.198,1.457,0.19
		c0.431,0.305,1.14,0.515,1.724,0.498c0.162-0.004,0.769-0.359,1.074-0.738c0.273-0.01,0.54-0.048,0.763-0.134l-0.001,0.002
		c0.758-0.329,1.437-0.923,1.452-1.658c1.5-1.078,1.526-3.068,0.231-4.639c0.715-0.771,0.399-2.234-0.494-3.275
		c0.083-0.107,0.18-0.229,0.288-0.363c0.803,0.218,1.928,0.341,2.658-0.1c0.983,0.249,3.24,0.057,4.93-0.868
		c0.702,0.9,2.415,0.596,4.236-0.685c1.035-0.728,2.61-2.436,2.827-2.283c0.283,0.197-0.42,1.576-0.898,3.123
		c-0.394,1.271-0.505,2.698,0.759,3.091c1.367,0.428,2.193-0.844,2.812-2.305c0.608-1.441,0.73-2.389,1.152-2.979
		c0.047-0.068,0.155-0.152,0.308-0.254c1.258,0.768,3.181,2.807,3.937,3.599c0.383,0.401,1.259,1.24,2.439,1.765
		c-0.107,0.93-0.026,1.763,0.204,2.49c-0.105,0.049-0.28,0.139-0.338,0.216c-0.085,0.111,0.536,3.872,5.539,3.823
		c5.454-0.053,8.828-5.005,9.417-9.306c0,0,0.312-0.004,0.395-0.114C66.1,48.776,63.998,46.713,63.474,46.434"/>
	<path fill="#918F90" d="M61.395,45.984c1.698,0.457,3.04,2.926,2.609,5.968c-0.463,3.27-3.784,8.569-8.825,8.669
		c-0.011,0-0.022,0-0.033,0c-0.481-1.799,1.199-3.679,2.285-4.483c1.652,0.245,3.092-0.237,2.876-1.147
		c0.553-0.074,0.97-0.278,1.108-0.637c0.284-0.737-0.586-0.988-1.66-1.239c0.465-0.641,0.514-1.443,0.5-2.045
		c0.384-0.522,0.583-1.224,0.434-2.055c-0.487-2.716-3.258-2.37-4.241-0.793c-0.189,0.047-0.38,0.09-0.569,0.124
		c-0.056-0.092-0.112-0.18-0.171-0.26C56.93,46.715,58.964,45.327,61.395,45.984"/>
	<path fill="#918F90" d="M54.93,60.621c-2.048-0.045-3.845-1.145-4.536-3.051c0.074-0.68,0.374-1.539,0.689-2.1
		c1.017,0.183,2.168,0.055,3.382-0.694c0.772,0.717,1.767,1.138,2.716,1.317C55.807,57.142,54.469,58.926,54.93,60.621"/>
	<path fill="#918F90" d="M50.275,57.193c-0.163-0.597-0.224-1.268-0.159-2.002c0.241,0.094,0.49,0.174,0.75,0.232
		C50.608,55.849,50.341,56.61,50.275,57.193"/>
	<path fill="#918F90" d="M57.718,51.771c0.513-0.271,0.993-0.637,1.202-1.094c0.449-0.983-0.14-2.417-1.237-2.613
		c-0.26-0.047-0.573,0.006-0.906,0.081c0.883-1.179,3.179-1.396,3.577,0.932C60.692,51.056,58.862,52.116,57.718,51.771"/>
	<path fill="#918F90" d="M59.553,53.067c-0.925-0.215-1.95-0.448-2.505-0.991c0.117-0.046,0.237-0.096,0.36-0.15
		c0.842,0.382,1.924,0.126,2.622-0.592C60.046,52.165,59.844,52.585,59.553,53.067"/>
	<path fill="#FFC425" d="M56.82,52.159c1.35,1.428,4.868,1.006,4.405,2.173c-0.353,0.89-3.929,0.385-5.315-0.896
		c0.253-0.37,0.431-0.763,0.549-1.162C56.565,52.242,56.688,52.204,56.82,52.159"/>
	<path fill="#FFC425" d="M60.128,55.011c0.319,1.34-3.693,1.257-5.436-0.378c0.448-0.305,0.805-0.648,1.088-1.019
		C56.641,54.535,58.737,55.131,60.128,55.011"/>
	<path fill="#231F20" d="M55.151,42.919c-0.57,1.385-3.627,2.427-6.266,2.574c0.304-0.751,0.331-1.656,0.057-2.461
		c-0.11-0.323-0.265-0.622-0.452-0.891c1.229-0.087,3.336-0.404,3.464-1.042c-0.154,0.091-0.451,0.187-0.819,0.276
		c-0.136-0.169-0.379-0.436-0.613-0.646c0.964-0.09,2.062-0.417,3.68-1.011C54.608,40.323,55.774,41.418,55.151,42.919"/>
	<path fill="#FFFFFF" d="M48.538,43.172c0.478,1.465-0.09,3.292-1.466,3.547c0.62-1.409,0.515-2.52,0.068-3.463
		c-0.538-1.136-1.188-1.736-1.953-2.077C46.587,40.791,48.048,41.661,48.538,43.172"/>
	<path fill="#7AC143" d="M48.092,41.671c0.54-0.224,0.903-0.652,1.045-0.986c0.322,0.049,0.635,0.073,0.958,0.068
		c0.271,0.226,0.567,0.549,0.704,0.702c-0.815,0.179-1.843,0.34-2.503,0.436C48.231,41.812,48.161,41.739,48.092,41.671"/>
	<path fill="#7AC143" d="M49.886,16.63c0.559,2.308,0.187,4.369-0.297,5.641c-0.994,1.198-2.056,1.375-2.612,1.306
		c0.03-0.172,0.054-0.333,0.072-0.484c0.646-0.259,1.637-1.578,1.446-2.295c-0.208-0.775-1.636-1.549-2.396-1.183
		c-0.535,0.258-0.668,1.226-0.561,1.883c-0.058,0.041-0.117,0.081-0.177,0.122c-0.416-0.817-0.235-2.582-0.372-4.17
		c-0.101-1.187-0.444-2.286-1.04-2.753c-1.034-0.81-4.11-0.621-6.229-0.405c-0.169-1.399,1.554-5.043,4.492-5.866
		C46.75,9.551,49.054,13.197,49.886,16.63"/>
	<path fill="#918F90" d="M35.319,32.093c-2.583,0.288-5.441,0.426-7.071,0.06c-2.34-0.524-1.932-2.198-1.046-3.086
		c0.094,0.239,0.23,0.482,0.408,0.719c-0.326,0.383-0.548,1.21,0.803,1.426c1.408,0.226,3.687,0.268,6.441-0.126
		c2.996-0.428,5.785-0.622,7.511-1.915c2.316-1.738,3.143-3.917,4.022-7.103c-1.419,1.157-3.73,2.741-6.262,3.641
		c-3.292,1.172-8.821,1.76-11.24,1.817c-3.175,0.073-4.084-0.131-4.456-0.874c-0.279-0.56,0.35-1.355,0.907-1.62
		c0.062,0.135,0.129,0.269,0.197,0.402c-0.157,0.12-0.322,0.341-0.322,0.564c0,0.141,0.106,0.577,2.583,0.612
		c2.502,0.035,8.989-0.717,11.924-1.654c2.56-0.814,6.467-3.316,6.72-4.076c-0.188,0.132-0.392,0.273-0.607,0.42
		c0.002-0.466,0.019-1.216,0.392-1.435c0.457-0.269,1.838,0.352,2.01,0.969c0.112,0.407-0.803,1.843-1.153,1.947
		c0.022-0.326,0.008-0.57-0.051-0.69c-0.9,4.428-2.051,6.82-4.878,8.36C40.585,31.303,37.665,31.834,35.319,32.093"/>
	<path fill="#7AC143" d="M38.699,31.959c-1.346,1.59-3.242,2.27-3.654,1.994c-0.292-0.194-0.67-0.839-0.932-1.347
		c0.46-0.042,0.923-0.091,1.388-0.145C36.598,32.336,37.689,32.168,38.699,31.959"/>
	<path fill="#754200" d="M24.566,32.587c0.714-0.457,1.383-0.834,1.908-1.085c0.301,0.427,0.856,0.786,1.745,0.988
		c0.134,0.03,0.272,0.057,0.415,0.083c0.618,0.865,2.428,2.848,4.181,4.324c-0.993,0.796-3.062,1.69-4.256,1.98
		c0.011-0.797-0.355-1.42-0.845-1.664c-0.397-0.198-0.784-0.268-1.152-0.176C26.532,35.671,25.877,33.792,24.566,32.587"/>
	<path fill="#FFFFFF" d="M26.327,37.117c-0.208,0.092-0.41,0.242-0.604,0.452c-0.101-0.112-0.218-0.218-0.358-0.315
		c-0.795-0.551-1.842-0.141-2.75,0.581c-0.029-0.989-0.547-2.009-1.297-2.718c0.885-0.866,1.982-1.7,3.012-2.377
		C25.699,33.952,26.229,35.857,26.327,37.117"/>
	<path fill="#FFE4CA" d="M37.165,26.833c0.11-0.022,0.22-0.048,0.328-0.071c0.02,0.754,0.083,2.129,0.169,3.072
		c-1.569,0.425-4.561-0.588-6.21-1.198c0.321-0.349,0.698-0.586,0.964-0.601c-0.688-0.334-1.737,0.938-1.444,1.326
		c0.079-0.183,0.183-0.354,0.302-0.511c1.188,0.408,4.268,1.591,6.406,1.186c0.015,0.12,0.026,0.23,0.041,0.328
		c-0.962,0.145-1.958,0.256-2.936,0.392c-1.586,0.223-2.919,0.305-4.022,0.307c-0.106-0.896-0.537-2.443-0.831-3.28
		c0.888-0.057,1.982-0.149,3.161-0.291C33.935,27.925,36.216,28.038,37.165,26.833"/>
	<path fill="#918F90" d="M30.539,31.062c-0.367-0.004-0.708-0.016-1.021-0.035c-0.101-0.89-0.516-2.362-0.81-3.188
		c0.06-0.003,0.118-0.005,0.177-0.006c0.231-0.008,0.492-0.02,0.778-0.035C29.979,28.532,30.464,30.273,30.539,31.062"/>
	<path fill="#FFC425" d="M29.292,31.012c-0.289-0.021-0.553-0.047-0.793-0.078c-0.35-0.044-1.14-0.307-0.724-0.951
		c0.361,0.401,0.859,0.753,1.51,0.953C29.288,30.964,29.29,30.987,29.292,31.012"/>
	<path fill="#FFE4CA" d="M29.241,30.643c-1.675-0.706-2.034-2.086-1.837-2.789c0.331,0.005,0.675,0.002,1.03-0.007
		C28.705,28.46,29.093,29.784,29.241,30.643"/>
	<path fill="#918F90" d="M37.736,26.707c0.397-0.093,0.786-0.192,1.164-0.297c0.02,0.862,0.107,2.807,0.229,3.701
		c-0.403,0.087-0.82,0.162-1.247,0.228C37.837,29.711,37.744,27.411,37.736,26.707"/>
	<path fill="#FFE4CA" d="M45.441,24.253c-0.101,0.267-0.205,0.529-0.316,0.785c-0.562-0.441-2.533-0.267-3.005,0.528
		c0.263-0.145,0.585-0.278,0.933-0.375c-1.057,0.916-2.032,2.999-3.811,3.998c-0.049-1.033-0.102-2.5-0.098-2.848
		c0.349-0.101,0.688-0.21,1.01-0.323c1.815-0.644,3.188-1.417,4.381-2.272l-0.006,0.014C44.791,23.985,45.126,24.172,45.441,24.253"
		/>
	<path fill="#FFC425" d="M44.725,23.607c0.451-0.333,0.88-0.679,1.298-1.034c-0.156,0.484-0.314,0.955-0.479,1.411
		C45.385,23.954,44.99,23.797,44.725,23.607"/>
	<path fill="#FFFFFF" d="M42.683,27.324c-0.475,0.54-1.031,1.07-1.809,1.516c-0.034-0.123-0.086-0.34-0.136-0.573
		c0.669-0.691,1.199-1.486,1.714-2.146C42.484,26.468,42.573,26.981,42.683,27.324"/>
	<path fill="#FFFFFF" d="M42.56,25.987c0.287-0.358,0.57-0.667,0.874-0.887c0.436-0.083,0.892-0.102,1.312-0.021
		c-0.772,0.569-1.291,1.343-1.943,2.108C42.732,26.932,42.604,26.354,42.56,25.987"/>
	<path fill="#FFFFFF" d="M40.742,28.915c-0.423,0.23-0.911,0.437-1.483,0.607c-0.003-0.038-0.005-0.079-0.007-0.118
		c0.519-0.265,0.964-0.616,1.361-1.009C40.65,28.583,40.694,28.763,40.742,28.915"/>
	<path fill="#FFE4CA" d="M44.942,25.124c0.042,0.012,0.087,0.023,0.127,0.04c-0.644,1.46-1.473,2.72-2.794,3.698
		c-0.806,0.598-1.84,0.96-2.984,1.216c-0.008-0.095-0.015-0.229-0.024-0.388C42.635,28.802,43.298,26.464,44.942,25.124"/>
	<path fill="#FFC425" d="M25.634,25.626c0.111,0.205,0.231,0.406,0.358,0.604c-0.284-0.054-0.459-0.134-0.492-0.255
		C25.471,25.83,25.54,25.714,25.634,25.626"/>
	<path fill="#FFC425" d="M30.136,17.072c0.022,0.017,0.046,0.033,0.072,0.049c-0.781,0.269-2.044,0.71-2.339,1.124
		c-0.627,0.878-0.801,5.001,0.524,7.625c-0.193,0.198-0.323,0.377-0.386,0.472c-0.224-0.003-0.437-0.006-0.639-0.011
		c-1.246-2.262-1.283-7.127-0.69-8.422c0.275-0.602,2.271-1.278,3.251-1.688C29.854,16.576,29.893,16.879,30.136,17.072"/>
	<path fill="#FFC425" d="M43.692,17.422c-0.11-0.725-0.319-1.262-0.58-1.493c-0.893-0.793-6.688-0.042-7.596,0.035
		c0.022-0.31,0.168-0.75,0.355-1.209c1.518-0.222,6.725-0.801,7.931,0.099c0.545,0.406,0.856,1.446,0.941,2.601
		c0.117,1.598-0.062,3.434,0.417,4.301c-0.299,0.199-0.613,0.406-0.943,0.613c0.002-0.007,0.006-0.015,0.007-0.02
		C43.655,20.98,43.898,18.781,43.692,17.422"/>
	<path fill="#FFE4CA" d="M32.396,25.978c-1.728,0.206-3.282,0.342-4.112,0.361c0.243-0.325,0.679-0.778,1.677-1.153
		c-1.67-2.367-1.369-5.488-0.495-7.553c0.372-0.151,0.742-0.29,1.023-0.396c0.419,0.108,1.009,0.063,1.575-0.042
		c0.085,0.175,0.177,0.431,0.31,0.7c-0.869,1.227-0.696,5.167,0.576,6.561c-0.438,0.21-0.765,0.45-0.899,0.699
		c1.596-1.048,4.379-1.438,6.171-0.988c-0.224-0.166-0.521-0.279-0.864-0.35c1.287-1.651,1.165-5.942,0.119-7.264
		c0.174-0.195,0.357-0.375,0.556-0.537c1.411-0.112,3.05-0.217,4.04-0.147c1.01,1.541,0.573,4.791,0.045,6.723
		c0.446-0.346,1.176-0.628,1.647-0.787c0.066,0.245,0.149,0.478,0.253,0.69c-1.297,0.806-2.81,1.626-4.411,2.182
		c-0.557,0.192-1.389,0.387-2.358,0.573C36.322,23.939,32.795,24.316,32.396,25.978"/>
	<path fill="#231F20" d="M35.889,16.691c0.365-0.15,0.699-0.317,0.775-0.564c0.304-0.025,0.644-0.055,1.008-0.084
		c-1.085,0.844-1.484,2.432-3.431,2.718c-1.069,0.157-1.694-1.006-1.941-1.615c0.561-0.12,1.068-0.288,1.323-0.402
		C34.302,16.944,35.178,16.984,35.889,16.691"/>
	<path fill="#FFFFFF" d="M35.532,16.207c0.178-0.005,0.494-0.03,0.898-0.062c-0.103,0.143-0.309,0.184-0.6,0.263
		C35.663,16.417,35.569,16.341,35.532,16.207"/>
	<path fill="#FFFFFF" d="M37.3,20.374c-0.879,0-0.896,2.96-0.33,3.379c-0.206-0.023-0.423-0.033-0.648-0.031
		c-0.563-0.839-0.926-3.575-0.785-5.128c0.746-0.475,1.242-1.23,1.807-1.891c0.645,0.951,0.882,3.875,0.318,5.857
		C37.813,21.578,37.755,20.374,37.3,20.374"/>
	<path fill="#FFE4CA" d="M34.162,19.052c0.063-0.003,0.127-0.009,0.193-0.02c0.326-0.047,0.612-0.14,0.871-0.265
		c-0.176,1.627,0.264,3.996,0.833,4.96c-0.604,0.024-1.24,0.125-1.827,0.274C34.427,22.625,34.416,20.715,34.162,19.052"/>
	<path fill="#FFFFFF" d="M33.691,24.16c-0.198,0.065-0.384,0.135-0.557,0.21c-1.155-1.445-1.278-5.161-0.664-6.294
		c0.266,0.474,0.677,0.929,1.41,0.979c0.122,0.892,0.197,1.908,0.213,2.868c-0.064-0.275-0.157-0.459-0.28-0.452
		C33.179,21.507,33.293,23.638,33.691,24.16"/>
	<path fill="#FFFFFF" d="M35.985,14.484c0.293-0.677,0.635-1.352,0.763-1.687c0.002,0.417-0.178,1.221-0.238,1.627
		C36.305,14.45,36.128,14.47,35.985,14.484"/>
	<path fill="#FFFFFF" d="M35.511,16.486c-1.08,0.213-2.487-0.116-2.962-0.485c0.07,0.241,0.37,0.473,0.785,0.641
		c-0.586,0.206-2.506,0.595-3.013,0.189c-0.662-0.529,0.966-2.507,1.089-3.212c1.415-0.087,4.188-0.551,5.222-0.866
		C36.153,13.599,34.632,16.119,35.511,16.486"/>
	<path fill="#FFFFFF" d="M45.69,27.413c0.447-0.179,0.931-0.536,1.382-1.002c-0.202,1.466-0.825,2.374-2.705,2.855
		C44.925,28.698,45.337,28.087,45.69,27.413"/>
	<path fill="#FFFFFF" d="M45.883,27.028c0.027-0.053,0.051-0.106,0.077-0.16c0.331-0.715,0.602-1.521,0.794-2.268
		c0.456,0.068,0.913,0.03,1.336-0.128C47.507,25.678,46.631,26.56,45.883,27.028"/>
	<path fill="#FFC425" d="M46.82,24.333c0.04-0.172,0.077-0.339,0.109-0.502c0.522,0.074,1.493-0.013,2.41-0.991
		c-0.099,0.198-0.196,0.362-0.288,0.486C48.383,24.239,47.595,24.412,46.82,24.333"/>
	<path fill="#FFC425" d="M41.067,8.201c0.313,0.043,0.615,0.101,0.911,0.167c-3.017,0.781-4.769,4.688-4.43,5.942
		c-0.313,0.032-0.602,0.066-0.856,0.094c0.074-0.401,0.237-1.06,0.201-1.881c-0.715,0.147-4.418,0.802-5.617,0.965
		c-0.161,0.487-0.958,1.556-1.262,2.437c-0.293,0.124-0.678,0.265-1.09,0.423c-0.654-1.467-0.338-3.978,2.973-6.874
		C34.752,8.119,38.028,7.767,41.067,8.201"/>
	<path fill="#7AC143" d="M26.835,13.745c1.25-1.802,2.854-3.137,4.642-4.062c-3.274,2.723-3.441,5.262-2.72,6.731
		c-0.971,0.382-2.029,0.861-2.326,1.441c-0.624,1.219-0.653,6.143,0.715,8.469c-0.313-0.009-0.592-0.025-0.829-0.05
		C23.957,22.491,24.28,17.427,26.835,13.745"/>
	<path fill="#FFC425" d="M24.377,19.648c-0.124,1.789,0.161,3.579,0.877,5.206c-0.487,0.233-1.454,1.154-1.021,1.965
		c0.395,0.742,1.492,0.98,2.888,1.027c-0.116,0.24-0.118,0.619,0.014,1.038c-0.436,0.339-0.756,0.801-0.883,1.284
		c-0.812-0.75-1.677-1.466-2.259-1.334c0.551,0.159,1.208,0.772,1.739,1.251c-0.868-0.535-1.845-1.18-2.628-0.994
		c0.234,0.051,0.706,0.273,1.22,0.546c-0.402,0.139-0.849,0.321-1.312,0.552C20.296,28.336,19.902,23.042,24.377,19.648"/>
	<path fill="#754200" d="M24.622,29.797c0.626,0.344,1.258,0.729,1.576,0.959c0.017,0.186,0.066,0.37,0.154,0.545l-0.017-0.019
		c-0.502,0.198-1.223,0.588-2.011,1.096c-0.71-0.573-1.591-0.951-2.65-0.976C22.662,30.656,23.738,30.126,24.622,29.797"/>
	<path fill="#FFFFFF" d="M19.71,30.51c0.724-0.635,1.724-0.439,2.465,0.141c-0.963,0.59-1.914,1.389-2.596,2.429
		C19.281,32.503,18.913,31.206,19.71,30.51"/>
	<path fill="#FFFFFF" d="M21.415,31.604c1.106,0.052,1.983,0.407,2.67,0.933c-1.011,0.67-2.103,1.518-2.976,2.398
		c-0.528-0.436-1.15-0.718-1.787-0.741C19.8,33.154,20.563,32.294,21.415,31.604"/>
	<path fill="#754200" d="M19.23,34.409c0.606,0.064,1.193,0.323,1.69,0.722c-0.129,0.136-0.253,0.272-0.369,0.41
		c-0.456-0.425-0.993-0.493-1.591-0.298C19.029,34.954,19.12,34.675,19.23,34.409"/>
	<path fill="#FFFFFF" d="M16.312,39.392c-0.594-0.79,0.119-2.096,1.188-2.96c1.218-0.989,2.251-1.31,2.904-0.651
		c1.153,1.161-0.059,3.053-2.306,3.553c0.251,0.104,0.562,0.089,0.891-0.01c0.037,0.081,0.113,0.166,0.215,0.254
		C18.375,39.908,16.975,40.274,16.312,39.392"/>
	<path fill="#754200" d="M19.228,39.237c1.258-0.528,2.585-2.206,1.507-3.505c0.124-0.143,0.256-0.282,0.393-0.423
		c0.725,0.674,1.216,1.658,1.221,2.749c-0.71,0.63-1.303,1.419-1.575,2.03C20.337,39.971,19.585,39.562,19.228,39.237"/>
	<path fill="#FFFFFF" d="M21.36,42.047c-1.209-0.439-1.415-1.202-1.315-1.945c0.231,0.112,0.456,0.202,0.628,0.252
		c-0.056,0.184-0.074,0.34-0.044,0.457c0.844-1.91,3.346-4.217,4.554-3.346C27.333,39.014,23.704,42.9,21.36,42.047"/>
	<path fill="#FFFFFF" d="M27.628,40.652c-1.431,2.013-2.71,1.24-3.157,0.85c1.288-1.015,2.117-2.62,1.414-3.718
		c0.301-0.344,0.923-0.755,1.603-0.404C28.251,37.776,28.668,39.19,27.628,40.652"/>
	<path fill="#754200" d="M28.127,40.367c0.248-0.435,0.375-0.859,0.417-1.249c0.888-0.138,3.39-0.968,4.429-2.087
		c0.085,0.068,0.168,0.137,0.251,0.202c0.077,0.173,0.17,0.35,0.276,0.526C31.7,39.179,30.049,39.953,28.127,40.367"/>
	<path fill="#FFC425" d="M34.128,38.604c0.376,0.404,0.791,0.685,1.147,0.66c-0.411-0.195-1.171-1.006-1.628-1.703
		c1,0.748,1.91,1.232,2.472,1.114c-2.305-0.9-5.313-4.132-7.056-5.987c-0.031-0.031-0.077-0.05-0.129-0.068
		c1.389,0.2,3.109,0.163,4.91,0.011c0.257,0.436,0.573,1.269,1.061,1.563c0.541,0.323,2.475-0.17,4.11-2.301
		c1.304-0.287,2.453-0.646,3.263-1.09c0.723-0.395,1.302-0.808,1.784-1.244c2.451-0.306,3.183-1.539,3.3-3.465
		c0.441-0.523,0.826-1.143,1.082-1.787c0.317-0.18,0.61-0.437,0.862-0.785c0.056-0.076,0.113-0.167,0.175-0.272
		c1.269,1.397,4.599,2.403,6.346,5.108c1.53,2.365,0.029,4.863-0.505,6.129c0.518-0.562,0.962-1.321,1.235-2.17
		c0.295,2.245,1.503,3.037,1.633,3.66c0.247,1.188-1.222,2.224-4.025,3.381c-1.771,0.731-4.101,1.312-5.252,0.976
		c-1.868-0.547-5.108-3.378-7.624-3.102c1.544,0.394,2.859,0.99,3.974,1.577c-1.156-0.327-2.715-0.793-3.227-0.472
		c1.112,0.075,2.317,0.521,4.039,0.913c1.173,0.656,2.093,1.226,2.811,1.388c-0.22,0.341-0.539,0.666-0.971,0.868
		c-0.851-0.731-2.017-0.994-3.088-0.468c-0.583-0.195-1.226-0.273-1.932-0.341c-0.737-0.069-1.479-0.216-2.053-0.527
		c-0.345-0.189-0.648-0.455-0.862-0.764c-0.402-0.579-0.694-0.963-1.167-1.196c-0.672-0.331-1.473-0.266-2.102,0.367
		c-0.775,0.733-0.846,2.024-0.156,2.976C34.106,41.315,33.273,39.16,34.128,38.604"/>
	<path fill="#FFC425" d="M21.978,55.795c-0.375,0.159-0.22-1.354-0.717-3.753c-0.021-0.101-0.042-0.202-0.066-0.31
		C22.604,52.321,22.435,55.603,21.978,55.795"/>
	<path fill="#FFC425" d="M22.454,53.577c0.848,1.046,1.038,2.719,0.593,2.916c-0.469,0.205-0.762-0.293-0.937-0.499l-0.023-0.004
		C22.47,55.751,22.629,54.643,22.454,53.577"/>
	<path fill="#918F90" d="M18.436,46.489c0.552,0.539,0.986,1.174,1.339,1.875c-1.109-0.783-2.568-0.783-3.628-0.015
		c-1.15-1.979-2.725-3.158-4.648-3.006C13.662,44.252,16.55,44.641,18.436,46.489"/>
	<path fill="#585556" d="M9.345,56.964c-0.794-0.149-1.777-1.226-1.491-2.347c0.123-0.369,0.878-1.186,1.327-1.186
		c0.88,0,2.465,2.226,1.92,3.228C10.876,56.883,10.426,57.17,9.345,56.964"/>
	<path fill="#585556" d="M10.496,57.285c0.438-0.087,0.666-0.291,0.828-0.451c0.735-1.317-1.164-3.681-2.137-3.681
		c-0.201,0-0.462,0.128-0.719,0.311c-0.957-2.278-0.726-6.214,1.816-6.833c2.417-0.593,4.681,1.174,5.772,4.762
		c0.909,2.988,1.651,5.068,3.69,7.17c-1.641,0.348-4.993,0.841-6.067,0.835C12.73,58.973,11.541,58.392,10.496,57.285"/>
	<path fill="#585556" d="M13.711,59.564c1.282,0.004,4.328-0.368,6.167-0.866c0.016,0.017,0.031,0.032,0.046,0.049
		c-0.155,0.467-0.3,1.033-0.331,1.157c-1.619,0.469-5.294,0.725-6.624,0.654C13.18,60.273,13.52,59.818,13.711,59.564"/>
	<path fill="#585556" d="M18.269,62.499c-0.347,0.797-1.124,1-1.348,1c-0.224,0-1.249-0.174-1.49-0.551
		c-0.184-0.286-0.408-1.021-0.062-1.51C16.166,60.992,18.377,61.698,18.269,62.499"/>
	<path fill="#585556" d="M22.312,62.743c-0.143,0.391-0.856,0.833-1.02,0.838c-0.674,0.02-1.553-0.328-1.736-0.755
		c-0.301-0.701-0.246-1.226-0.021-1.491C20.217,60.822,22.619,61.44,22.312,62.743"/>
	<path fill="#585556" d="M23.375,62.535c-0.166,0.165-0.494,0.247-0.768,0.277c0.001-0.002,0.002-0.004,0.003-0.004
		c0.348-1.447-2.397-2.33-3.322-1.651c-0.269,0.312-0.336,0.925,0.024,1.747c0.021,0.046,0.051,0.096,0.087,0.14
		c-0.439-0.024-0.768-0.092-1.017-0.156c0.078-0.105,0.148-0.224,0.208-0.358c0.13-0.935-2.395-1.829-3.469-1.244
		c-0.09,0.126-0.146,0.266-0.18,0.409c-0.494-0.209-1.542-0.69-1.949-0.966c1.685,0.206,4.817-0.01,6.804-0.705
		C21.388,60.751,23.83,62.08,23.375,62.535"/>
	<path fill="#585556" d="M23.71,62.388c-0.067-0.781-2.489-2.022-3.869-2.6c0,0,0.197-0.844,0.281-1.127
		c-1.659-1.854-2.614-3.363-3.768-7.401c-1.068-3.739-3.457-5.613-6.184-4.938c-0.386,0.096-0.727,0.262-1.026,0.487
		c0.358-0.607,1.14-0.942,1.644-1.079c2.765-0.741,5.098,1.781,6.185,5.287c0.888,2.862,1.42,5.305,3.233,7.056
		c1.655,1.6,4.118,2.226,4.128,3.28C24.338,61.67,24.065,62.107,23.71,62.388"/>
	<path fill="#918F90" d="M24.624,60.956c-0.351-0.895-2.398-1.409-3.994-2.893c-1.915-1.778-2.405-4.195-3.346-7.104
		c-0.288-0.886-0.632-1.7-1.027-2.415c0.857-0.589,2.434-0.803,3.666,0.124c0.465,1.014,0.78,2.161,1.043,3.387
		c0.474,2.21,0.381,4,0.942,3.992c0.201,0.359,0.69,0.857,1.246,0.617c0.27-0.118,0.387-0.514,0.359-1.014
		C25.813,57.296,26.048,59.771,24.624,60.956"/>
	<path fill="#918F90" d="M24.727,56.413c-0.337-0.365-0.75-0.705-1.235-0.998c-0.1-0.717-0.469-1.573-1.093-2.113
		c-0.066-0.295-0.16-0.581-0.282-0.838c0.676,0.113,1.394,0.492,1.915,1.053C24.803,54.352,25.184,55.531,24.727,56.413"/>
	<path fill="#7AC143" d="M27.673,51.571c-0.16,1.362-1.679,1.362-2.745,1.131c0.465-0.574,1.014-1.229,1.289-1.526
		c0.475,0.388,0.629,0.837,0.26,1.213c0.28-0.051,0.479-0.321,0.5-0.542c0.031-0.34-0.257-0.745-0.747-1.078
		c-0.481-0.327-1.191-0.583-1.929-0.677c-0.875-0.102-1.929-0.004-2.089,0.303c0.116-0.022,0.231-0.039,0.346-0.053
		c-0.125,0.096-0.253,0.205-0.384,0.323c-0.133-0.291-0.108-0.75,0.443-1.026C24.153,48.87,27.896,49.675,27.673,51.571"/>
	<path fill="#7AC143" d="M32.107,51.697c-0.762,0.435-2.971,0.96-4.382,0.874c0.184-0.222,0.312-0.514,0.355-0.896
		c0.242-2.174-3.662-3.172-5.438-2.451c0.335-2.339,2.83-4.469,5.157-4.981c-0.354-0.103-0.923,0-1.564,0.266
		c1.877-1.937,4.901-3.312,7.57-4.272c0.464,0.811,1.48,1.558,2.935,1.539c0.22,0.239,0.494,0.451,0.827,0.613
		c-0.679,0.022-1.453,0.041-2.346,0.082c-2.475,0.111-5.967,0.776-5.511,2.811c0.619,2.756,6.663-0.168,7.226,0.704
		c0.239,0.367-2.437,1.855-3.449,2.756C32.395,49.709,31.747,50.818,32.107,51.697"/>
	<path fill="#FFFFFF" d="M42.839,49.891c-0.418,0.724-0.644,1.72-1.152,2.979c-0.551,1.362-1.353,2.476-2.39,2.11
		c-1.056-0.372-0.872-1.659-0.534-2.729c0.337-1.068,1.181-3.122,0.814-3.374c-0.583-0.404-1.747,1.053-3.235,2.163
		c-1.397,1.043-3.399,1.634-3.878,0.731c-0.382-0.721,0.174-1.882,1.308-2.838c1.523-1.282,3.788-2.365,3.417-3.094
		c-0.643-1.256-6.7,1.698-7.199-0.617c-0.292-1.357,1.883-2.319,5.257-2.445c1.997-0.075,4.667-0.028,5.132-0.704
		c-0.623,0.188-1.382,0.255-2.353,0.296c-1.678-0.831-2.112-2.625-1.071-3.641c0.559-0.545,1.178-0.541,1.679-0.298
		c0.455,0.222,0.747,0.645,1.075,1.113c0.269,0.38,0.559,0.681,0.949,0.908c0.511,0.298,1.194,0.468,2.151,0.555
		c2.165,0.195,3.206,0.59,4.021,2.248c0.549,1.118,0.47,2.468-0.212,3.627C45.706,48.43,43.261,49.16,42.839,49.891"/>
	<path fill="#7AC143" d="M47.73,53.04c-0.719-0.745-2.647-2.828-3.996-3.477c0.882-0.541,2.519-1.426,3.159-2.483
		c0.816-0.096,1.42-0.556,1.795-1.188c2.182-0.124,4.228-0.635,5.512-1.462c0.592,2.602-0.927,6.232-0.145,7.176
		c-0.027-0.635,0.076-1.375,0.201-2.167c0.039,0.925,0.112,1.551,0.531,1.97c-0.239-0.74-0.295-1.898-0.398-2.804
		c0.065-0.408,0.127-0.825,0.175-1.248c1.652,1.019,3,4.954-0.171,7.031C51.132,56.525,48.49,53.828,47.73,53.04"/>
	<path fill="#585556" d="M64.88,51.998c-0.197,0.03-0.337,0.03-0.337,0.03c-0.825,4.757-4.251,9.187-9.229,9.294
		c-3.464,0.077-5.065-1.931-5.329-3.426c0.044-0.074,0.101-0.106,0.147-0.121c0.751,2.059,2.732,3.209,4.961,3.165
		c5.239-0.108,8.704-5.635,9.185-9.044c0.384-2.719-0.521-4.825-1.886-5.713c0.419,0.142,0.804,0.312,0.885,0.361
		C64.515,47.474,65.584,49.329,64.88,51.998"/>
	<path fill="#231F20" d="M40.112,43.791c0.703-0.17,2.754-0.421,3.683-0.449C43.068,43.008,40.101,43.363,40.112,43.791
		 M40.956,45.533c0.871-0.533,2.418-1.124,3.457-1.463C43.09,44.088,40.846,45.049,40.956,45.533 M42.022,47.024
		c0.732-0.506,2.11-1.436,2.897-1.772C44.136,45.16,41.868,46.707,42.022,47.024 M28.332,43.65c0.478,0.252,0.878,0.701,1.103,1.15
		C29.629,44.415,28.94,43.52,28.332,43.65 M8.23,54.614c0.843,0.057,1.743,1.799,1.068,2.193
		C10.399,56.484,9.061,54.132,8.23,54.614 M9.825,49.313c0.636,0.254,1.145,1.402,0.669,1.972
		C11.294,51.086,10.683,49.088,9.825,49.313 M13.488,53.293c0.871,0.28,1.293,1.716,0.674,2.276
		C15.263,55.275,14.366,52.972,13.488,53.293 M15.629,62.658c0.314-0.131,1.458,0.187,1.501,0.583
		C17.434,62.762,15.742,62.176,15.629,62.658 M19.813,62.768c0.337-0.143,1.377,0.252,1.462,0.506
		C21.473,62.904,19.955,62.285,19.813,62.768 M49.979,53.939c0.45,0.449,1.912-0.252,2.024-0.786
		C51.497,53.517,50.684,54.025,49.979,53.939 M51.302,49.836c-0.143-0.48-0.282-2.054-0.226-2.643
		C50.684,47.361,50.964,49.807,51.302,49.836 M51.947,51.27c-0.225-0.845-0.393-1.856-0.311-2.643
		C51.357,48.795,51.47,51.24,51.947,51.27 M15.992,55.684c0.853-0.636,0.343-4.426-2.217-3.844c-0.472,0.106-1.16,1.208-1.299,1.809
		c-0.121,0.521,0.344,1.771,0.835,2.063C13.99,56.112,15.124,56.332,15.992,55.684 M13.429,55.495
		c-0.43-0.268-0.82-1.344-0.715-1.818c0.123-0.553,0.697-1.575,1.123-1.654c2.288-0.431,2.739,2.964,1.981,3.513
		C15.027,56.106,14.021,55.86,13.429,55.495 M10.089,48.178c-0.343,0.088-0.895,0.531-1.108,1.481
		c-0.071,1.018,0.45,1.714,0.853,1.989c0.959,0.663,2.269,0.13,2.429-0.071C12.976,50.683,11.853,47.958,10.089,48.178
		 M12.102,51.449c-0.143,0.186-1.316,0.606-2.144,0.022c-0.347-0.246-0.796-0.857-0.735-1.759c0.183-0.835,0.633-1.283,0.939-1.367
		C11.597,48.174,12.698,50.683,12.102,51.449 M50.63,62.599c-3.666,0.078-4.345-0.134-4.396-0.369
		c-0.062-0.291,0.315-0.543,0.306-0.812c-0.022-0.536-2.351-0.562-5.756-0.399c-2.298,0.109-6.344,0.365-7.798,0.483
		c-1.964,0.159-3.726,0.182-3.715,1.002c0.007,0.563,1.184,0.767,1.17,1.076c-0.014,0.311-1.265,0.13-4.357,0.453
		c-3.009,0.314-5.542,0.654-5.538,1.117c0.002,0.27,0.31,0.295,0.252,0.425c-0.06,0.133-1.711,0.041-4.15,0.263
		c-1.858,0.171-4.592,0.542-4.564,1.766c0.028,1.222,3.078,1.419,6.34,1.405c3.317-0.014,7.422-0.633,7.351-1.505
		c-0.036-0.451-0.918-0.377-0.927-0.505c-0.015-0.184,2.572-0.296,5.833-0.575c3.022-0.261,5.848-0.184,5.812-1.138
		c-0.011-0.294-0.297-0.351-0.3-0.485c-0.004-0.183,2.08-0.276,4.201-0.331c2.122-0.058,4.513-0.142,4.533,0.102
		c0.022,0.254-0.704,0.291-0.696,0.686c0.016,0.718,3.582,0.381,5.926,0.125c3.195-0.347,6.924-0.981,6.924-2.038
		C57.079,62.501,53.571,62.535,50.63,62.599 M48.757,19.856c1.042-0.031,0.711-4.184-0.2-4.226
		C47.539,15.582,47.649,19.89,48.757,19.856 M48.194,16.309c0.083-0.273,0.202-0.451,0.36-0.459c0.7-0.035,1.006,3.693,0.206,3.788
		c-0.169,0.021-0.309-0.121-0.418-0.356C48.816,18.246,48.585,16.905,48.194,16.309"/>
	<path fill="#231F20" d="M48.142,16.528c0.29,0.62,0.421,1.706,0.13,2.574C48.04,18.425,47.99,17.264,48.142,16.528"/>
	<path fill="#231F20" d="M57.655,48.289c0.813,0.168,1.461,1.238,1.011,2.305c-0.247,0.588-1.438,1.116-2.128,1.353
		c0.246-1.193-0.023-2.434-0.542-3.392C56.606,48.487,57.342,48.224,57.655,48.289"/>
	<path fill="#231F20" d="M28.568,25.706c-1.165-2.592-0.923-6.22-0.57-7.261c0.144-0.208,0.639-0.459,1.185-0.693
		c-0.701,1.742-1.277,5,0.514,7.358C29.23,25.211,28.852,25.455,28.568,25.706"/>
	<path fill="#231F20" d="M42.338,15.893c0.286,0.037,0.492,0.092,0.582,0.176c0.213,0.204,0.389,0.709,0.479,1.411
		c0.137,1.093,0.013,2.744,0.308,4.082c-0.417,0.139-0.896,0.361-1.305,0.66C42.937,20.587,43.306,17.392,42.338,15.893"/>
	<path fill="#231F20" d="M46.507,3.312c5.648,0.069,7.119,8.814,3.109,11.312c-1.344-3.4-4.017-6.053-8.365-6.756
		C41.659,6.038,43.068,3.27,46.507,3.312"/>
	<path fill="#231F20" d="M24.082,8.64c2.893-4.222,7.989-3.271,8.977-0.096c-2.536,0.901-4.842,2.512-6.533,4.977
		c-0.717,1.045-1.26,2.179-1.625,3.352C23.003,15.703,21.684,12.14,24.082,8.64"/>
	<path fill="#231F20" d="M24.166,53.082c-0.593-0.569-1.395-0.931-2.228-0.931c-0.116-0.175-0.252-0.323-0.406-0.441
		c0.153-0.157,1.025-1.043,1.445-1.404c1.189-0.062,2.309,0.256,3,0.696C25.533,51.403,24.728,52.367,24.166,53.082"/>
	<path fill="#231F20" d="M33.656,27.422c1.019-0.133,2.083-0.301,3.121-0.509C35.874,27.616,34.453,27.609,33.656,27.422"/>
	<path fill="#231F20" d="M36.966,25.301c-1.335,0.246-2.894,0.472-4.351,0.65C32.961,24.77,36.001,24.209,36.966,25.301"/>
	<path fill="#231F20" d="M50.113,65.13c-2.341,0.251-5.643,0.517-5.662,0.115c-0.01-0.229,0.696-0.337,0.687-0.707
		c-0.015-0.521-2.91-0.366-4.619-0.323c-2.213,0.055-4.61,0.196-4.552,0.537c0.045,0.262,0.318,0.29,0.314,0.567
		c-0.007,0.583-2.608,0.583-5.756,0.849c-3.076,0.263-6.086,0.423-6.002,0.81c0.072,0.327,0.956,0.12,0.984,0.534
		c0.037,0.54-3.281,1.171-6.993,1.213c-3.711,0.041-6.273-0.206-6.259-1.149c0.015-1.035,3.238-1.388,4.628-1.533
		c2.251-0.235,4.091-0.092,4.153-0.386c0.05-0.233-0.35-0.299-0.348-0.453c0.003-0.241,2.383-0.601,5.507-0.932
		c3.353-0.355,4.456-0.113,4.414-0.66c-0.042-0.549-1.093-0.688-1.128-1.128c-0.042-0.539,1.677-0.612,3.68-0.738
		c1.706-0.108,4.798-0.362,7.642-0.496c3.123-0.146,5.463-0.083,5.493,0.212c0.028,0.266-0.336,0.489-0.283,0.801
		c0.071,0.427,0.586,0.648,4.575,0.568c2.684-0.052,6.308-0.073,6.314,0.497C56.913,64.19,52.453,64.876,50.113,65.13"/>
	<path fill="#FFFFFF" d="M51.135,41.376c0.125-0.026,0.635-0.173,0.819-0.276C51.702,41.057,50.924,41.057,51.135,41.376"/>
</g>
</svg>
