<?xml version="1.0" encoding="utf-8"?>
<!-- Generator: Adobe Illustrator 16.0.4, SVG Export Plug-In . SVG Version: 6.00 Build 0)  -->
<!DOCTYPE svg PUBLIC "-//W3C//DTD SVG 1.1//EN" "http://www.w3.org/Graphics/SVG/1.1/DTD/svg11.dtd">
<svg version="1.1" id="Layer_1" xmlns="http://www.w3.org/2000/svg" xmlns:xlink="http://www.w3.org/1999/xlink" x="0px" y="0px"
	 width="72px" height="72px" viewBox="0 0 72 72" enable-background="new 0 0 72 72" xml:space="preserve">
<g>
	<path fill="#0B0A0B" d="M59.133,32.798c-0.083,0.533-0.487,1.422-1.977,2.131c-0.637,3.515-6.452,4.685-11.127,1.531
		c-0.215,0-0.578-0.032-0.854-0.074c-0.236,0.393-0.546,0.852-0.943,1.277c1.962,0.708,2.229,2.876-1.831,4.192
		c3.058,1,3.73,4.006,1.936,6.17c0,0,0.104,0.177,0.111,0.3c0.121-0.09,0.445-0.156,0.738-0.14c1.841-4.936,3.763-7.339,6.823-7.153
		c1.094-0.777,2.539-0.588,3.8,0.613c1.217,1.162,1.785,2.829,1.607,4.395c0.274,0.117,0.554,0.341,0.511,0.636
		c-0.02,0.143-0.301,0.431-0.709,0.556c-0.465,1.942-1.296,3.819-2.456,5.164c0.097,0.284,0.089,0.28-0.279,0.362
		c-1.336,1.52-2.64,2.275-4.569,3.138c0.048,0.103,0.208,0.263,0.163,0.367c-0.22,0.498-1.055,1.052-1.608,1.221
		c0.021,0.422-0.059,0.791-0.244,0.864c-0.148,0.06-0.518-0.263-0.657-0.447c-1.312,0.532-3.016,0.421-4.008-0.455
		c-0.415-0.208-0.78-0.676-0.954-1.195c-1.393-0.963-1.145-2.888-0.423-4.021c-0.198-0.255-0.321-0.624-0.301-1.104
		c-1.542,1.051-3.923,1.051-5.278-0.371c-1.661-1.743-3.866-4.535-6.523-5.476c-2.108-0.744-3.8-0.152-5.509,0.029
		c-1.728,0.182-4.121,0.415-5.603-1.81c-1.389,0.765-2.668,1.229-4.056,0.864c-1.978,0.717-4.606-2.85-3.639-5.983
		c-0.31-0.305-0.623-0.833-0.37-1.272c0.206-0.354,0.788-0.211,1.039-0.177c0.553-0.816,1.181-1.487,1.9-2.102
		c-0.277-0.998,0.317-1.461,1.387-0.936c0.791-0.535,2.47-1.177,3.293-1.36c-0.083-1.013,0.19-1.897,0.581-2.673
		c-2.414-0.661-4.804-2.019-7.206-2.923c-2.876-1.009-5.712-1.391-9.204-0.062c2.904-1.444,6.199-1.342,9.192-0.283
		c2.361,0.838,4.928,2.229,7.4,2.932c0.246-0.377,0.526-0.716,0.742-0.918c-0.061-2.441,1.069-5.246,3.629-5.923
		c2.481-0.658,5.478,0.236,7.37,1.233c0.229,0.032,0.695,0.114,0.89,0.192c-1.4-2.403-0.478-5.063,1.414-6.346
		c2.219-1.505,5.366-0.885,6.787,1.499c0.606-0.96,1.387-1.785,2.271-2.314c-1.236-2.896,0.68-6.423,4.153-6.617
		c3.31-0.186,5.426,2.96,4.933,5.508c1.744,0.618,3.519,2.303,4.008,3.533c0.531,0.149,1.158,0.253,1.417,0.542
		c0.602,0.674,0.484,3.578-0.075,4.475c-0.305,0.494-1.059,0.475-1.296,0.436c0.491,1.376,0.92,3.86,0.324,5.565
		c0.864-0.101,2.961-0.288,3.945-0.554c0.227-0.432,0.681-0.924,1.174-1.131c0.142-0.867,0.442-1.58,1.015-2.262
		c-0.516-1.724-1.022-3.619,0.384-3.942c-0.042-0.705-0.771-1.971-0.444-3.113c0.219-0.761,0.875-1.097,1.449-0.986
		c0.437-1.093,1.468-1.225,2.392-0.73c0.749,0.401,1.564,1.442,2.056,2.834c1.155-0.175,1.841,1.445,1.932,2.77
		c0.126,1.82-0.283,3.214-0.331,3.723c-0.045,0.509,0.342,2.312-0.239,4.177c-0.6,1.924-2.732,3-4.452,2.533
		c-0.24,0.064-0.703,0.111-1.027,0.064c-1.109,0.973-3.015,0.254-3.781-1.036C59.721,32.767,59.337,32.793,59.133,32.798z
		 M38.441,28.597c0-0.185,0.033-0.529,0.064-0.632c-0.166-0.02-0.75-0.207-0.945-0.332C37.838,27.89,38.154,28.258,38.441,28.597z
		 M34.706,28.22c0.637,1.004,1.175,2.781,1.346,3.854c0.608-0.062,1.414-0.405,1.898-0.69C36.956,30.088,36.113,29.236,34.706,28.22
		z"/>
	<path fill="#884E00" d="M39.79,20.733c2.457-6.419,12.278-6.706,15.397-1.426C50.395,18.314,45.079,18.581,39.79,20.733z"/>
	<path fill="#884E00" d="M56.66,20.043c-5.705-1.752-13.325-0.836-17.157,1.317c-0.797,1.775-3.132,2.264-3.215,3.868
		c-0.077,1.478,1.402,2.633,3.409,2.507c1.931-0.119,3.592-1.117,4.319-2.959c0.699-1.767,0.859-2.753,1.19-3
		c0.328-0.246,2.962-0.672,5.757-0.402c3.318,0.324,5.302,1.473,5.358,1.894c0.038,0.259-0.325,0.391-0.44,0.335
		c0.142-0.024,0.282-0.228,0.242-0.331c-0.083-0.204-1.431-0.794-2.021-0.915c0.461,0.524,1.09,1.509,1.347,2.219
		c0.482,0.103,1.006-0.007,1.162-0.287C57.034,23.53,57.234,21.309,56.66,20.043z"/>
	<path fill="#F4F2EF" d="M42.134,27.345c-0.782,5.509,3.699,9.637,8.119,10.458c2.919,0.541,5.823-0.625,6.456-2.805
		c-1.797,0.315-2.823-0.685-1.007-2.508c-1.068-0.565-2.113-0.338-3.723,0.297c0.059-0.188,0.491-0.412,0.865-0.574
		c-0.041-0.225,0.601-2.081,0.913-2.91c0.404-1.077,0.669-2.007,1.052-1.834c0.711,0.322,0.426,2.977-0.41,4.33
		c0.133-0.03,0.414,0.013,0.521,0.022c1.332-2.055,0.993-5.413,0.067-7.284c-0.501,0.187-0.493,0.618-0.784,0.863
		c-0.087-0.917-0.552-2.627-1.808-3.513c-0.962-0.217-2.999-0.422-4.452-0.216c-1.54,2.744-1.524,5.888-1.217,7.8
		c-0.74-1.912-1.787-3.792-2.53-4.347c-0.229,0.453-0.52,0.926-0.778,1.204c0.4,0.1,0.921,0.634,1.013,1.051
		c-0.277-0.33-0.896-0.72-1.282-0.805C42.904,26.821,42.455,27.159,42.134,27.345z"/>
	<path fill="#0B0A0B" d="M52.99,29.457c0.469-1.711,0.452-3.548-0.158-3.735c-0.331-0.102-1.259,0.879-1.911,3.209
		c-0.402,1.436-0.778,3.41-0.227,3.595C51.452,32.776,52.513,31.201,52.99,29.457z"/>
	<path fill="#0B0A0B" d="M40.643,23.015c0.735,0.133,0.93,1.132,0.544,1.964c-0.37,0.804-1.296,1.454-2.18,1.107
		C37.401,25.455,38.916,22.701,40.643,23.015z"/>
	<path fill="#F4F2EF" d="M41.104,24.16c-0.833,0.354-1.666,0.808-1.991,1.717C39.862,26.201,41.18,25.338,41.104,24.16z"/>
	<path fill="#F4F2EF" d="M38.747,28.023c1.055,0.172,2.466-0.103,3.145-0.482c-0.053,0.237-0.099,0.61-0.147,0.959
		c-0.41,1.18-0.849,2.291-0.99,2.924c-0.287,1.282-0.109,2.395,0.567,3.133c0.714,0.779,2.163,1.018,3.665,1.07
		c0.103,0.113,0.339,0.32,0.513,0.454c-3.101-0.104-4.919-0.509-5.433-2.488c-0.24-0.917,0.272-2.494-0.138-3.058
		c0.049,0.609-0.174,1.345-0.174,1.57C38.975,30.82,38.609,28.754,38.747,28.023z"/>
	<path fill="#D31245" d="M41.419,30.359c-0.38,1.058-0.568,1.911-0.408,2.764c0.244,1.273,1.2,1.764,1.653,1.824
		c0.222-0.553,0.314-1.773-0.364-2.246c-0.087,0.382-0.315,0.717-0.592,0.936C42.476,32.347,41.93,30.705,41.419,30.359z"/>
	<path fill="#884E00" d="M24.86,22.704c0.79-0.06,2.126,0.063,2.855,0.251c-0.441,0.023-1.175,0.119-1.561,0.198
		C25.834,23.01,25.197,22.791,24.86,22.704z"/>
	<path fill="#F4F2EF" d="M26.421,23.276c0.575-0.118,1.308-0.207,1.726-0.222c0.576,0.125,1.706,0.536,2.137,0.781
		c-0.635-0.061-1.763,0.037-2.538,0.221C27.372,23.789,26.794,23.434,26.421,23.276z"/>
	<path fill="#F4F2EF" d="M27.496,24.146c-1.15,0.32-2.382,1.091-3.102,1.728c-1.703-0.619-2.623,0.455-2.357,1.306
		c-0.51,0.221-1.26,0.659-1.714,1.14c0-0.184,0.003-0.406,0.035-0.606c0.802-1.771,3.509-3.992,5.69-4.359
		C26.381,23.474,27.22,23.947,27.496,24.146z"/>
	<path fill="#884E00" d="M25.785,23.233c-0.325-0.143-1.069-0.413-1.42-0.489c-1.864,0.143-3.511,1.734-3.938,4.407
		C21.608,25.37,23.618,23.79,25.785,23.233z"/>
	<path fill="#F4F2EF" d="M25.97,28.209c0.06-0.063,0.508-0.38,0.714-0.503c0.818,0.64-0.042,1.745-1.651,1.718
		c0.629,0.242,1.466,0.116,2.057-0.454c0.535,0.554,0.431,2.064,1.037,2.928c0.335,0.476,1.166,0.836,1.912,1.239
		c0.865,0.463,0.793,2.302-0.863,2.359c-1.83,0.063-3.022-0.92-3.866-2.277c-0.031,0.34,0.321,0.986,0.932,1.571
		c0.045,0.415-0.247,1.077-0.439,1.572c-0.213,0.556-0.179,1.21,0.247,1.546c-0.771,0.594-2.176,0.236-2.728-0.466
		c-0.574-0.729-0.727-1.763-0.646-2.88c-0.333,0.666-0.251,1.673-0.005,2.298c-1.884,0.149-2.569-1.855-2.312-3.515
		c-0.155,0.248-0.278,0.865-0.278,1.265c-1.028-0.515-1.343-1.55-1.218-2.83c0.159-1.65,1.6-3.586,3.221-4.405
		c0.178,0.349,0.8,1.122,1.379,1.183c-0.858-0.613-1.286-1.35-1.162-1.866c0.16-0.669,1.118-0.882,1.903-0.609
		c-0.123,0.124-0.291,0.317-0.393,0.503c-0.123-0.109-0.111-0.417-0.227-0.495c-0.318,1.04,0.887,2.525,2.713,2.221
		C26.268,28.22,26.069,28.286,25.97,28.209z"/>
	<path fill="#0B0A0B" d="M23.307,29.534c-0.062,0.525-0.226,2.024-0.185,2.466C22.877,30.962,22.896,29.955,23.307,29.534z"/>
	<path fill="#0B0A0B" d="M22.877,29.256c-0.576,0.319-1.369,2.241-1.43,3.156C21.991,30.706,22.896,29.514,22.877,29.256z"/>
	<path fill="#0B0A0B" d="M22.373,29.019c-0.462,0.132-1.224,1.101-1.377,1.995C21.468,30.047,22.331,29.273,22.373,29.019z"/>
	<path fill="#F4F2EF" d="M68.234,26.056c0,0-0.374-0.121-0.518-0.408c-0.138-0.271,0.444-2.657-0.182-4.88
		c-0.776-2.771-3.204-3.952-3.881-2.268c2.049,1.233,2.251,4.376,2.084,7.057c0.119,0.187,0.406,0.168,0.458,0.341
		c0,0-0.376-0.02-0.582-0.268c-0.157-0.186,0.059-2.413-0.399-4.153c-0.508-1.936-1.621-2.915-2.252-2.754
		c-0.568,0.147-0.857,0.702-0.845,1.278c0.02,0.778,0.327,1.341,0.529,2.476c1.354-0.055,3.106,2.007,2.535,4.642
		c0.905,0.602,1.427,1.651,1.142,2.897c-0.081-1.108-0.503-1.986-1.211-2.563c-0.091,0.455-0.459,1.361-0.822,1.578
		c1.142-2.251,0.709-4.352-0.217-5.431c-0.798-0.93-1.771-0.988-2.124-0.553c-0.873,1.079,1.156,4.14,0.507,5.96
		c0.021-0.74-0.141-1.743-0.357-2.228c-0.667,0.813-1.024,2.399-1.043,3.333c-0.125-0.206-0.174-0.775-0.144-1.105
		c-1.021,0.586-1.298,2.329-0.766,3.468c0.529,1.126,2.114,1.768,3.155,1.19c-0.902-0.308-1.687-1.38-1.715-2.089
		c0.379,0.833,1.222,1.907,2.486,1.847c1.045-0.052,1.714-0.37,2.157-1c-0.049,0.572-0.758,1.035-1.237,1.203
		c2.969,0.135,4.601-2.264,4.142-5.726c-0.057-0.423,0.477-2.981,0.276-4.606c-0.191-1.544-0.994-2.653-1.554-2.617
		c0.485,1.56,0.25,3.496,0.057,5.029C67.968,25.799,68.234,25.912,68.234,26.056z"/>
	<path fill="#884E00" d="M29.977,26.58c-1.187,0.092-2.259,0.478-2.968,0.94c0.425,0.344,0.455,0.95,0.205,1.286
		c0.912,1.032,0.443,1.824,1.156,2.914c0.446,0.682,1.857,0.726,2.325,1.603c0.528-0.526,1.758-1.009,2.766-0.925
		c-0.14-0.43-0.431-1.024-0.555-1.27c-0.71,0.123-1.171,0.308-1.434,0.123c-0.262-0.186-0.401-0.523-0.156-0.864
		c0.149-0.202,0.625-0.311,1.096-0.401c-0.046-0.107-0.174-0.379-0.257-0.513c-0.502,0.062-1.236,0.135-1.596-0.082
		c-0.267-0.159-0.52-0.562-0.12-0.892c0.179-0.148,0.594-0.2,0.976-0.269c-0.062-0.094-0.195-0.277-0.277-0.381
		c-0.648,0.124-1.33,0.222-1.546,0.143c-0.309-0.113-0.532-0.459-0.41-0.705c0.156-0.312,0.693-0.429,0.999-0.517
		C30.13,26.729,30.038,26.642,29.977,26.58z"/>
	<path fill="#884E00" d="M30.224,26.563c1.323-0.026,2.833,0.543,3.946,1.306c0.967,1.583,1.63,3.653,1.697,5.371
		c-0.566-0.503-1.477-0.772-2.182-0.832c-0.163-0.463-0.472-1.052-0.609-1.297c0.553-0.07,0.792-0.178,0.838-0.309
		c0.048-0.131,0.009-0.518-0.369-0.703c-0.211-0.102-0.692-0.161-0.901-0.153c-0.063-0.13-0.202-0.387-0.27-0.524
		c0.277-0.045,0.601-0.169,0.592-0.469c-0.015-0.647-0.584-0.822-1.348-0.754c-0.068-0.108-0.243-0.325-0.297-0.404
		c0.37-0.114,0.605-0.199,0.629-0.353c0.103-0.695-0.807-0.895-1.557-0.725C30.354,26.688,30.262,26.61,30.224,26.563z"/>
	<path fill="#F4F2EF" d="M29.33,27.374c0.631-0.354,1.428-0.559,2.074-0.462c0.312,0.146,0.458,0.403,0.355,0.508
		c-0.531,0.208-1.526,0.375-2.066,0.425C29.463,27.834,29.304,27.588,29.33,27.374z"/>
	<path fill="#F4F2EF" d="M30.411,28.753c-0.077,0.269,0.154,0.477,0.24,0.538c0.552,0.124,1.857-0.129,2.138-0.252
		c0.032-0.201-0.134-0.501-0.24-0.569C31.616,28.345,30.989,28.499,30.411,28.753z"/>
	<path fill="#F4F2EF" d="M31.372,30.703c0.167-0.484,1.712-0.604,2.15-0.469c0.131,0.123,0.286,0.369,0.208,0.531
		c-0.555,0.115-1.842,0.347-2.075,0.394C31.434,31.135,31.311,30.88,31.372,30.703z"/>
	<path fill="#F4F2EF" d="M30.779,33.501c0.54-0.527,1.851-0.925,2.774-0.848c0.153,0.491,0.339,1.196,0.37,1.448
		c-2.459-0.011-3.684,2.216-3.793,3.886c-0.403-0.111-1.153-0.392-1.618-0.608c-0.016-0.354,0.046-0.994,0.261-1.534
		C30.695,35.948,31.217,34.404,30.779,33.501z"/>
	<path fill="#F4F2EF" d="M33.78,32.679c1.026,0.113,1.696,0.474,2.105,0.853c0.041,0.277,0.01,0.976-0.03,1.244
		c-0.463-0.404-1.121-0.61-1.645-0.648C34.087,33.594,33.923,33.008,33.78,32.679z"/>
	<path fill="#884E00" d="M34.264,34.375c0.483,0.031,1.191,0.266,1.582,0.563c-0.133,1.47-0.494,2.466-0.955,3.073
		c-0.144,0.093-0.442,0.207-0.524,0.234C34.695,36.379,34.366,34.92,34.264,34.375z"/>
	<path fill="#884E00" d="M33.985,34.365c0.289,0.945,0.421,2.797,0.194,3.944c-1.058,0.288-2.62,0.124-3.812-0.247
		C30.514,35.776,32.187,34.334,33.985,34.365z"/>
	<path fill="#884E00" d="M34.325,38.433c-0.007,0.053-0.031,0.147-0.056,0.209c0.14-0.082,0.327-0.286,0.374-0.324
		C34.581,38.339,34.394,38.417,34.325,38.433z"/>
	<path fill="#884E00" d="M30.378,38.358c0.994,0.301,2.806,0.467,3.764,0.127c-0.017,0.088-0.032,0.197-0.069,0.295
		c-0.822,0.489-2.208,0.635-3.424,0.494C30.559,39.171,30.394,38.705,30.378,38.358z"/>
	<path fill="#F4F2EF" d="M28.513,37.651c0.047,0.432,0.122,0.881,0.345,1.267c0.409,0.127,1.123,0.267,1.557,0.333
		c-0.123-0.214-0.26-0.597-0.275-0.973C29.58,38.13,29.053,37.929,28.513,37.651z"/>
	<path fill="#884E00" d="M26.54,35.035c-0.05,0.262-0.15,0.818-0.279,1.078c0.555,0.426,1.642,0.979,1.974,1.15
		c0.031-0.477,0.194-1.125,0.348-1.426C27.825,35.755,27.205,35.543,26.54,35.035z"/>
	<path fill="#884E00" d="M26.192,36.267c-0.34,0.416-0.298,1.16-0.061,1.379c0.391,0.361,1.746,0.979,2.382,1.165
		c-0.215-0.435-0.267-0.852-0.287-1.293C27.492,37.163,26.562,36.576,26.192,36.267z"/>
	<path fill="#DFC771" d="M21.006,36.64c-0.399-0.37-0.685-0.796-0.802-1.242c-0.878,0.286-1.499,1.42-1.61,2.265
		c-0.305-0.926,0.576-2.208,1.564-2.482c-0.017-0.09-0.047-0.179-0.047-0.233c-0.565-0.228-1.127-0.703-1.402-1.495
		c-2.762,0.69-6.353,2.901-6.574,6.202c-0.146,2.208,1.59,4.302,3.23,4.521c1.28,0.173,2.572-0.416,3.453-0.947
		c-0.885-1.888-0.159-3.898,1.218-5.194C20.186,37.477,20.524,37.01,21.006,36.64z"/>
	<path fill="#005695" d="M22.759,37.147c0.518,1.214,2.311,1.77,3.546,0.979c3.105,1.86,6.281,1.74,7.752,1.027
		c0.928-0.448,1.669-1.836,1.941-2.785c0.518,0.448,1.229,0.966,1.608,1.2c-0.506,1.144-2.318,1.601-2.306,3.261
		c0.992,0.463,2.869-0.102,3.983-1.439c1.557,1.119,4.089,1.562,4.977,0.369c-0.657,0.381-1.827,0.612-2.853,0.284
		c0.884-0.576,1.876-1.394,2.607-2.114c1.755,0.557,1.971,2.108-0.896,3.287c-2.433,1.001-4.268,0.862-6.544,0.748
		c0.129,0.205,1.497,0.303,2.032,0.322c-0.389,0.227-0.698,0.576-0.76,0.801c0.392-0.101,0.548-0.547,1.346-0.773
		c0.688,0.04,2.021-0.109,2.706-0.296c2.927,0.546,3.901,3.76,2.32,5.815c-0.412-0.602-1.241-1.381-2.033-1.816
		c0.433-0.235,0.916-0.851,1.021-1.262c-0.291,0.434-1.036,1.1-1.554,1.153c-0.021-0.177-0.124-0.446-0.227-0.519
		c0.168,1.283-0.274,2.555-1.235,3.499c0.319-0.083,0.78-0.565,0.986-0.874c0.322,0.339,1.009,1.365,1.118,1.938
		c-0.155,0.166-0.359,0.633-0.376,0.884c-1.599,1.021-3.668,1.054-5.105-0.307c-1.538-1.455-2.639-3.303-5.481-5.036
		c0.802,0.083,2.487,0.162,3.229-0.309c-2.317,0.228-5.742,0.154-7.668-2.938c0.092,0.669,0.946,1.714,2.086,2.394
		c-1.451-0.15-2.811,0.131-4.429,0.378c-2.512,0.383-4.291-0.144-5.243-1.725c-0.997-1.654-0.744-4.563,2.797-6.133
		C22.331,37.189,22.552,37.189,22.759,37.147z"/>
	<path fill="#DFC771" d="M18.553,32.869c-3.291,0.718-6.222,3.246-6.959,5.64c-0.948,3.071,1.604,5.944,2.871,5.676
		c-1.801-0.827-2.714-2.836-2.625-4.536c0.164-3.128,3.243-5.554,6.792-6.435C18.6,33.107,18.568,32.977,18.553,32.869z"/>
	<path fill="#BEC0C2" d="M15.062,33.971c-0.352,0.191-0.771,0.486-1.04,0.725C13.819,34.02,14.333,33.711,15.062,33.971z"/>
	<path fill="#BEC0C2" d="M11.802,37.16c-0.126,0.216-0.346,0.655-0.457,0.973C10.812,37.609,10.868,36.867,11.802,37.16z"/>
	<path fill="#DFC771" d="M51.777,41.239c-4.643,0.122-6.041,7.699-7.28,8.509c0.246-0.433,0.42-0.907,0.603-1.34
		c-1.177,0.065-3.382,1.802-2.743,3.528c0.227-0.43,1.1-1.266,1.34-1.266c-2.071,2.042-2.237,4.131-1.026,5.287
		c0.246-0.9,1.31-1.724,3.048-3.432c1.162-1.145,2.015-2.158,2.976-3.889C49.984,46.313,50.243,42.569,51.777,41.239z"/>
	<path fill="#DFC771" d="M55.161,41.432c-0.975-0.737-2.381-0.813-3.287,0.122c-1.321,1.366-1.438,4.29-2.861,7.084
		c-0.894,1.756-2.052,3.083-3.146,4.129c-1.427,1.363-2.836,2.581-2.983,3.33c-0.026,0.142,0.146,0.705,0.68,1.003
		c-0.043-0.596,0.486-1.461,2.09-2.485c-0.2-0.247-0.285-0.705-0.269-0.844c1.681-1.742,3.266-3.613,4.036-5.139
		c1.083-2.137,1.047-3.182,2.122-5.244C52.392,41.756,53.722,41.069,55.161,41.432z"/>
	<path fill="#DFC771" d="M57.153,45.938c0.175-1.859-0.986-4.012-2.227-4.293c-0.956-0.214-2.284,0.308-3.062,1.729
		c-1.007,1.853-1.209,3.587-2.126,5.264c-1.102,2.03-2.62,3.656-4.14,5.086c0.639,0.36,3.529,1.577,4.278,1.959
		c1.517-0.783,3.042-1.607,4.194-2.919c-0.501,0.031-1.16-0.034-1.261-0.16c-0.183-0.224,0.119-1.085,0.656-1.147
		c0.348-0.041,0.93,0.431,1.143,0.667c1.275-1.706,1.979-3.505,2.286-4.823c-0.823,0.126-1.179-0.073-1.278-0.238
		c-0.167-0.267,0.009-1.192,0.502-1.341C56.35,45.651,56.834,45.827,57.153,45.938z"/>
	<path fill="#BEC0C2" d="M56.146,45.972c0.174-0.086,1.586,0.357,1.578,0.596c-0.016,0.436-1.483,0.664-1.789,0.476
		C55.605,46.833,55.9,46.093,56.146,45.972z"/>
	<path fill="#BEC0C2" d="M53.061,52.438c-0.189-0.188,0.223-0.804,0.449-0.786c0.255,0.024,1.174,0.64,1.096,0.834
		C54.538,52.66,53.21,52.591,53.061,52.438z"/>
	<path fill="#0B0A0B" d="M49.94,50.075c0.408-0.088,1.506,0.688,1.376,1.152c-0.099,0.354-1.485,0.449-1.816,0.186
		C49.192,51.166,49.414,50.186,49.94,50.075z"/>
	<path fill="#0B0A0B" d="M53.111,44.683c0.477-0.03,1.819,0.605,1.778,0.954c-0.046,0.396-1.758,0.798-2.162,0.596
		C52.153,45.945,52.616,44.715,53.111,44.683z"/>
	<path fill="#BEC0C2" d="M53.109,44.879c0.554,0.091,1.476,0.504,1.574,0.705c-0.101,0.286-1.502,0.565-1.852,0.485
		C52.521,45.821,52.739,45.023,53.109,44.879z"/>
	<path fill="#BEC0C2" d="M49.663,51.29c-0.287-0.289,0.087-1.025,0.354-1.067c0.287,0.021,1.105,0.688,1.105,0.894
		C50.892,51.425,50.021,51.387,49.663,51.29z"/>
	<path fill="#DFC771" d="M45.538,53.873c0.089,0.182,0.232,0.499,0.285,0.685c0.677,0.472,2.035,0.995,4.008,1.664
		c-0.081-0.144-0.257-0.366-0.317-0.447C48.437,55.351,46.462,54.426,45.538,53.873z"/>
	<path fill="#DFC771" d="M45.722,54.763c-0.624,0.495-2.304,1.8-1.897,2.56c0.238,0.454,2.434,0.892,3.561,0.318
		c-0.093-0.104-0.176-0.341-0.119-0.494c0.098-0.286,0.722-0.448,0.896-0.361c0.14,0.067,0.227,0.277,0.263,0.424
		c0.372-0.086,1.023-0.493,1.27-0.838C47.868,55.886,46.848,55.525,45.722,54.763z"/>
	<path fill="#0B0A0B" d="M44.964,56.794c-0.178-0.286,0.346-0.924,0.855-0.733c0.399,0.152,0.456,1.272,0.299,1.37
		C45.89,57.578,45.271,57.275,44.964,56.794z"/>
	<path fill="#BEC0C2" d="M45.083,56.736c-0.022-0.24,0.378-0.672,0.699-0.556c0.265,0.288,0.295,0.914,0.192,1.079
		C45.807,57.295,45.308,57.03,45.083,56.736z"/>
	<path fill="#BEC0C2" d="M48.125,57.024c0.19,0.095,0.227,0.924,0.042,1.144c-0.331-0.083-0.79-0.733-0.729-0.898
		C47.519,57.054,47.966,56.943,48.125,57.024z"/>
	<path fill="#0B0A0B" d="M29.196,64.03c-0.012,0.308,1.548,0.47,1.545,1.002c-0.002,0.502-2.388,0.843-6.129,0.933
		c-5.137,0.121-9.307-0.859-9.328-1.645c-0.016-0.587,1.945-1.46,4.068-1.889c2.241-0.452,4.71-0.5,4.705-0.687
		c-0.012-0.433-3.412-0.678-3.392-1.124c0.014-0.263,3.649-1.294,12.703-1.485c5.897-0.123,21.028,1.446,21.022,2.988
		c0,0.77-9.876,0.795-17.238,1.06C32.713,63.341,29.204,63.776,29.196,64.03z M54.215,62.092c0.079-0.794-9.829-2.729-21.052-2.729
		c-7.119,0-12.196,1.095-12.202,1.266c-0.007,0.269,3.323,0.4,3.323,1.143c0,0.435-2.205,0.289-5.268,0.974
		c-1.843,0.411-3.504,1.094-3.534,1.492c-0.056,0.742,4.085,1.464,8.76,1.467c1.396,0.001,6.228-0.101,6.305-0.69
		c0.041-0.301-1.669-0.643-1.662-1.021c0.016-0.603,7.159-1.023,11.836-1.104C45.412,62.802,54.171,62.504,54.215,62.092z"/>
	<path fill="#0B0A0B" d="M67.108,30.07c-0.758-0.262-1.364,1.626-0.695,1.858C67.012,32.134,67.717,30.281,67.108,30.07z"/>
	<path fill="#F4F2EF" d="M67.065,30.204c-0.469-0.189-0.984,1.363-0.541,1.547C66.859,31.889,67.39,30.335,67.065,30.204z"/>
	<path fill="#F4F2EF" d="M32.136,24.175c0.213-0.283,3.069,0.691,4.224,2.374C35.035,25.422,33.339,24.467,32.136,24.175z"/>
	<path fill="#F4F2EF" d="M56,32.285c0.382-0.452,1.217-1.003,1.807-1.003c0.924,0,1.489,0.567,1.372,1.336
		c0.255-0.523-0.099-1.505-1.34-1.484C57.041,31.147,56.106,31.982,56,32.285z"/>
	<path fill="#F4F2EF" d="M38.027,31.48c0,0,0.139,0.179,0.169,0.242C38.007,31.664,37.893,31.552,38.027,31.48z"/>
</g>
</svg>
