<?xml version="1.0" encoding="utf-8"?>
<!-- Generator: Adobe Illustrator 16.0.4, SVG Export Plug-In . SVG Version: 6.00 Build 0)  -->
<!DOCTYPE svg PUBLIC "-//W3C//DTD SVG 1.1//EN" "http://www.w3.org/Graphics/SVG/1.1/DTD/svg11.dtd">
<svg version="1.1" id="Layer_1" xmlns="http://www.w3.org/2000/svg" xmlns:xlink="http://www.w3.org/1999/xlink" x="0px" y="0px"
	 width="72px" height="72px" viewBox="0 0 72 72" enable-background="new 0 0 72 72" xml:space="preserve">
<g>
	<path fill="#1A1A1A" d="M67.156,51.592c-0.035-0.466-0.229-0.957-0.562-1.399c-0.192-2.068-2.538-3.863-5.825-3.502
		c-2.804,0.308-5.025,2.148-6.27,4.776c-0.308-0.596-0.875-1.375-1.496-1.692c0.084-0.687,0.076-1.399-0.443-2.131
		c-0.913-1.293-3.426-2.227-5.498-2.149c-0.737,0.025-1.385,0.238-1.911,0.553c-0.359-0.269-0.688-0.592-0.979-0.953
		c0.307-0.379,0.479-0.766,0.503-1.064c0.058-0.723-0.581-1.121-0.885-1.674c0.028-0.481,0.006-1.019-0.075-1.582
		c0.416-0.161,0.9-0.256,1.288-0.258c0.511,1.528,1.515,3.123,4.292,3.157c0.198,0.13,0.42,0.237,0.669,0.31
		c0.816,0.241,1.581,0.176,2.274-0.118c1.804,0.55,3.103-0.791,3.514-2.358c1.631-2.054,1.883-4.54,0.43-5.585
		c-0.006-0.981-0.162-1.905-0.491-2.671c-0.338-0.782-0.933-1.508-1.58-2.031c-0.566-2.565-1.825-3.613-3.015-3.406
		c-0.369,0.064-0.688,0.266-0.948,0.56c-0.753-0.055-1.634,0.727-2.03,2.665c-0.197,0.971-0.161,2.018-0.211,3.023
		c-0.946-0.436-1.471-1.124-2.349-1.521c0.387-0.542,0.656-1.12,0.788-1.689c0.846-0.423,1.562-1.237,1.692-2.567
		c0.135-1.358-0.99-2.599-2.338-2.368c-0.723,0.124-1.245,0.928-1.603,1.575c-0.176-0.016-0.354-0.017-0.53-0.002
		c0.833-1.548,0.936-3.854,0.406-5.253c0.6-0.017,1.135-0.122,1.577-0.346c0.967-1.097,1.202-5.053-1.979-8.233
		c-0.418-0.417-0.872-0.794-1.356-1.134c1.457-2.334,0.317-7.208-4.989-8.263c-5.289-1.053-8.575,2.892-7.271,6.641
		c-1.311,0.521-2.464,1.274-3.434,2.17c-1.961-3.579-7.448-3.141-10.134,0.874c-0.706-0.284-1.442-0.5-2.203-0.627
		c-5.96-0.997-10.492,1.873-9.919,3.114c-0.227,0.189-0.389,0.45-0.454,0.714c-0.342,1.364,0.212,4.374,2.477,7.104
		c-0.504,1.392-0.105,3.211,0.724,4.281c1.492,1.927,4.745,2.474,7.03,3.759c0.276,0.853,1.232,1.462,2.766,1.313
		c0.87,1.043,1.953,1.865,3.435,2.554c0.537,0.25,1.275,0.416,2.079,0.478c0.479,1.557,2.082,3.046,3.192,3.522
		c0.849,0.378,2.699,0.084,5.424,0.62c0.411,0.602,0.745,1.291,0.919,2.133c-0.867,0.492-1.536,1.919-1.062,2.965
		c0.116,0.256,0.312,0.492,0.57,0.709c-0.829,1.507-2.095,3.308-3.762,4.669c-0.661-0.206-1.392-0.156-2.079,0.089
		c-2.489-2.162-8.123-0.581-11.674,2.546c-2.067,1.819-3.133,3.991-3.102,5.855c-0.238,1.346,0.019,2.436,0.675,3.224
		c0.09,0.105,0.188,0.204,0.293,0.301c-0.145,0.742,0.249,1.724,1.294,2.193c0.733,0.345,1.911,0.255,2.605-0.438
		c0.82,0.174,1.693,0.288,2.582,0.345c0.159,0.759,0.974,1.524,2.168,1.468c0.827-0.023,1.859-0.663,2.427-1.664
		c0.617-0.099,1.19-0.228,1.718-0.379c1.228,0.974,2.945,0.023,3.223-1.753c0.699-0.737,0.981-1.604,0.781-2.532
		c0.175-0.646,0.161-1.307-0.02-1.8c2.429,0.002,4.511-1.226,5.669-2.476c1.174-0.561,2.633-1.067,4.186-1.355
		c1.966,0.069,3.663,0.509,4.732,1.084c0.957,0.514,2.491,3.019,4.739,2.247c0.248,0.146,0.572,0.21,0.932,0.143
		c-0.053,0.345-0.035,0.673,0.07,0.965c-0.718,0.953-1.114,2.094-1.027,3.165c-0.208,0.231-0.365,0.527-0.198,0.819
		c0.538,1.009,1.878,1.81,3.731,2.188c0.134,0.687,0.831,1.398,1.595,1.486c0.728,0.086,1.641-0.619,2.039-1.3
		c0.285-0.021,0.573-0.053,0.867-0.09c0.568-0.077,1.139-0.177,1.703-0.301c0.33,0.566,1.051,1.018,1.711,0.952
		c0.806-0.079,1.606-1.266,1.658-2.056c2.058-0.936,3.88-2.339,5.127-4.344c0.484-0.003,0.985-0.169,1.299-0.504
		c0.517-0.55,0.396-1.822-0.013-2.501C67.908,54.642,67.772,52.856,67.156,51.592z M21.091,32.681
		c-0.417-0.357-0.817-0.737-1.174-1.097c0.058-0.178,0.099-0.349,0.124-0.511c0.89-0.686,1.281-1.576,1.454-2.49
		c1.173-0.322,2.269-0.842,2.964-1.438c0.27,0.235,0.626,0.413,1.03,0.519c0.167,0.991,0.507,1.728,0.916,2.353
		c-1.453,0.392-2.585,1.335-2.967,2.273C22.661,32.499,21.902,32.605,21.091,32.681z"/>
	<path fill="#FFDB00" d="M52.271,47.821c0.429,0.596,0.541,1.143,0.495,1.86c-0.021-0.007-0.039-0.014-0.06-0.02
		c-1.601-0.422-3.539,0.657-4.043,0.587c-0.447-0.062-1.909-0.726-2.643-0.977c-0.834-0.282-1.966-0.484-2.078-0.819
		c-0.23-0.684,0.899-2.517,3.118-2.635C48.928,45.719,51.374,46.58,52.271,47.821z"/>
	<path fill="#FFDB00" d="M28.335,58.412c-2.766-0.046-2.956-2.172-2.773-2.558c0.228-0.478,1.544-0.947,2.827-1.767
		c1.175-0.751,2.236-2.082,2.708-2.119c0.475-0.04,0.898,0.61,1.629,1.015c1.354,0.751,1.959,0.702,2.092,1.274
		C35.077,55.373,31.947,58.472,28.335,58.412z"/>
	<path fill="#A41F35" d="M33.726,12.972c-3.698-0.718-7.339,0.544-8.754,2.532c-0.885,1.352-1.443,2.841-1.61,4.288
		c0.803,0.965,2.428,3.998,1.81,5.422c0.069,0.473,0.044,0.831-0.025,1.03c-0.085,0.236-0.25,0.471-0.47,0.696
		c1.109,0.849,3.272,0.666,4.545-1.014c1.03-1.36,1.854-4.102,1.937-7.089c1.995-0.302,6.168,1.659,9.714,2.596
		C41.313,18.511,40.107,14.208,33.726,12.972z"/>
	<path fill="#1A1A1A" d="M26.295,13.283c-1.835,1.79-2.963,4.09-3.194,6.222c-1.502-2.106-3.721-4.255-6.39-5.426
		C19.613,10.064,24.619,10.209,26.295,13.283z"/>
	<path fill="#1A1A1A" d="M31.184,52.931c-0.832,0.075-1.7,1.319-2.726,1.902c-0.938,0.534-2.459,0.691-2.519,2.106
		c0.357-1.236,1.593-1.32,2.651-1.95c1.058-0.63,1.889-1.746,2.59-1.843c0.701-0.094,1.296,0.939,2.698,1.369
		C32.69,53.961,32.044,52.852,31.184,52.931z"/>
	<path fill="#A41F35" d="M66.229,49.783c-0.236-0.231-0.514-0.437-0.826-0.607c-0.134-0.441-0.439-0.963-0.905-1.425
		C65.367,48.271,65.964,49.01,66.229,49.783z"/>
	<path fill="#6A1B32" d="M60.839,47.078c1.068-0.132,2.012-0.014,2.806,0.271c0.648,0.398,1.242,0.93,1.508,1.705
		c-0.317-0.145-0.668-0.255-1.047-0.316c-1.589-0.257-3.142,0.269-4.512,1.426c-0.688-0.931-1.925-1.107-3.21-0.771
		C57.591,48.105,59.12,47.293,60.839,47.078z"/>
	<path fill="#FFDB00" d="M44.607,46.441c-0.546-0.056-1.249-0.225-1.665-0.368c0.141-0.072,0.274-0.15,0.4-0.232
		c0.401,0.167,1.008,0.277,1.4,0.27c0.044,0.042,0.088,0.08,0.132,0.115C44.781,46.296,44.69,46.365,44.607,46.441z"/>
	<path fill="#FFDB00" d="M44.547,45.929c-0.328-0.022-0.663-0.086-1.023-0.214c0.179-0.133,0.334-0.275,0.473-0.421
		C44.146,45.515,44.347,45.734,44.547,45.929z"/>
	<path fill="#A41F35" d="M43.682,40.556c-0.103-0.605-0.27-1.233-0.503-1.849c0.32-0.283,0.593-0.626,0.823-1.004
		c0.096,0.104,0.182,0.208,0.246,0.312c0.266,0.429,0.391,1.307,0.673,2.243C44.543,40.27,44.036,40.384,43.682,40.556z"/>
	<path fill="#FFDB00" d="M42.483,37.271c-0.017-0.272-0.059-0.569-0.141-0.856c0.091-0.491,0.124-1.055,0.034-1.561
		c0.821-0.274,1.545-0.692,2.141-1.193c0.017,0.182,0.025,0.364,0.031,0.549c-1.001,0.079-1.8,0.792-1.865,1.461
		c-0.074,0.757,0.575,1.298,1.093,1.803c-0.195,0.34-0.432,0.659-0.715,0.944C42.898,38.023,42.705,37.638,42.483,37.271z"/>
	<path fill="#FFFFFF" d="M52.587,43.692c1.298-0.718,2.319-2.248,2.938-3.994C55.869,42.19,54.211,44.026,52.587,43.692z"/>
	<path fill="#1A1A1A" d="M55.866,40.881c0.062-0.571,0.005-1.145-0.191-1.64c0.301-0.984,0.478-2.023,0.503-3.015
		C56.93,36.934,57.316,38.646,55.866,40.881z"/>
	<path fill="#FFFFFF" d="M49.974,28.604c-0.903,1.339-0.832,4.03,0.922,5.697c-2.136-3.46-0.858-6.098,0.242-6.292
		c0.832-0.147,2.007,0.742,2.584,2.923c-0.64-0.424-1.294-0.629-1.771-0.48c-1.451,0.435-1.678,3.702,0.727,5.491
		c0.126,0.526,0.484,1.117,1.062,1.299c-0.417-0.324-0.688-0.777-0.828-1.134c0.271,0.177,0.571,0.338,0.899,0.476
		c-3.459-2.337-2.898-5.602-1.826-5.914c0.795-0.231,2.696,1.047,3.399,2.644c1.712,3.886-1.437,11.593-5.286,10.424
		c-1.962-0.595-2.724-4.252,0.618-6.256c-2.807,0.812-3.396,4.373-1.775,5.912c-3.732-0.37-3.631-4.218-4.449-5.542
		c-0.498-0.811-1.544-1.291-1.521-2.093c0.023-0.79,1.448-1.467,2.408-1.135c0.989,0.341,1.518,1.5,1.572,2.507
		c-0.132,0.154-0.28,0.305-0.451,0.447c2.258-1.148,1.589-4.648,1.94-6.464C48.708,29.724,49.293,28.72,49.974,28.604z"/>
	<path fill="#A41F35" d="M47.891,34.341c-0.066,0.934-0.237,1.823-0.777,2.58c0.052-1.004-0.552-2.232-1.639-2.599
		c-0.209-0.069-0.412-0.104-0.613-0.116c-0.017-0.265-0.052-0.518-0.108-0.753c0.23-0.214,0.439-0.44,0.624-0.674
		C46.079,33.155,46.861,33.935,47.891,34.341z"/>
	<path fill="#FFBF9E" d="M43.924,27.813c-0.05,0.088-0.092,0.168-0.132,0.24c-0.527,0.927-1.009,1.895-0.539,2.586
		c0.364,0.557,1.572,0.77,2.686,0.381c-0.825,2.441-4.427,4.962-8.794,3.169c-3.153-1.295-3.753-5.286-5.388-6.928
		c0.471,0.148,0.968,0.397,1.438,0.81c-0.678-1.208-2.357-1.443-3.183-0.972c0.32-0.044,0.812-0.058,1.37,0.061
		c1.598,1.584,2.244,5.604,5.09,7.138c-1.384,0.026-2.656-1.304-3.254-2.228c0.271,0.743,0.685,1.302,1.156,1.706
		c-0.298-0.095-0.632-0.222-0.903-0.336c-1.207-1.883-3.21-3.411-5.147-3.591c-0.565-0.053-1.111-0.012-1.624,0.097
		c-0.381-0.619-0.732-1.622-0.848-2.193c2.148,0.592,4.319,0.057,5.826-3.006c0.029-0.06,0.056-0.122,0.083-0.183
		c0.99,0.397,2.145,1.316,3.03,2.454c-0.898-2.586-0.64-5.391,0.479-7.051c1.563,0.535,3.314,1.191,4.975,1.661
		c0.061,0.127,0.117,0.271,0.172,0.421c-0.973,2.065-1.713,5.857-0.604,6.074c1.09,0.213,1.857-2.093,1.775-3.891
		c0.016,0.004,0.03,0.01,0.044,0.014c0.203,0.045,0.405,0.012,0.6-0.074c-0.102,1.667-0.516,3.084-0.495,3.979
		c-0.293,0.213-0.521,0.46-0.647,0.717C41.756,28.277,42.886,27.788,43.924,27.813z"/>
	<path fill="#FFDB00" d="M34.461,34.67c1.067,0.3,3.032,1.179,3.286,1.179c0.251,0,0.718-0.425,0.944-0.792
		c0.225,0.044,0.446,0.079,0.664,0.102c-0.264,0.482-0.9,1.296-1.315,1.354c-0.437,0.059-1.987-0.872-3.292-1.407
		C34.664,34.958,34.568,34.812,34.461,34.67z"/>
	<path fill="#1A1A1A" d="M33.671,33.77c0.333,0.129,0.723,0.241,1.143,0.331c0.745,0.463,1.562,0.587,2.178,0.441
		c0.489,0.199,0.963,0.351,1.425,0.458c-0.212,0.247-0.476,0.597-0.688,0.623c-0.247,0.032-2.062-0.941-3.52-1.255
		c-0.125-0.134-0.263-0.259-0.411-0.374C33.756,33.917,33.714,33.843,33.671,33.77z"/>
	<path fill="#FFDB00" d="M25.841,31.528c3.97,0.2,8.353,5.408,7.177,9.637c-0.442-0.214-0.878-0.384-1.305-0.521
		c0.792-2.694-1.859-8.029-6.388-8.783C25.511,31.754,25.684,31.644,25.841,31.528z"/>
	<path fill="#A41F35" d="M25.031,32.016c4.452,0.692,7.03,6.085,6.463,8.558c-2.056-0.613-3.861-0.479-4.993-0.532
		c1.179-0.821,0.482-4.781-3.944-7.266C23.547,32.616,24.369,32.347,25.031,32.016z"/>
	<path fill="#FFFFFF" d="M21.639,26.465c0.776-0.891,1.023-1.961,1.104-2.912c0.213-0.324,0.377-0.686,0.377-1.097
		c0-0.42-0.166-0.765-0.438-1.02c0.018-0.06,0.034-0.129,0.047-0.195c1.117,1.214,1.702,2.347,1.986,3.222
		c-0.055,0.575-0.712,2.417-1.896,3.299c-0.414,0.204-0.851,0.386-1.278,0.53C21.631,27.666,21.633,27.037,21.639,26.465z"/>
	<path fill="#9C7E62" d="M21.646,26.042c0.011-0.46,0.042-0.869,0.151-1.183c0.1-0.287,0.423-0.614,0.726-1.001
		C22.388,24.611,22.086,25.457,21.646,26.042z"/>
	<path fill="#9C7E62" d="M18.341,24.318c-1.11,0.479-2.238,1.537-2.721,2.774c-0.997-0.915-2.903-1.194-4.591-0.788
		c-2.196-1.797-3.658-3.609-4.582-5.188c2.871-0.226,4.875-3.869,3.623-5.665c2.116,0.124,4.737,0.711,7.525,2.105
		c2.289,1.145,3.884,2.373,4.99,3.533c-0.012,0.082-0.026,0.166-0.04,0.236c-0.845-0.621-2.439-0.5-3.526,0.773
		C18.464,22.749,18.227,23.621,18.341,24.318z"/>
	<path fill="#9C7E62" d="M10.035,26.635c-0.27-0.059-0.535-0.081-0.79-0.062c-2.237-1.65-3.659-3.608-4.451-5.368
		c0.334,0.141,0.904,0.208,1.352-0.013c0.97,1.712,2.495,3.582,4.617,5.181C10.513,26.446,10.269,26.531,10.035,26.635z"/>
	<path fill="#FFFFFF" d="M4.08,18.953c0.318,0.081,0.756,0.091,1.05-0.068c0.202,0.661,0.515,1.398,0.94,2.169
		c-0.297,0.138-0.918,0.14-1.375-0.076C4.387,20.252,4.186,19.564,4.08,18.953z"/>
	<path fill="#FFFFFF" d="M5.979,14.716c0.365-0.194,0.79-0.381,1.263-0.55c-0.359,0.17-0.692,0.358-0.98,0.554
		C6.184,14.71,6.081,14.71,5.979,14.716z"/>
	<path fill="#FFFFFF" d="M5.387,18.801c1.665-0.26,2.59-2.31,2.122-3.263c0.684-0.099,1.492-0.14,2.397-0.097
		c0.979,1.521-0.482,5.119-3.557,5.501C5.905,20.158,5.59,19.431,5.387,18.801z"/>
	<path fill="#FFFFFF" d="M9.853,15.179c-0.903-0.029-1.711,0.026-2.396,0.135c0.02-0.236-0.217-0.568-0.754-0.643
		c0.619-0.364,1.405-0.696,2.259-0.92C9.451,14.026,9.893,14.648,9.853,15.179z"/>
	<path fill="#9C7E62" d="M6.508,14.789c0.426,0.054,0.785,0.198,0.77,0.554c-0.884,0.159-1.546,0.407-1.924,0.677
		C5.417,15.653,5.849,15.207,6.508,14.789z"/>
	<path fill="#9C7E62" d="M5.217,16.461c0.244-0.366,0.996-0.708,2.112-0.895c0.388,1.035-0.553,2.789-1.993,3.064
		C5.011,17.545,5.018,16.762,5.217,16.461z"/>
	<path fill="#FFFFFF" d="M42.389,27.782c-0.159,0.07-0.313,0.15-0.455,0.237c0.029-0.644,0.259-1.744,0.397-2.97
		c0.252,0.129,0.687-0.437,0.664-1.518c0.068-0.088,0.135-0.179,0.197-0.277C43.29,24.163,43.347,26.224,42.389,27.782z"/>
	<path fill="#1A1A1A" d="M41.728,24.042c-0.45-0.098-0.779-1.504-1.167-2.327c1.001,0.27,1.961,0.464,2.818,0.512
		C43.02,23.309,42.233,24.152,41.728,24.042z"/>
	<path fill="#FFFFFF" d="M40.774,23.093c-0.335,1.36,0.06,2.69,0.536,1.964c-0.224,1.972-0.908,2.954-1.46,2.862
		c-0.814-0.137-0.05-3.817,0.662-5.595C40.599,22.578,40.68,22.844,40.774,23.093z"/>
	<path fill="#6A1B32" d="M31.383,19.033c0.253-0.006,0.545,0.023,0.866,0.077c0.019,1.944-0.205,4.096-0.876,5.458
		c-1.168,2.375-2.654,3.122-4.226,3.111c0.842-0.189,1.704-0.686,2.394-1.601C30.583,24.699,31.438,21.36,31.383,19.033z"/>
	<path fill="#1A1A1A" d="M32.535,19.165c0.705,0.145,1.532,0.397,2.431,0.7c-1.128,1.54-1.352,4.433-0.621,6.354
		c-0.378-0.624-1.439-1.48-2.475-1.925C32.397,22.907,32.56,20.931,32.535,19.165z"/>
	<path fill="#9C7E62" d="M25.106,24.862c-0.049-0.217-0.116-0.45-0.205-0.7c0.047-0.071,0.072-0.272,0.107-0.354
		C25.089,24.17,25.133,24.603,25.106,24.862z"/>
	<path fill="#9C7E62" d="M24.908,26.122c-0.133,0.387-0.706,0.864-1.445,1.297c0.632-0.635,1.171-1.57,1.339-2.664
		C24.984,25.44,24.974,25.931,24.908,26.122z"/>
	<path fill="#FFBF9E" d="M43.322,27.515c-0.22,0.033-0.437,0.086-0.642,0.155c0.907-1.506,0.946-3.593,0.648-4.647
		c0.136-0.252,0.25-0.521,0.328-0.785c0.016,0,0.035,0.002,0.056,0.002C44.156,24.177,44.014,26.041,43.322,27.515z"/>
	<path fill="#A41F35" d="M45.355,21.665c-1.051,0.424-2.557,0.254-4.214-0.162c0.61-3.171-0.739-7.646-7.255-8.91
		c-2.71-0.524-5.596-0.039-7.491,1.15c1.536-1.559,3.573-2.733,5.951-3.105c3.381-0.531,7.879,0.321,10.997,3.401
		C46.402,17.065,45.93,20.844,45.355,21.665z"/>
	<path fill="#1A1A1A" d="M37.155,4.569c4.973,0.99,6.056,5.494,4.845,7.801c-2.925-1.962-6.791-2.572-9.747-2.102
		c-0.706,0.113-1.377,0.291-2.014,0.523C29,6.984,32.554,3.653,37.155,4.569z"/>
	<path fill="#9C7E62" d="M14.084,13.647c3.711,0.622,6.822,3.324,8.783,6.004c0.044,0.468-0.03,0.942-0.103,1.225
		c-1.136-1.186-2.762-2.434-5.073-3.6c-2.858-1.441-5.543-2.007-7.704-2.094c0.078-0.391-0.05-1.052-0.83-1.483
		c0.283-0.069,0.574-0.125,0.867-0.167C11.247,13.394,12.617,13.402,14.084,13.647z"/>
	<path fill="#9C7E62" d="M5.67,14.893c0.148-0.033,0.297-0.056,0.414-0.044c-0.569,0.425-0.925,0.887-0.917,1.308
		c-0.266-0.033-0.509,0.025-0.715,0.143C4.362,15.948,4.811,15.408,5.67,14.893z"/>
	<path fill="#9C7E62" d="M4.074,17.178c0.132-0.526,0.67-0.781,0.965-0.827c-0.264,0.469-0.254,1.315,0.043,2.37
		c-0.24,0.117-0.685,0.138-1.03,0.049C3.958,18.134,3.972,17.588,4.074,17.178z"/>
	<path fill="#FFFFFF" d="M7.251,28.35c-0.554-0.714-0.993-2.499-0.717-3.812c0.649,0.737,1.428,1.447,2.35,2.093
		c-0.336,0.08-0.648,0.228-0.917,0.457c0.52-0.209,1.132-0.333,1.78-0.311c-0.401,0.208-0.766,0.466-1.068,0.776
		c2.332-1.533,6.088-1.413,7.495,0.325c-0.088-0.224-0.218-0.427-0.379-0.61c0.434-0.853,1.466-2.053,2.601-2.711
		c0.075,0.247,0.201,0.461,0.381,0.623c-0.392-1.185-0.063-2.211,0.501-2.864c1.284-1.483,3.611-1.28,3.568,0.137
		c-0.027,0.902-1.058,1.676-1.297,2.348c-0.577,1.623,0.203,3.968-1.473,5.867c0.014-1.803-1.981-2.504-3.972-1.571
		c-1.577,0.739-2.246,1.903-2.131,2.867C11.596,30.552,8.396,29.828,7.251,28.35z"/>
	<path fill="#FFFFFF" d="M16.286,29.402c2.304-1.07,4.018,0.093,3.419,1.969c-0.252-0.26-0.476-0.5-0.662-0.705
		c0.169,0.017,0.337,0.047,0.505,0.095c-1.573-0.973-4.065,0.583-3.603,2.291c0.006-0.18,0.038-0.354,0.09-0.524
		c0.178,0.285,0.364,0.555,0.563,0.812C13.851,33.56,13.265,30.805,16.286,29.402z"/>
	<path fill="#1A1A1A" d="M16.125,32.288c0.402-0.911,1.426-1.584,2.532-1.63c0.807,1.024,2.286,2.381,3.216,2.646
		c-0.17-0.123-0.34-0.256-0.508-0.393c0.291-0.02,0.571-0.045,0.839-0.081c1.67,0.947,2.799,2.061,3.504,3.126
		c-1.434,0.44-4.021,0.574-5.35-0.044C18.621,35.104,16.996,33.552,16.125,32.288z"/>
	<path fill="#6A1B32" d="M22.682,36.655c1.075,0.041,2.228-0.103,3.167-0.48c1.267,2.066,0.951,3.874-0.054,3.781
		c-0.061-0.015-0.119-0.033-0.17-0.053C24.672,39.502,23.18,37.905,22.682,36.655z"/>
	<path fill="#A41F35" d="M31.06,45.734c-0.338-0.697,0.228-2.151,0.841-2.597c0.089,0.535,0.116,1.13,0.058,1.802
		c0.453-1.543,0.202-2.978-0.643-4.083c0.781,0.172,1.628,0.412,2.541,0.756c-0.203-0.119-0.404-0.229-0.605-0.332
		c1.455-4.321-3.118-9.733-7.217-9.9c0.179-0.145,0.34-0.293,0.477-0.446c-0.989,0.603-1.858,0.987-2.695,1.246
		c0.666-1.025,2.391-2.177,4.464-1.979c2.801,0.27,5.587,3.371,6.314,6.557c-0.016-0.703-0.195-1.43-0.496-2.136
		c0.387,0.508,0.877,1.323,1.116,2.151c0.012-0.404-0.097-0.888-0.312-1.362c0.89,0.439,2.43,1.336,3.147,1.322
		c0.5-0.011,1.293-0.912,1.569-1.548c0.916,0.069,1.766-0.034,2.532-0.259c0.04,0.318,0.057,0.709,0.039,1.075
		c-0.132-0.284-0.308-0.542-0.546-0.73c0.248,0.37,0.458,0.963,0.565,1.578c-0.389-0.563-0.852-1.069-1.391-1.477
		c1.711,1.717,3.073,5.682,2.723,8.218c0.098-0.251,0.168-0.549,0.212-0.88c0.263,0.47,0.713,0.861,0.658,1.267
		c-0.06,0.414-0.76,1.488-1.952,2.023c0.192-0.256,0.345-0.53,0.45-0.838C40.824,48.68,32.167,48.028,31.06,45.734z"/>
	<path fill="#FFDB00" d="M37.238,54.684c0.461-1.783,0.2-4.96-0.637-6.651c1.454,0.021,2.929-0.2,4.104-0.719
		c0.728,1.531,1.321,4.882,0.553,7.117C39.883,54.25,38.507,54.366,37.238,54.684z"/>
	<path fill="#FFDB00" d="M34.206,47.773c-0.862,0.829-2.691,1.566-4.032,1.358c0.131-0.176,0.259-0.357,0.383-0.542
		c1.118,0.092,2.357-0.295,3.158-0.931C33.875,47.7,34.038,47.737,34.206,47.773z"/>
	<path fill="#FFDB00" d="M33.454,47.587c-0.71,0.517-1.821,0.838-2.78,0.824c0.331-0.515,0.634-1.074,0.895-1.673
		C32.054,47.084,32.705,47.373,33.454,47.587z"/>
	<path fill="#A41F35" d="M14.125,54.21c3.481-3.064,8.435-4.549,11.148-2.774c-0.148,0.064-0.292,0.139-0.433,0.219
		c-1.409-0.647-3.463-0.103-4.413,1.459c-0.186,0.309-0.324,0.614-0.413,0.921c-1.072,0.604-2.128,1.648-2.521,2.3
		c-1.544,0.174-2.796,0.528-3.157,0.967c-0.139,0.167-0.115,0.418-0.005,0.594c-0.426,0.238-0.658,0.498-0.612,0.756
		c0.065,0.378,0.962,0.434,2.079,0.401c0.324,1.199,0.165,3.104-0.671,4.568c-1.74-0.439-3.112-1.166-3.65-2.172
		C10.513,59.646,11.324,56.678,14.125,54.21z"/>
	<path fill="#1A1A1A" d="M23.278,56.208c-0.601,0.062-1.392-0.451-1.486-0.956c-0.152-0.825,0.711-2.104,1.878-2.611
		c-0.235,0.288-0.43,0.608-0.569,0.953C22.733,54.498,22.835,55.437,23.278,56.208z"/>
	<path fill="#A41F35" d="M23.933,52.352c-1.346,0.161-2.584,1.676-2.404,2.9c0.124,0.906,1.229,1.322,1.915,1.216
		c0.08,0.112,0.167,0.219,0.261,0.321c-0.829-0.293-1.846-0.463-2.904-0.534c-0.717-0.784-0.688-1.88-0.015-2.99
		c0.881-1.45,2.828-1.809,3.771-1.435C24.333,51.984,24.124,52.158,23.933,52.352z"/>
	<path fill="#A41F35" d="M27.914,61.21c-0.359,0.614-0.97,1.132-1.752,1.549c0.289-1.208-0.125-2.491-1.149-3.571
		c0.53-0.052,0.902-0.159,1.008-0.359c0.052-0.099,0.026-0.22-0.079-0.354c0.089-0.145,0.154-0.331,0.155-0.513
		c0.457,0.396,1.139,0.693,2.123,0.741C28.465,59.334,28.338,60.508,27.914,61.21z"/>
	<path fill="#FFFFFF" d="M19.666,57.266c4.872,0.151,6.208,1.262,6.134,1.423c-0.217,0.461-4.238-0.006-6.351-0.097
		c-2.336-0.103-5.343,0.462-5.444-0.025C13.895,58.024,17.039,57.186,19.666,57.266z"/>
	<path fill="#6A1B32" d="M19.42,58.937c1.526,0.084,3.866,0.348,5.319,0.271c0.68,0.816,1.594,2.168,1.161,3.684
		c-2.714,1.315-7.209,1.557-10.509,0.794c0.63-1.074,1.117-3.034,0.646-4.641C17.189,59.002,18.524,58.884,19.42,58.937z"/>
	<path fill="#FFFFFF" d="M25.855,57.906c0.028,0.127,0.013,0.285-0.051,0.423c-0.649-0.577-2.623-1.298-6.18-1.381
		c-2.016-0.048-3.991,0.325-5.07,0.832c-0.065-0.099-0.084-0.229,0.018-0.35c0.591-0.709,6.27-1.374,9.531-0.271
		C24.581,57.533,25.176,57.801,25.855,57.906z"/>
	<path fill="#6A1B32" d="M20.43,56.235c-0.901-0.039-1.817-0.012-2.66,0.068c0.354-0.518,1.244-1.386,2.177-1.976
		C19.823,55.007,19.965,55.659,20.43,56.235z"/>
	<path fill="#C1B8AF" d="M13.121,65.135c-0.683-0.311-1.116-1.019-1.141-1.642c0.827,0.662,1.98,1.138,3.292,1.448
		C14.718,65.312,13.716,65.405,13.121,65.135z"/>
	<path fill="#C1B8AF" d="M20.318,66.493c-0.823,0.035-1.595-0.493-1.837-1.112c0.431,0.022,0.864,0.032,1.295,0.028
		c0.954-0.008,1.844-0.074,2.663-0.187C21.919,65.87,21.007,66.464,20.318,66.493z"/>
	<path fill="#C1B8AF" d="M24.852,64.684c1.086-0.349,1.96-0.811,2.586-1.357C27.122,64.362,25.775,65.312,24.852,64.684z"/>
	<path fill="#C1B8AF" d="M19.761,65.036c-3.355,0.03-6.741-0.784-8.165-2.457c-0.238-0.269-0.435-0.67-0.528-1.281
		c0.042,0.097,0.085,0.194,0.136,0.286c2.129,4.044,14.454,4.051,16.943-0.202c0.07-0.115,0.131-0.233,0.186-0.356
		C28.301,63.414,24.68,64.994,19.761,65.036z"/>
	<path fill="#FFDB00" d="M35.12,54.188c-0.162-0.703-1.028-0.779-2.211-1.436c-0.804-0.445-1.263-1.086-1.787-1.061
		c-0.705,0.036-1.655,1.387-2.948,2.212c-1.412,0.901-2.575,1.345-2.827,1.815c-0.164,0.307-0.146,1.185,0.432,1.913
		c-1.583-0.323-3.111-2.166-2.398-3.929c0.648-1.601,2.788-2.432,3.969-2.25c-0.664,0.51-1.386,0.953-2.168,1.276
		c1.263-0.195,3.241-1.368,4.832-3.391c1.174,0.219,3.113-0.112,4.46-1.515c0.6,0.108,1.231,0.18,1.872,0.201
		c0.592,1.68,1.059,4.467,0.613,6.731c-0.845,0.231-1.636,0.553-2.346,0.927C35.021,55.109,35.212,54.571,35.12,54.188z"/>
	<path fill="#FFDB00" d="M43.246,55.665c-0.929-0.5-2.287-0.855-3.577-0.979c1.073-0.104,2.164-0.088,3.207,0.102
		c-0.457-0.144-0.916-0.248-1.376-0.322c0.694-2.102,0.586-5.146-0.584-7.251c0.464-0.224,0.873-0.5,1.209-0.83
		c0.2-0.053,0.391-0.119,0.568-0.195c0.515,0.239,1.242,0.388,1.722,0.434c-0.597,0.614-0.863,1.368-0.683,1.968
		c0.152,0.492,1.439,0.698,2.201,0.96c0.86,0.267,2.101,0.927,2.766,0.999c0.489,0.051,2.685-0.979,3.955-0.63
		c0.482,0.133,1.239,1.235,1.658,1.966c-0.06,0.14-0.115,0.284-0.17,0.431c-0.091,0.234-0.17,0.466-0.244,0.697
		c-0.312,0.387-0.577,0.785-0.795,1.188c-3.338-0.262-5.748,1.569-5.772,3.19c-0.002,0.221,0.082,0.429,0.23,0.597
		C45.744,58.392,44.485,56.342,43.246,55.665z"/>
	<path fill="#FFFFFF" d="M53.708,53.653c-0.747,2.765-0.468,4.953-0.773,5.01C52.377,58.764,52.119,56.006,53.708,53.653z"/>
	<path fill="#FFFFFF" d="M52.566,58.754c-0.084,0.242-0.229,0.613-0.445,0.559c-0.459-0.114-0.622-2.142,0.315-3.486
		C52.053,57.195,52.155,58.366,52.566,58.754z"/>
	<path fill="#FFDB00" d="M47.569,57.384c0.018-1.354,2.402-3.112,5.409-2.947c-0.056,0.11-0.108,0.219-0.156,0.329
		c-0.191,0.002-0.381,0.021-0.567,0.056c-1.801-0.282-3.994,1.143-4.021,2.618c0.251-0.558,0.592-1.001,0.979-1.354
		c0.158,0.142,0.281,0.284,0.39,0.444c-0.405,0.515-0.691,1.085-0.813,1.629C48.177,58.221,47.562,57.982,47.569,57.384z"/>
	<path fill="#1A1A1A" d="M49.753,56.35c-0.118-0.151-0.255-0.284-0.378-0.398c0.676-0.551,1.466-0.833,2.17-0.918
		C50.854,55.314,50.233,55.791,49.753,56.35z"/>
	<path fill="#A41F35" d="M52.746,54.941c-0.063,0.153-0.123,0.303-0.175,0.45c-0.49,0.48-0.784,1.049-0.938,1.609
		c-0.099,0.131-0.19,0.263-0.275,0.396c-0.919,0.341-1.727,0.939-2.342,1.673C48.719,57.664,50.801,55.039,52.746,54.941z"/>
	<path fill="#A41F35" d="M51.186,57.7c-0.222,0.423-0.369,0.857-0.403,1.258c0.18-0.453,0.483-1.012,0.744-1.433
		c-0.133,1.011,0.16,1.88,0.541,1.964c0.418,0.092,0.605-0.349,0.685-0.617c0.065,0.021,0.137,0.026,0.209,0.016
		c0.727-0.124,0.145-2.869,1.492-6.37c0.416-1.08,0.976-2.023,1.648-2.812c1.147-0.325,2.552-0.377,3.34,0.593
		c-0.605,0.539-1.172,1.202-1.687,1.979c-1.877,2.837-2.733,8.829-5.825,10.458c-1.501,0.795-2.894,0.63-3.925,0.119
		C47.931,60.838,49.249,58.893,51.186,57.7z"/>
	<path fill="#C1B8AF" d="M47.831,62.774c0.012,0.062,0.022,0.126,0.037,0.188c0.907,0.613,2.628,0.869,4.251,0
		c3.174-1.718,3.919-7.406,5.885-10.502c1.686-2.653,3.924-3.84,6.096-3.495c1.262,0.2,2.365,1.22,2.736,2.074
		c-0.476-0.688-1.124-1.167-1.89-1.405c-2.466-0.774-5.122,0.767-6.644,3.598c-2.207,4.117-2.935,8.374-6.108,10.064
		c-1.424,0.758-3.012,0.767-4.06,0.319c-0.11-0.121-0.21-0.244-0.299-0.376C47.739,63.093,47.75,62.913,47.831,62.774z"/>
	<path fill="#C1B8AF" d="M60.824,63.732c-0.013-0.022-0.029-0.044-0.044-0.064c-0.666-0.873-3.175-0.151-3.403,0.768
		c-0.04,0.156-0.035,0.318,0.004,0.478c-0.516,0.113-1.033,0.204-1.543,0.27c-0.233,0.027-0.467,0.055-0.7,0.074
		c0.041-0.168,0.035-0.322-0.029-0.447c-0.485-0.997-3.244-0.846-3.695,0c-0.053,0.096-0.085,0.202-0.1,0.312
		c-1.135-0.209-2.117-0.595-2.819-1.17c0.986,0.35,2.441,0.282,3.817-0.398c3.203-1.578,4.401-6.748,6.269-10.183
		c1.536-2.82,3.993-4.231,6.347-3.479c1.658,0.528,3.042,2.839,2.089,6.595c-0.07-0.048-0.145-0.082-0.22-0.097
		c-1.076-0.219-2.487,1.979-2.059,2.819c0.151,0.296,0.461,0.486,0.818,0.572C64.367,61.538,62.687,62.837,60.824,63.732z"/>
	<path fill="#1A1A1A" d="M48.829,49.342c0.746,0.094,1.54-1.02,3.713-0.428c-2.025-0.98-3.11,0.268-3.658,0.2
		c-0.551-0.066-3.593-0.992-4.464-1.513C45.077,48.402,48.294,49.276,48.829,49.342z"/>
	
		<ellipse transform="matrix(-0.2709 0.9626 -0.9626 -0.2709 54.786 2.7286)" fill="#1A1A1A" cx="26.36" cy="22.113" rx="1.762" ry="0.994"/>
	<path fill="#1A1A1A" d="M27.062,22.313c-0.128,0.454-0.337,0.834-0.565,1.067c-0.043-0.312-0.012-0.707,0.104-1.119
		c0.127-0.45,0.33-0.83,0.551-1.075C27.205,21.494,27.18,21.895,27.062,22.313z"/>
	<path fill="#6A1B32" d="M25.647,21.916c0.234-0.829,0.739-1.412,1.129-1.303c0.151,0.043,0.261,0.182,0.328,0.383
		c-0.296,0.252-0.562,0.68-0.708,1.202c-0.136,0.483-0.144,0.949-0.048,1.311c-0.142,0.103-0.285,0.145-0.417,0.107
		C25.542,23.506,25.414,22.745,25.647,21.916z"/>
	<path fill="#1A1A1A" d="M45.816,26.203c1.116-0.191,2,0.96,1.89,2.078c-0.285,2.877-3.683,3.018-4.241,2.169
		c-0.364-0.552,0.085-1.442,0.541-2.245C44.316,27.661,44.941,26.353,45.816,26.203z"/>
	<path fill="#C1B8AF" d="M51.66,64.945c-0.291,0.546,0.429,1.666,1.259,1.767c0.779,0.094,2.17-1.262,1.929-1.809
		C54.56,64.249,52.043,64.23,51.66,64.945z"/>
	<path fill="#C1B8AF" d="M57.635,64.516c-0.15,0.595,0.761,1.536,1.549,1.463c0.737-0.07,1.717-1.682,1.378-2.162
		C60.152,63.235,57.829,63.74,57.635,64.516z"/>
	<path fill="#C1B8AF" d="M64.986,59.1c0.279,0.546,1.585,0.654,2.128,0.079c0.509-0.538,0.184-2.396-0.387-2.534
		C66.036,56.479,64.623,58.388,64.986,59.1z"/>
	<path fill="#1A1A1A" d="M59.986,56.422c-1.176-0.238-2.57,1.815-2.058,2.82c0.405,0.792,1.924,0.834,2.591,0.121
		C61.216,58.619,60.753,56.561,59.986,56.422z"/>
	<path fill="#1A1A1A" d="M64.426,52.243c-1.174-0.237-2.57,1.817-2.056,2.82c0.404,0.793,1.923,0.835,2.591,0.122
		C65.658,54.443,65.194,52.384,64.426,52.243z"/>
	<path fill="#C1B8AF" d="M58.178,59.132c0.277,0.546,1.585,0.653,2.127,0.081c0.508-0.539,0.185-2.398-0.386-2.536
		C59.124,56.486,57.732,58.263,58.178,59.132z"/>
	<path fill="#C1B8AF" d="M62.619,54.953c0.277,0.547,1.584,0.654,2.127,0.08c0.509-0.537,0.185-2.396-0.387-2.534
		C63.566,52.308,62.174,54.086,62.619,54.953z"/>
	<path fill="#FFFFFF" d="M23.105,19.988c-0.005,0.375-0.085,0.841-0.161,1.083c0.945,1.03,1.524,2.006,1.859,2.837
		c0.032-0.137,0.06-0.309,0.077-0.506C24.572,22.423,23.963,21.219,23.105,19.988z"/>
</g>
</svg>
