<?xml version="1.0" encoding="utf-8"?>
<!-- Generator: Adobe Illustrator 16.0.4, SVG Export Plug-In . SVG Version: 6.00 Build 0)  -->
<!DOCTYPE svg PUBLIC "-//W3C//DTD SVG 1.1//EN" "http://www.w3.org/Graphics/SVG/1.1/DTD/svg11.dtd">
<svg version="1.1" id="Layer_1" xmlns="http://www.w3.org/2000/svg" xmlns:xlink="http://www.w3.org/1999/xlink" x="0px" y="0px"
	 width="72px" height="72px" viewBox="0 0 72 72" enable-background="new 0 0 72 72" xml:space="preserve">
<g>
	<path fill="#1A1A1A" d="M55.801,61.182c0.271-1.649-0.826-3.359-2.581-3.871c-0.236-0.676-1.689-1.055-3.468-0.97
		c-1.139-0.537-3.423-0.348-5.381,0.509c-0.239,0.106-0.463,0.216-0.676,0.328c-0.101-0.248-0.386-0.499-0.704-0.631
		c0.115-0.309,0.228-0.594,0.318-0.795c2.034,0.493,2.79-1.711,2.386-3.387c0.057-0.121,0.109-0.237,0.155-0.341
		c0.298-0.07,0.564-0.199,0.772-0.406c0.249-0.249,2.057-3.603,1.683-7.196c0.042-0.339-0.142-0.702-0.439-0.918
		c0.002-0.03,0.003-0.062,0.004-0.096c1.125,0.089,2.237-0.065,3.222-0.498c3.6-1.584,4.08-6.5,1.983-7.806
		c-0.36-0.224-0.749-0.328-1.137-0.344c-0.34-0.811-1.639-1.812-3.183-1.377c0.82-1.423,1.198-3.079,0.232-4.315
		c-1.104-1.412-3.866-1.07-5.175-1.631c-0.526-0.776-1.254-1.468-1.922-1.651c0.979-2.973,0.539-5.914-0.044-7.405
		c0.83,0.543,2.034,0.854,3.098,0.783c3.274-0.22,5.73-3.354,5.484-6.997c-0.244-3.644-3.098-6.42-6.371-6.2
		c-3.274,0.221-5.731,3.353-5.486,6.997c0.032,0.469,0.106,0.925,0.221,1.361c-1.13-1.097-5.025-2.495-7.938-1.811
		c2.036-2.226,2.499-5.359,0.931-7.612c-1.863-2.681-5.895-3.101-9.004-0.937c-3.109,2.163-4.118,6.088-2.254,8.768
		c1.09,1.567,2.923,2.362,4.878,2.318c-3.404,3.438-3.192,7.877-2.583,9.566c-0.535,0.96-0.482,2.22,0.33,3.449
		c-2.47,2.672-0.581,6.857,0.168,8.61c-0.151,0.945-0.303,1.809-0.172,2.209c0.231,0.701,1.904,1.054,2.755,1.041
		c-0.153,0.895-0.181,1.77,0.15,2.455c-2.058,2.078-0.892,4.53,1.041,5.834c0.662,2.331,2.744,3.233,4.346,3.043
		c0.051,0.1,0.113,0.222,0.182,0.351c-0.248,0.142-0.412,0.353-0.506,0.567c-1.548-0.675-3.585-0.987-4.671-0.499
		c-2.111-0.355-3.709,0.004-4.178,0.791c-2.295,0.443-3.707,2.893-3.123,4.605c-0.316,0.237-0.249,0.957,0.141,1.316
		c0.157,0.146,0.35,0.306,0.579,0.476c-1.677,0.632-2.596,2.02-2.611,2.698c-0.005,0.231,0.038,0.476,0.131,0.729
		c-0.656,1.286,0.326,3.29,2.558,4.804c3.393,2.303,11.193,3.653,16.21,1.376c1.189-0.54,1.963-1.125,2.459-1.685
		c0.393-0.233,0.771-0.547,1.09-0.901c0.46,0.257,1.336,0.642,2.546,0.931c0.275,0.908,0.61,1.616,1.831,1.785
		c1.235,0.171,1.661-0.692,2.071-1.386c0.92-0.022,1.914-0.123,2.976-0.336c0.036,0.359,0.289,0.893,1.493,0.977
		c1.5,0.106,2.383-1.244,2.949-2.62c1.772-1.066,2.601-2.284,2.685-2.958C56.284,62.021,56.139,61.461,55.801,61.182z
		 M38.114,52.812c-0.105-0.046-0.217-0.088-0.332-0.127c-0.015-0.877-0.933-1.778-2.071-1.883c-0.052-0.091-0.107-0.18-0.162-0.267
		c0.193-0.085,0.37-0.182,0.519-0.294c0.548,0.222,1.098,0.316,1.542,0.212c0.121-0.028,0.239-0.068,0.35-0.118
		C37.933,51.178,38.177,52.061,38.114,52.812z"/>
	<path fill="#FFFFFF" d="M33.682,47.344c1.301,0.94,2.674,1.305,3.04,1.186c-2.648-0.646-4.488-2.67-5.085-4.602
		c-1.183-3.824,2.783-4.651,4.842-3.955c0.895,0.302,1.974,0.885,3.094,1.508c1.794,0.995,3.179,1.924,3.545,2.464
		c0.826,1.222,1.512,3.919,0.762,4.984c-0.532,0.757-1.554,0.927-2.509,0.203c0.513-0.799,0.689-2.031,0.31-3.454
		c0.215,2.09-0.539,4.757-2.843,3.963c0.759-0.945,1.032-2.486,0.663-3.709c0.091,1.49-0.364,3.688-1.998,4.124
		C35.967,50.467,33.688,48.365,33.682,47.344z"/>
	<path fill="#FFDB00" d="M47.563,44.884c-0.729,0.221-2.101-0.087-2.63,0.357c-0.346,0.291-0.346,0.8-0.363,1.199
		c0.272-0.437,0.255-0.781,0.49-1c0.367-0.337,1.768,0.008,2.634-0.33c0.153-0.06,0.271-0.136,0.367-0.224
		c-0.058,3.222-1.311,5.997-1.602,6.513c-0.425,0.75-3.034,0.197-3.326-0.525c-0.059-0.149-0.078-0.541-0.065-1.012
		c0.5-0.1,0.948-0.377,1.193-0.842c0.417-0.797,0.404-2.544-0.246-4.128c0.096-0.21,0.235-0.381,0.464-0.487
		c0.546-0.254,2.216,0.563,3.288-0.31c0.025-0.072,0.045-0.164,0.065-0.266C48.045,44.084,48.161,44.705,47.563,44.884z"/>
	<path fill="#FFBF9E" d="M26.939,23.334c-0.336-1.035-0.331-3.344,0.43-5.51c0.706-2.014,2.265-3.97,3.927-4.295
		c1.634-0.321,2.873,1.015,3.226,2.511c0.516-1.149,2.127-2.236,3.513-1.342c1.93,1.245,2.439,5.117,1.523,7.93
		c-0.375,1.146-0.936,2.208-1.612,3.065c1.307,0.135,3.595,1.459,2.477,3.663c-1.132,2.232-5.948,2.815-7.143,2.7
		c0.347-0.212,0.674-0.414,0.971-0.566c-1.259,0.219-3.235,1.991-4.757,1.405c-1.606-0.618-1.999-2.792-2.665-3.103
		c0.166,0.281,0.312,0.648,0.481,1.038c-2.043-0.848-4.373-2.644-4.474-4.577C22.744,24.523,24.226,22.91,26.939,23.334z"/>
	<path fill="#1A1A1A" d="M40.241,42.342c0.188-0.241-2.497-1.612-3.088-1.49C38.993,41.597,40.118,42.498,40.241,42.342z"/>
	<path fill="#1A1A1A" d="M39.121,42.757c0.173-0.226-1.838-1.733-2.913-1.77C37.837,41.594,38.948,42.982,39.121,42.757z"/>
	<path fill="#1A1A1A" d="M37.739,43.587c0.197-0.088-1.277-1.819-2.366-2.22C36.136,41.957,37.549,43.675,37.739,43.587z"/>
	<path fill="#1A1A1A" d="M35.262,25.306c-0.142-0.259-0.38-0.479-0.682-0.663c2.053-1.267,2.475-6.421,1.161-6.662
		c-1.235-0.227-2.062,4.418-2.371,6.192c-0.39-0.093-0.807-0.151-1.219-0.174c1.254-2.049,1.43-6.22,0.39-6.341
		c-1.307-0.151-2.752,4.187-2.009,6.449c-0.41,0.088-0.76,0.224-1.005,0.409C31.148,23.955,33.704,24.09,35.262,25.306z"/>
	<path fill="#FFFFFF" d="M35.678,18.24c1.113,0.227,0.603,5.222-1.236,6.325c-0.132-0.069-0.271-0.135-0.42-0.192
		c0.262-0.143,0.54-0.623,0.688-1.231c0.187-0.777,0.089-1.465-0.218-1.54c-0.147-0.035-0.314,0.078-0.47,0.288
		C34.481,19.956,35.067,18.117,35.678,18.24z"/>
	<path fill="#FFFFFF" d="M32.467,17.897c0.832,0.095,0.7,3.566-0.478,6.095c-0.267-0.009-0.531-0.002-0.784,0.018
		c0.186-0.256,0.344-0.685,0.416-1.186c0.118-0.842-0.052-1.561-0.382-1.607c-0.259-0.036-0.538,0.354-0.704,0.93
		C30.733,20.092,31.757,17.817,32.467,17.897z"/>
	
		<ellipse transform="matrix(-0.995 -0.0997 0.0997 -0.995 61.9068 55.4845)" fill="#1A1A1A" cx="32.34" cy="26.195" rx="2.588" ry="1.574"/>
	<path fill="#1A1A1A" d="M27.132,28.013c0.635,1.141,0.868,3.705,2.579,4.266c1.662,0.545,3.841-1.404,4.998-2.198
		c1.065-0.337,2.114-0.911,3.144-1.706c0.429,0.222,0.751,0.539,0.932,0.932c0.161-0.688-0.937-1.683-2.271-1.288
		c0.439,0.034,0.829,0.128,1.165,0.272c-2.489,1.856-4.823,2.112-6.709,1.694c-2.278-0.506-3.975-2.148-4.846-3.846
		c0.479-0.108,0.96-0.092,1.362,0.078c-0.731-0.775-2.445-0.277-2.664,0.558c0.324-0.264,0.704-0.461,1.095-0.58
		C26.262,26.882,26.67,27.49,27.132,28.013z"/>
	<path fill="#FF8189" d="M29.902,32.016c-0.793-0.168-1.289-0.97-1.673-1.848c1.013-0.062,1.726,0.618,2.113,1.598
		c0.071-0.173,0.003-0.467-0.173-0.772c0.698-0.151,1.438-0.039,1.91,0.568C31.395,31.942,30.686,32.182,29.902,32.016z"/>
	<path fill="#A93439" d="M30.939,30.271c1.078,0.234,2.151,0.217,3.212-0.036c-0.624,0.358-1.225,0.823-1.845,1.195
		c-0.611-0.855-1.574-0.914-2.252-0.614c-0.384-0.54-1.086-1.039-1.92-0.874c-0.221-0.534-0.407-1.078-0.6-1.511
		C28.503,29.374,29.668,29.994,30.939,30.271z"/>
	<path fill="#A41F35" d="M55.144,62.209c-0.091,0.156-0.205,0.311-0.336,0.465c0.588-1.741-0.357-4.18-3.151-5.219
		c0.208-0.034,0.419-0.065,0.634-0.097C54.907,57.631,56.257,60.317,55.144,62.209z"/>
	<path fill="#A41F35" d="M40.398,63.147c0.126-0.567-0.158-2.004-1.036-2.816c0.103-0.061,0.2-0.137,0.283-0.229
		c0.104-0.114,0.191-0.307,0.258-0.546c0.27,0.084,0.806,0.163,1.19,0.114c0.003,0.011,0.002,0.022,0.006,0.032
		c0.118,0.273,0.49,0.415,1.176,0.347c-0.023,0.139,0,0.239,0.061,0.289c0.285,0.236,0.897-0.072,1.99-0.585
		c2.335,0.235,5.645,2.695,4.679,5.82c-2.763,0.614-5.965,0.597-8.651-0.635C40.655,64.318,40.726,63.675,40.398,63.147z"/>
	<path fill="#9C7E62" d="M38.988,64.164c0.005-0.558-0.298-1.798-0.95-2.854c0.347-0.171,1.077-0.26,1.604-0.046
		c0.36,0.7,0.595,1.526,0.512,1.803C40.04,63.452,39.385,63.933,38.988,64.164z"/>
	<path fill="#FFFFFF" d="M18.932,63.716c-0.306-2.014,0.829-3.831,1.668-4.357c0.391,0.238,0.85,0.483,1.381,0.727
		c0.069,0.275,0.132,0.527,0.199,0.755c-0.847,0.805-1.559,2.46-1.106,4.073C20.206,64.547,19.49,64.139,18.932,63.716z"/>
	<path fill="#C1B8AF" d="M22.289,60.221c1,0.432,2.241,0.841,3.752,1.168c-0.029,0.206-0.039,0.484-0.454,0.662
		c-0.517,0.218-1.736,0.343-2.283,0.028C22.77,61.774,22.519,61.168,22.289,60.221z"/>
	<path fill="#9C7E62" d="M21.336,65.021c-0.146-0.661-0.237-2.563,0.946-3.853c0.19,0.551,0.424,0.938,0.834,1.192
		c0.657,0.407,2.016,0.22,2.58,0c0.493-0.191,0.603-0.575,0.653-0.91c0.165,0.034,0.333,0.067,0.503,0.098
		c0.878,0.161,1.71,0.23,2.48,0.24c0.175,0.486,0.627,1.058,1.226,1.402c0.373,0.213,1.123,0.171,1.731,0.024
		c-0.496,1.464-0.189,2.499,0.077,3.053c-1.294,0.133-2.72,0.183-4.216,0.107C25.371,66.234,23.075,65.715,21.336,65.021z"/>
	<path fill="#C1B8AF" d="M33.504,61.254c-0.094,0.405-0.167,1.056-0.601,1.375c-0.469,0.343-1.657,0.516-2.111,0.343
		c-0.427-0.161-0.825-0.562-1.131-1.183C31.285,61.773,32.615,61.493,33.504,61.254z"/>
	<path fill="#FFFFFF" d="M32.648,66.238c-0.421-0.848-0.214-2.433-0.022-3.12c0.256-0.09,0.458-0.195,0.543-0.303
		c0.277-0.35,0.622-1.08,0.679-1.657c0.076-0.022,0.146-0.046,0.212-0.065c0.929-0.21,1.769-0.541,2.503-0.924
		c0.352,0.213,0.686,0.567,0.983,0.984c-1.374,1.117-1.656,3.189-1.372,4.41C35.208,65.844,34.005,66.086,32.648,66.238z"/>
	<path fill="#C1B8AF" d="M39.761,57.659c0.023,1.128-0.056,1.814-0.296,2.171c-0.247,0.364-0.666,0.382-0.998,0.382
		c-0.604,0-0.956-0.293-1.037-0.549C38.529,58.957,39.326,58.18,39.761,57.659z"/>
	<path fill="#FFFFFF" d="M37.213,59.801c0.015,0.089,0.087,0.217,0.326,0.428c0.275,0.244,0.969,0.422,1.555,0.226
		c0.13,0.133,0.256,0.303,0.372,0.494c-0.504-0.13-1.222-0.1-1.575,0.132c-0.287-0.419-0.631-0.794-1.037-1.069
		C36.976,59.94,37.095,59.871,37.213,59.801z"/>
	<path fill="#9C7E62" d="M36.431,65.487c-0.289-1.438,0.453-3.413,1.245-4.147c0.709,1.073,1.166,2.446,1.041,2.868
		C38.599,64.597,37.761,65.076,36.431,65.487z"/>
	<path fill="#6A1B32" d="M44.612,59.621c0.718-0.333,1.617-0.73,2.737-1.117c1.048-0.363,2.278-0.689,3.742-0.953
		c2.132,0.646,4.339,2.761,3.461,5.397c-1.066,1.055-3.004,2.018-5.27,2.562C50.157,62.987,47.994,60.119,44.612,59.621z"/>
	<path fill="#FFFFFF" d="M52.92,57.237c-0.201-0.042-0.411-0.07-0.63-0.077c-2.215,0.182-3.741,0.602-5.08,1.05
		c-2.921,0.976-4.291,2.086-4.618,1.946c-0.391-0.165,1.449-2.053,4.303-2.996C48.959,56.479,52.147,56.385,52.92,57.237z"/>
	<path fill="#FFFFFF" d="M44.523,57.157c1.501-0.67,3.291-1.034,4.675-0.777c-0.784,0.077-1.612,0.242-2.411,0.507
		c-2.797,0.926-4.019,2.104-4.391,2.824c-0.565,0.108-1.006,0.127-1.078-0.026C41.216,59.468,42.241,58.176,44.523,57.157z"/>
	<path fill="#A41F35" d="M43.453,57.31c-1.29,0.726-2.036,1.538-2.277,2.025c-0.302,0.017-0.9,0.006-1.206-0.056
		c0.068-0.363,0.103-0.801,0.095-1.251c0.534,0.223,1.847,0.027,2.579-0.524c0.079-0.22,0.167-0.463,0.253-0.699
		C43.137,56.912,43.396,57.092,43.453,57.31z"/>
	<path fill="#1A1A1A" d="M42.408,57.377c-0.631,0.299-1.821,0.521-2.355,0.35c-0.006-0.136-0.018-0.271-0.032-0.405
		c0.063-0.096,0.104-0.168,0.118-0.211c0.132-0.424-0.004-0.598-0.144-0.633c0.085-0.292,0.134-0.647,0.109-1.028
		c0.969,0.443,1.846,0.327,2.471,0.03c0.133,0.064,0.262,0.122,0.384,0.167C42.758,56.152,42.54,56.919,42.408,57.377z"/>
	<path fill="#FFDB00" d="M45.262,53.452c0.083-0.269,0.188-0.527,0.292-0.767c0.01,2.943-1.67,2.961-2.706,2.646
		c0.406-0.255,0.662-0.577,0.706-0.808c-1.237,1.204-2.9,0.906-3.487,0.596c-0.134-0.767-0.584-1.58-1.61-2.139
		c0.055-0.662-0.146-2.083-0.156-2.834c0.129-0.086,0.248-0.189,0.361-0.306c1.021,0.494,1.944,0.252,2.538-0.474
		c0.434,0.381,1.01,0.56,1.561,0.533c0.012,0.477,0.064,0.892,0.157,1.118c0.233,0.572,1.522,1.147,2.602,1.059
		C45.347,52.41,45.153,53.004,45.262,53.452z"/>
	<path fill="#6A1B32" d="M20.578,57.113c-0.416-2.506,2.22-4.035,3.796-4.242c3.325,0.741,5.673,1.963,7.277,2.818
		c-1.72,0.94-2.729,2.428-2.607,4.043c-1.891-0.502-3.708-1.318-5.333-1.856C22.509,57.477,21.395,57.238,20.578,57.113z"/>
	<path fill="#A41F35" d="M29.291,59.795c-0.11-2.047,1.698-3.527,2.653-3.951c1.191,0.637,1.931,1.008,2.328,0.697
		c0.105-0.082,0.128-0.209,0.082-0.366c0.598,0.089,1.107,0.024,1.153-0.359c0.032-0.257-0.179-0.801-0.918-1.499
		c1.18,0.163,2.788-0.253,3.127-1.208c0.019-0.059,0.035-0.114,0.045-0.173c1.292,0.462,2.548,2.043,1.885,3.679
		c-0.494,1.226-3.786,3.568-7.571,3.56C31.139,60.171,30.207,60.022,29.291,59.795z"/>
	<path fill="#1A1A1A" d="M26.739,37.503c0.824-0.17,1.688-0.288,2.422-0.324c0.536,0.947,1.151,1.799,1.85,2.382
		c-0.119,0.089-0.23,0.186-0.332,0.29c-0.639,0.027-1.8-0.111-2.385-0.333c0.25,0.334,1.388,0.636,2.135,0.642
		c-0.003,0.005-0.006,0.008-0.009,0.012c-0.776,1.181-0.662,2.372-0.181,3.212c-1.61,0.103-3.007,0.087-3.775-0.975
		C25.745,41.417,26.552,38.591,26.739,37.503z"/>
	<path fill="#A41F35" d="M26.71,31.416c0.109,0.247,0.242,0.604,0.4,1.032c-0.622-0.635-1.159-1.605-1.383-2.123
		c0.505,0.285,1.075,0.552,1.712,0.795c0.371,0.808,0.879,1.654,1.877,2.052c0.167,0.066,0.338,0.108,0.51,0.13
		c0.531,0.683,1.885,1.828,2.798,1.799c0.898-0.026,2.504-1.975,3.043-2.919c0.188-0.027,0.378-0.06,0.568-0.096
		c0.093,1.915,2.208,3.866,3.523,4.435c-0.731,0.355-1.367,0.791-1.763,1.351c0.807-0.579,1.931-1.069,3.024-1.476
		c-0.579,0.532-1.892,1.328-2.398,1.966c0.521-0.345,1.2-0.752,1.794-1.15c0.321,1.852,1.435,3.395,2.904,4.481
		c-0.17,0.405-0.446,0.91-0.688,1.262c-0.664-0.521-1.69-1.121-3.097-1.874c-1.148-0.616-2.143-1.136-2.972-1.405
		c-0.567-0.188-1.198-0.264-1.823-0.229c-0.833-0.744-2.368-0.694-3.444-0.073C28.569,36.593,27.75,32.381,26.71,31.416z"/>
	<path fill="#1A1A1A" d="M32.885,32.295c0.358,0.04,0.856,0.052,1.433,0.022c-0.738,0.804-1.641,1.645-1.972,1.617
		c-0.297-0.026-0.938-0.373-1.336-0.746C31.651,33,32.291,32.651,32.885,32.295z"/>
	<path fill="#A41F35" d="M30.729,33.258c0.353,0.382,1.013,0.918,1.661,0.88c0.686-0.04,1.715-1.177,2.23-1.839
		c0.231-0.017,0.472-0.04,0.717-0.071c-0.719,0.954-2.307,2.7-2.757,2.686c-0.455-0.014-1.957-1.063-2.364-1.592
		C30.386,33.316,30.558,33.294,30.729,33.258z"/>
	<path fill="#FFDB00" d="M39.98,36.417c-2.052-1.02-3.292-3.223-3.463-4.387c0.689-0.147,1.385-0.355,2.018-0.638
		c-0.04,1.911,1.716,3.915,2.746,4.525C40.838,36.065,40.397,36.229,39.98,36.417z"/>
	<path fill="#FFFFFF" d="M30.674,40.426c0.728-1.143,2.657-1.557,3.732-0.948c-2.064,0.249-3.928,1.743-3.105,4.62
		C30.148,43.373,29.971,41.531,30.674,40.426z"/>
	<path fill="#FFDB00" d="M47.604,43.914c-0.891,0.674-2.49-0.035-3.181,0.182c-0.232,0.073-0.401,0.283-0.542,0.495
		c-0.163-0.346-0.356-0.68-0.585-0.988c-0.116-0.155-0.273-0.317-0.469-0.485c0.29-0.302,0.651-0.816,0.81-1.201
		c1.186,0.797,2.567,1.307,3.944,1.462C47.611,43.57,47.63,43.794,47.604,43.914z"/>
	<path fill="#FFFFFF" d="M52.855,35.325c2.073,1.513,1.236,5.785-2.001,7.246c-1.689,0.763-3.962,0.554-5.947-0.4
		c-0.031-0.484-0.684-2.016-0.603-2.321c-0.269,0.411,0.012,1.598,0.289,2.162c-0.551-0.29-1.073-0.638-1.552-1.04
		c-0.009-0.472-0.389-1.584-0.389-1.954c-0.187,0.226-0.145,1.029-0.012,1.592c-0.381-0.364-0.725-0.77-1.02-1.205
		c-0.101-0.431-0.152-1.071-0.116-1.521c-0.188,0.138-0.23,0.604-0.189,1.021c-0.315-0.565-0.554-1.179-0.689-1.838
		c0.456-0.319,0.832-0.627,1.006-0.889c0.283-0.098,0.559-0.19,0.822-0.276c0.287,0.776,1.202,2.119,3.124,1.901
		c0.962-0.107,1.683-0.589,2.084-1.156c1.377,0.26,3.499,1.855,4.107,3.617c0.059-0.197,0.009-0.489-0.128-0.828
		c0.506,0.031,1.428-0.417,1.637-0.987c-0.253,0.269-1.218,0.697-1.781,0.681c-0.431-0.814-1.307-1.787-2.47-2.355
		C49.673,35.782,51.808,34.562,52.855,35.325z"/>
	<path fill="#FFFFFF" d="M43.961,35.406c0.611,0.685,1.922,0.726,2.839,0.309c0.241-0.195,0.488-0.428,0.733-0.688
		c0.677,0.699-0.108,2.179-2.057,2.421c-1.38,0.174-2.324-0.861-2.712-1.647C43.228,35.649,43.638,35.519,43.961,35.406z"/>
	<path fill="#FFFFFF" d="M51.635,34.767c-1.282,0.1-2.515,1.101-2.877,1.886c-0.294-0.125-0.604-0.22-0.927-0.279
		c0.285-0.562,0.266-1.157-0.137-1.522c0.304-0.342,0.597-0.724,0.858-1.133C49.662,33.4,51.126,34.041,51.635,34.767z"/>
	<path fill="#1A1A1A" d="M48.666,29.237c0.798,1.103,0.898,3.545-1.951,6.207c-0.496,0.264-1.621,0.455-2.433-0.156
		c0.108-0.041,0.197-0.081,0.263-0.116c0.574-0.585,1.15-1.402,1.551-2.301c0.345,0.104,1.048-0.015,1.315-0.242
		c-0.219,0.029-0.8,0.083-1.196-0.042c0.606-1.534,0.67-3.255-0.64-4.478C46.773,28.313,48.164,28.543,48.666,29.237z"/>
	<path fill="#A41F35" d="M44.561,29.458c0.045-0.45-0.177-1.083-0.544-1.703c0.302,0.125,0.737,0.213,1.224,0.297
		c1.246,1.145,1.732,3.808-0.781,6.799c-0.653,0.326-1.765,0.605-2.909,0.976c-1.467-0.969-2.623-3.038-2.802-4.536
		c0.678-0.331,1.271-0.754,1.691-1.292c0.486-0.623,0.674-1.42,0.532-2.17c0.343-0.585,0.615-1.182,0.829-1.779
		C42.644,26.44,44.124,27.794,44.561,29.458z"/>
	<path fill="#1A1A1A" d="M26.457,14.596c-2.229,0.412-4.438-0.361-5.665-2.124c-1.743-2.505-0.77-6.196,2.173-8.243
		c2.942-2.046,6.742-1.676,8.484,0.83c1.634,2.348,0.819,5.855-1.715,7.973c3.791-1.208,8.672,0.761,9.745,2.302
		c-0.357-0.782-0.454-1.75-0.5-2.451c-0.235-3.479,2.047-6.464,5.096-6.671c3.049-0.205,5.711,2.449,5.946,5.928
		c0.232,3.479-2.049,6.466-5.099,6.671c-1.173,0.078-2.463-0.209-3.704-1.091c1.221,2.307,1.42,6.262-0.346,9.737
		c-0.316-0.911-1.157-1.687-2.586-1.884c1.609-1.91,2.71-5.649,1.526-8.922c-1.092-3.018-3.866-3.304-5.24-1.034
		c-0.436-1.548-1.789-2.705-3.346-2.38c-3.368,0.701-5.445,6.147-4.592,9.827c-1.781-0.237-3.002,0.594-3.341,0.933
		c-0.09,0.091-0.172,0.187-0.248,0.286C22.313,20.437,23.817,16.535,26.457,14.596z"/>
	<path fill="#FFDB00" d="M25.423,30.148c0.309,1.037,1.202,2.254,1.899,2.874c0.164,0.438,0.348,0.925,0.554,1.432
		c-3.245-1.824-4.312-4.053-4.766-5.987c0.054-0.073,0.111-0.144,0.17-0.214C23.761,28.915,24.467,29.564,25.423,30.148z"/>
	<path fill="#A41F35" d="M22.943,28.714c0.576,2.909,2.81,4.985,5.072,6.076c0.299,0.715,0.641,1.46,1.025,2.169
		c-2.078,0.016-5.284,0.783-5.589,1.671c-0.168-0.875,0.695-3.412,0.048-4.595c0.101,0.576,0.02,1.351-0.096,2.123
		C22.758,34.237,21.538,30.976,22.943,28.714z"/>
	<path fill="#6A1B32" d="M23.667,39.002c-0.273-0.495,1.133-1.065,2.786-1.436c-0.144,0.617-0.342,1.315-0.483,2.015
		C25.344,39.567,24.16,39.442,23.667,39.002z"/>
	<path fill="#FFDB00" d="M27.446,48.437c0.603,0.347,1.261,0.584,1.909,0.669c-3.913-1.658-4.932-4.336-3.167-6.49
		c0.826,1.242,3.104,1.245,4.197,0.996c0.282,0.398,0.648,0.692,1.028,0.836c0.42,1.167,1.198,2.065,2.034,2.72
		c-0.241,0.991,0.997,2.3,2.323,2.942c-1.298,0.68-2.886,0.427-4.447,0.091c0.382,0.207,0.78,0.357,1.181,0.463
		C30.431,51.601,28.274,50.272,27.446,48.437z"/>
	<path fill="#1A1A1A" d="M32.791,50.731c0.915,0.191,1.815,0.136,2.519-0.104c0.14,0.263,0.465,0.928,0.657,1.341
		c-0.907,0.719-2.83,0.655-3.721,0.109c-0.114-0.145-0.256-0.395-0.506-0.866C32.143,51.124,32.506,50.962,32.791,50.731z"/>
	<path fill="#A41F35" d="M32.105,52.311c0.41,0.366,1.543,0.585,2.548,0.484c0.766-0.076,1.496-0.362,1.546-0.767
		c0.019-0.158-0.126-0.544-0.34-0.955c1.148,0.225,1.739,1.326,1.59,1.846c-0.231,0.812-1.85,1.321-3.279,1.037
		c-0.628-0.506-1.523-1.07-2.774-1.653c0.082-0.15,0.207-0.353,0.336-0.497C31.849,52.005,31.977,52.196,32.105,52.311z"/>
	<path fill="#FFFFFF" d="M31.215,52.587c2.771,1.196,4.146,2.885,4.055,3.155c-0.063,0.192-0.462,0.277-1.045,0.158
		c-0.344-0.562-1.254-1.359-2.478-2.125c-1.701-1.063-3.38-1.702-4.849-2.011C28.157,51.549,29.752,51.956,31.215,52.587z"/>
	<path fill="#FFFFFF" d="M31.601,53.998c1.702,1.058,2.657,2.192,2.452,2.361c-0.526,0.437-4.469-3.143-11.046-3.96
		c-0.131,0-0.26,0.008-0.387,0.021C23.863,51.095,28.394,52.004,31.601,53.998z"/>
	<path fill="#A41F35" d="M22.971,52.599c0.281,0.047,0.555,0.099,0.824,0.151c-2.608,0.648-3.831,2.521-3.398,4.336
		c-0.515-0.073-0.89-0.096-1.061-0.082C19.024,55.915,19.801,53.026,22.971,52.599z"/>
	<path fill="#C1B8AF" d="M19.303,57.268c0.623-0.075,2.237,0.266,4.283,0.921c2.313,0.739,5.499,2.409,8.535,2.376
		c3.619-0.039,7.143-2.33,7.79-3.858c0.112,0.06,0.095,0.277-0.039,0.45c-0.833,1.058-3.465,3.606-7.329,3.829
		C28.032,61.247,21.146,57.46,19.341,58C19.173,57.718,19.122,57.386,19.303,57.268z"/>
	<path fill="#C1B8AF" d="M19.476,58.187c1.766-0.294,8.012,3.093,12.467,3.138c-1.265,0.169-3.322,0.197-4.996-0.087
		c-3.183-0.542-6.586-2.115-7.426-3.002C19.506,58.219,19.491,58.204,19.476,58.187z"/>
	<path fill="#9C7E62" d="M20.171,59.084c0.053,0.036,0.107,0.071,0.163,0.108c-1.593,1.12-1.858,3.309-1.641,4.336
		c-0.777-0.65-1.183-1.324-1.173-1.916C17.535,60.645,19.041,59.458,20.171,59.084z"/>
	<path fill="#9C7E62" d="M17.507,62.568c0.241,0.478,0.659,0.977,1.278,1.457c-0.359,0.401-0.366,0.923-0.242,1.415
		C17.532,64.301,17.255,63.193,17.507,62.568z"/>
	<path fill="#FFFFFF" d="M18.885,65.798c-0.188-0.567-0.211-1.188,0.091-1.631c0.553,0.401,1.249,0.786,2.099,1.135
		c-0.106,0.987,0.128,1.711,0.491,2.278c-0.564-0.258-1.072-0.537-1.509-0.832C19.603,66.439,19.215,66.121,18.885,65.798z"/>
	<path fill="#9C7E62" d="M21.967,67.758c-0.555-0.741-0.653-1.75-0.612-2.346c1.655,0.637,3.854,1.134,6.686,1.344
		c1.47,0.106,3.033,0.049,4.506-0.126c0.062,1.261,1.019,1.934,1.513,2.191C30.082,69.788,25.218,69.125,21.967,67.758z"/>
	<path fill="#FFFFFF" d="M34.394,68.733c-0.779-0.407-1.567-1.427-1.579-2.138c1.241-0.161,2.406-0.4,3.384-0.691
		c-0.036,0.863,0.466,1.505,0.857,1.734c-0.262,0.16-0.553,0.315-0.874,0.461C35.62,68.356,35.019,68.565,34.394,68.733z"/>
	<path fill="#9C7E62" d="M37.323,67.469c-0.45-0.22-0.845-1.036-0.928-1.623c1.27-0.394,2.191-0.867,2.502-1.349
		c0.051-0.017,0.1-0.036,0.149-0.056C39.337,64.901,39.057,66.295,37.323,67.469z"/>
	<path fill="#9C7E62" d="M39.18,65.939c0.338-0.738,0.235-1.343,0.082-1.601c0.457-0.243,0.843-0.602,1.033-0.938
		C40.473,63.882,40.238,64.906,39.18,65.939z"/>
	<path fill="#C1B8AF" d="M44.151,68.313c-0.776-0.07-1.381-0.741-1.547-1.412c0.897,0.189,1.955,0.322,3.152,0.322
		C45.197,68.171,44.914,68.384,44.151,68.313z"/>
	<path fill="#C1B8AF" d="M50.675,67.532c-0.846-0.014-1.188-0.331-1.28-0.708c0.058-0.013,0.115-0.022,0.172-0.037
		c1.449-0.33,2.638-0.794,3.587-1.311C52.387,66.973,51.657,67.55,50.675,67.532z"/>
	<path fill="#C1B8AF" d="M49.713,66.334c-5.131,1.168-8.703-0.135-9.855-0.626c0.148-0.183,0.279-0.373,0.391-0.567
		c6.4,2.974,13.51-0.288,15.095-2.768c0.176-0.271,0.302-0.555,0.383-0.844c0.214,0.203,0.311,0.568,0.326,0.662
		C56.14,62.721,54.297,65.288,49.713,66.334z"/>
	<path fill="#1A1A1A" d="M43.915,51.128c0-0.382-0.017-1.163,0.074-1.563C43.608,49.837,43.661,50.691,43.915,51.128z"/>
	<path fill="#FFFFFF" d="M46.105,32.847c0.228,0.104,0.956,0.033,1.32-0.188C47.379,32.873,46.433,33.289,46.105,32.847z"/>
	<path fill="#FFFFFF" d="M28.21,39.48c0.368,0.28,1.844,0.561,2.375,0.474C30.19,39.732,28.674,39.413,28.21,39.48z"/>
</g>
</svg>
