<?xml version="1.0" encoding="utf-8"?>
<!-- Generator: Adobe Illustrator 16.0.4, SVG Export Plug-In . SVG Version: 6.00 Build 0)  -->
<!DOCTYPE svg PUBLIC "-//W3C//DTD SVG 1.1//EN" "http://www.w3.org/Graphics/SVG/1.1/DTD/svg11.dtd">
<svg version="1.1" id="Layer_1" xmlns="http://www.w3.org/2000/svg" xmlns:xlink="http://www.w3.org/1999/xlink" x="0px" y="0px"
	 width="72px" height="72px" viewBox="0 0 72 72" enable-background="new 0 0 72 72" xml:space="preserve">
<g>
	<path d="M56.557,50.052c-0.123,0-0.246,0.011-0.367,0.038c-0.222,0.047-0.423,0.138-0.606,0.26c-0.667-0.26-1.41-0.511-2.023-0.69
		c0.422-0.563,0.59-1.352,0.597-2.215c3.001,2.069,5.509,1.609,6.95,0.166c2.027-2.029,1.22-5.887-1.526-8.237
		c-1.382-1.183-3.108-2.073-4.754-2.529c5.674-2.003,12.857-1.088,16.093-3.7c-3.564,2.425-11.068,1.479-16.708,3.565
		c-1.514-0.321-2.949-0.28-4.031,0.202c-0.911,0.407-1.675,1.154-2.093,2.419c-2.24-0.443-4.759,0.729-6.806,0.152
		c-0.142-0.384-0.391-0.692-0.732-0.875c1.169-1.108,1.959-2.709,1.775-4.103c0.609-0.89,0.896-2.145,0.48-3.12
		c-0.523-1.224-1.948-1.436-2.641-0.702c-0.252,0.268-0.463,0.674-0.627,1.132c-0.575-0.017-1.082,0.112-1.502,0.334
		c-0.826-5.005-6.244-8.794-11.421-6.991c0.268-0.418,0.5-0.875,0.683-1.37c1.085-2.925,0.119-5.98-2.157-6.825
		c-2.277-0.844-5.001,0.844-6.085,3.769c-1.076,2.901-0.229,5.94,2.157,6.824c0.535,0.199,1.095,0.257,1.651,0.192
		c-0.994,1.191-1.697,2.7-1.953,4.465c-1.085-2.359-3.275-3.739-5.25-3.161c-2.241,0.656-3.356,3.584-2.491,6.541
		c0.865,2.955,3.384,4.82,5.625,4.163c1.287-0.376,2.201-1.503,2.584-2.952c0.533,1.413,1.413,2.556,2.522,3.149
		c0.075,0.136,0.163,0.268,0.263,0.396c-2.095,0.856-5.325,1.499-6.814,1.477c-0.595-0.721-1.435-0.979-2.279-0.598
		c-0.895-0.651-1.827-1.009-2.244-2.29c-0.353-1.086-0.231-2.337-0.792-2.873c-1.055-1.009-3.809,0.874-2.849,3.548
		c0.162,0.45,0.428,0.86,0.771,1.186c-3.183,0.268-6.964,2.105-7.356,3.75c-0.431,0.297-0.713,0.673-0.709,1.134
		c0.009,1.315,1.879,1.421,2.736,1.492c1.272,1.062,3.746,1.809,5.177,1.795c1.759-0.019,4.925-1.435,6.103-2.696
		c0.77,0.271,1.542-0.182,1.939-1.003c3.639-0.414,7.562-1.809,9.712-3.092c0.603,0.126,1.25,0.195,1.921,0.197
		c0.562,0.512,1.46,0.918,2.432,0.776c-1.657,0.809-3.044,1.213-3.907,1.408c-1.415-1.047-3.809-0.987-4.568,0.692
		c-0.164,0.045-0.326,0.097-0.484,0.162c-2.805-0.491-5.381,2.1-6.402,4.058c-0.922,0.25-2.029,0.838-2.753,1.582
		c-0.867,0.889-1.152,2.144,0.014,3.038c0,0.002,0.001,0.004,0.002,0.006c0.359,0.805,1.743,1.102,3.285,0.494
		c0.76,0.735,2.976,0.459,5.352-0.943c1.58-0.933,3.539-2.733,4.309-4.023c1.276,0.244,3.429-0.104,4.287-1.14
		c0.262-0.315,0.391-0.782,0.325-1.225c0.763-0.299,1.646-0.727,2.545-1.221c2.328,2.067,4.831,3.601,7.506,4.431
		c0.265,0.323,0.685,0.618,1.198,0.812c0.847,0.32,1.685,0.264,2.084-0.099c0.435,0.04,1.086,0.057,1.711,0.027
		c0.705,0.66,3.496,2.95,3.907,2.935c0.298-0.221,0.684-0.686,1.008-1.305c0.97,0.341,2.356,0.82,3.491,1.183
		c0.291,0.723,0.784,1.283,1.354,1.574c0.577,0.818,1.649,1.837,2.077,2.479c0.761,1.14,1.28,2.975,2.462,4.552
		c2.373,3.166,7.023,3.007,8.591-0.473c1.372-3.042,0.454-6.599-2.67-9.708C63.649,49.482,59.031,48.333,56.557,50.052z"/>
	<path d="M21.309,27.261c-2.123-0.787-3.004-3.641-1.971-6.428c1.034-2.787,3.59-4.452,5.712-3.665
		c2.124,0.787,3.006,3.685,1.973,6.471c-0.238,0.641-0.557,1.219-0.931,1.722c-0.222,0.094-0.443,0.197-0.663,0.313
		c-0.823,0.433-1.579,1.003-2.231,1.697C22.563,27.513,21.918,27.486,21.309,27.261z"/>
	<path fill="#231F20" d="M55.018,18.086c2.462-2.228,3.801-5.223,3.548-6.945c-0.055-0.375-0.425-1.181-1.039-1.727
		c-1.11-0.986-3.004-1.802-5.151-2.104c-1.992-0.278-4.201-0.115-6.202,0.77c-1.934,0.854-3.777,2.335-5.096,3.97
		c-1.713,2.124-2.229,4.118-1.697,5.062c-0.291,1.652,2.281,3.397,4.65,3.902c2.562,0.547,5.788,0.229,8.578-1.236
		C53.498,19.312,54.305,18.731,55.018,18.086z"/>
	<g>
		<path fill="#FFFFFF" d="M9.801,48.657c-1.893,0.038-6.511-1.629-5.672-3.263c0.619-1.205,3.701-0.177,4.985,1.236
			c-0.09-0.289-0.396-0.623-0.745-0.914c0.619-0.086,1.785,0.079,2.319,0.375c-0.497-0.626-1.906-0.729-2.583-0.581
			c-0.136-0.1-0.271-0.191-0.398-0.27c-1.472-0.899-3.297-0.875-3.758,0.053c-0.267,0.537-0.104,1.062,0.316,1.536
			c-1.318-0.115-2.142-0.438-2.15-1.14C2.104,44.83,3.5,44.244,5.27,44.039c0.628-0.071,2.116-0.06,3.3,0.24
			c-0.717-0.52-2.391-0.636-3.33-0.55c-0.782,0.072-1.682,0.284-2.352,0.644c0.729-1.508,4.643-3.1,7.312-3.365
			c0.302,0.228,0.649,0.395,1.026,0.474c-0.668-0.35-1.444-1.054-1.753-2.013c-0.78-2.418,1.617-4.151,2.419-3.236
			c0.423,0.482,0.23,1.625,0.645,2.782c0.525,1.465,1.417,1.749,2.384,2.455c1.47,1.072,2.002,3.067,0.963,4.448
			C15.054,47.021,11.713,48.62,9.801,48.657z"/>
		<path fill="#FEE4CD" d="M28.875,41.358c0.005,0.245,0.157,0.545,0.415,0.831c-3.348-0.362-4.84-1.532-5.226-2.803
			c-0.747-2.463,2.142-5.167,6.528-3.394c-1.32-0.785-2.329-1.577-3.068-2.369c-2.177-2.33-1.963-4.672-0.839-5.772
			c0.871-0.85,2.546-1.276,4.479-0.59c-0.831-0.776-1.201-2.246,0.001-2.048c3.296,0.805,6.057,3.638,6.667,7.054
			c-0.113,0.073-0.218,0.152-0.315,0.236c-0.022-1.394-1.595-3.959-2.453-3.498c-0.802,0.432,0.84,3.595,1.875,4.204
			c-0.235,0.419-0.337,0.876-0.279,1.295c0.434-1.66,1.504-2.343,2.773-2.375c-0.277,0.934-0.364,1.992-0.204,2.523
			c0.207,0.69,1.276,1.091,1.884,0.872c0.357-0.129,0.694-0.386,0.982-0.722c0.002,1.15-0.665,2.531-1.878,3.674
			c-0.401-0.104-0.896-0.062-1.467,0.181c-0.83,0.354-1.763,1.086-2.775,1.87c-2.45,0.069-4.95-1.002-6.025-2.153
			c0.354-0.096,0.71-0.142,1.029-0.103c-0.937-0.566-2.855,0.379-2.994,1.192c0.113-0.177,0.509-0.47,1.014-0.721
			c0.493,1.048,0.827,3.605,3.223,3.605c1.257,0,2.085-1.059,2.814-1.579c0.206,0.009,0.413,0.01,0.622,0.003
			c-0.685,0.526-1.403,1.062-2.15,1.511c-0.279,0.167-0.554,0.322-0.823,0.468C31.798,42.962,30.002,42.971,28.875,41.358z"/>
		<path fill="#FDB927" d="M68.973,62.078c-1.428,3.273-5.614,3.338-7.938,0.338c-1.194-1.541-1.682-3.271-2.583-4.548
			c-0.618-0.876-1.094-1.193-1.829-2.098c0.259,0.062,0.528,0.071,0.795,0.014c1.202-0.259,1.901-1.744,1.562-3.316
			c-0.271-1.255-1.119-2.185-2.062-2.378c2.332-1.347,6.56-0.246,9.429,2.583C69.313,55.599,70.284,59.067,68.973,62.078z"/>
		<path fill="#FFFFFF" d="M44.645,50.833c-0.175,0.462-1.051,0.562-1.938,0.227c-0.885-0.336-1.451-1.045-1.276-1.508
			s1.034-0.566,1.921-0.232C44.238,49.655,44.82,50.371,44.645,50.833z"/>
		<path d="M10.055,45.109c0.454-1.077,2.348-2.55,4.584-2.376C12.575,42.114,10.109,43.955,10.055,45.109z"/>
		<path d="M53.303,49.533c-1.022,1.411-3.195,1.302-4.441-0.819c0.173-0.251,0.38-0.505,0.614-0.754
			c0.709-0.749,1.459-1.179,2.001-1.354c0.25,0.416,0.694,1.022,1.171,0.957c-0.165-0.062-0.329-0.203-0.477-0.37
			c0.295-0.327,0.306-0.583,0.242-0.737c-0.131-1.891-0.567-3.36-1.133-4.454c0.456,0.036,1.129,0.187,1.419,0.407
			C53.303,43.668,54.566,47.787,53.303,49.533z"/>
		<path fill="#BF2F38" d="M48.459,50.581c-0.296-0.321-0.17-0.927,0.228-1.593c0.444,0.724,1.011,1.203,1.611,1.466
			C49.453,50.731,48.71,50.853,48.459,50.581z"/>
		<path fill="#BF2F38" d="M52.029,47.019c-0.127-0.171-0.23-0.347-0.293-0.479c0.191-0.038,0.341-0.034,0.428,0.008
			C52.301,46.613,52.271,46.798,52.029,47.019z"/>
		<path fill="#FDB927" d="M52.888,42.289c-0.339-0.34-1.182-0.614-1.753-0.557c-0.178-0.313-0.365-0.589-0.56-0.835
			c0.578-0.37,1.724-0.187,2.374,0.292c1.008,0.744,0.963,1.748,0.411,2.188C53.199,42.94,53.034,42.565,52.888,42.289z"/>
		<path fill="#FDB927" d="M59.445,39.665c2.455,2.154,3.472,5.801,1.478,7.796c-1.359,1.357-3.795,1.718-6.771-0.365
			c-0.025-0.633-0.125-1.292-0.265-1.923c0.783-0.734,1.98-2.439,1.876-3.28c-0.166,0.792-1.345,2.339-1.954,2.947
			c-0.111-0.444-0.239-0.868-0.374-1.252c0.723-0.415,0.875-1.777-0.349-2.626c-1.081-0.749-2.158-0.598-2.658-0.244
			c-0.197-0.229-0.4-0.427-0.601-0.592c1.049-1.391,2.796-2.438,4.524-3.109C56.087,37.439,57.968,38.368,59.445,39.665z"/>
		<path fill="#FDB927" d="M50.309,37.138c0.889-0.399,2.099-0.465,3.411-0.236c-1.637,0.671-3.139,1.554-4.244,2.938
			c-0.227-0.153-0.831-0.374-1.146-0.453C48.763,38.226,49.46,37.521,50.309,37.138z"/>
		<path d="M18.712,39.46c-2.078,0.608-4.431-1.18-5.255-3.992c-0.824-2.814,0.193-5.588,2.271-6.197
			c1.969-0.576,4.183,0.999,5.111,3.559c-0.095,1.186,0.034,2.354,0.346,3.404C20.919,37.817,20.03,39.074,18.712,39.46z"/>
		<path d="M21.153,32.98c0.194-3.242,2.037-5.802,4.503-7.093c1.313-0.687,3.261-0.935,4.77-0.802
			c-0.444,0.253-0.342,1.141,0.208,1.808c-1.604-0.547-3.245-0.165-4.164,0.749c-1.206,1.197-1.538,3.771,0.911,6.241
			c0.507,0.512,1.114,1,1.813,1.451c-3.838-0.939-6.183,1.731-5.507,4.11c0.007,0.025,0.017,0.053,0.025,0.078
			C21.982,38.104,20.999,35.586,21.153,32.98z"/>
		<path fill="#FFFFFF" d="M16.064,46.09c0.003-0.005,0.008-0.01,0.012-0.014c1.144-1.483,0.541-3.615-0.835-4.717
			c1.15-0.377,1.96,0.396,2.367,1.534C18.195,44.534,17.291,46.367,16.064,46.09z"/>
		<path d="M17.954,45.006c0.221-0.624,0.24-1.412-0.076-2.239c-0.09-0.241-0.2-0.46-0.324-0.654c2.174-0.03,4.826-0.699,6.803-1.538
			c0.639,0.68,1.643,1.218,2.847,1.523C24.363,43.603,20.024,44.729,17.954,45.006z"/>
		<path fill="#FFFFFF" d="M37.025,33.068c-0.641-0.463-2.12-2.903-1.977-3.806c-0.048,0.443,1.188,1.441,1.338,0.911
			c0.487,0.799,0.914,1.828,0.987,2.464C37.24,32.771,37.123,32.916,37.025,33.068z"/>
		<path fill="#F79C85" d="M31.479,41.142c0.003-0.204-0.05-0.413-0.144-0.621c0.836-0.105,1.892,0.374,2.064,1.193
			c-0.356,0.218-0.746,0.374-1.191,0.374c-1.83-0.004-2.316-1.739-2.808-2.904C30.247,39.47,31.223,40.382,31.479,41.142z"/>
		<path fill="#B22C1B" d="M33.578,41.597c-0.181-0.859-1.286-1.537-2.334-1.255c-0.392-0.684-1.208-1.296-1.956-1.41
			c-0.043-0.094-0.087-0.182-0.134-0.263l0,0c0.184-0.084,0.379-0.162,0.578-0.228c1.054,1.205,2.835,2.125,4.928,2.306
			C34.315,41.005,33.965,41.33,33.578,41.597z"/>
		<path fill="#FFFFFF" d="M28.744,46.183c-0.456,0.083-0.936,0.183-1.409,0.229c-1.059-1.116-2.369-1.457-3.589-1.229
			C24.687,43.627,28.087,43.88,28.744,46.183z"/>
		<path fill="#FFFFFF" d="M30.802,48.235c-0.806,0.957-3.485,1.487-4.859,1.053c0.132,0.12,0.333,0.214,0.578,0.283
			c-0.883,1.34-2.581,2.809-4.219,3.795c-2.303,1.387-4.889,1.86-5.224,0.754c-0.257-0.849,1.719-2.313,3.83-3.117
			c-1.329-0.086-4.508,1.884-4.036,3.243c0.008,0.022,0.018,0.043,0.027,0.065c-1.292,0.522-2.552,0.364-2.864-0.348
			c-0.575-1.318,1.772-2.625,4.177-3.444c-0.797-0.149-4.728,1.254-4.522,3.142c-0.616-0.644-0.453-1.581,0.313-2.364
			c0.733-0.752,1.981-1.452,3.488-1.951c-0.199-0.011-0.432,0.013-0.682,0.064c0.853-1.309,3.073-3.867,5.725-3.8
			c-1.086,0.574-1.976,1.612-2.354,2.922c2.793-4.709,5.912-2.844,6.896-2.1c-0.306,0.017-0.606,0.008-0.892-0.054
			c0.889,0.675,2.989-0.221,4.111,0.078C31.285,46.722,31.308,47.632,30.802,48.235z"/>
		<path d="M38.148,43.25c0.684-0.068,1.616-0.711,1.777-1.081c-0.341,0.327-0.983,0.621-1.441,0.798
			c0.578-0.503,0.977-0.947,1.093-1.269c-1.522,1.594-6.091,4.413-8.292,5.251c-0.145-0.369-0.452-0.684-0.97-0.828
			c-0.361-0.1-0.803-0.064-1.283,0.012c-0.103-0.539-0.383-0.994-0.769-1.353c0.897-0.206,3.212-0.926,5.367-2.209
			c1.566-0.932,3.714-2.97,5.199-3.673c1.314-0.621,2.641-0.011,2.44,2.322c0.172-0.535,0.192-1.061,0.082-1.51
			c0.486,0.135,0.993,0.185,1.508,0.185c1.045,3.53-1.969,7.848-6.778,7.477c-0.64-0.456-1.267-0.954-1.879-1.492
			C35.651,45.062,37.11,44.095,38.148,43.25z"/>
		<path fill="#EF3E42" d="M50.281,53.886c-0.297-0.082-2.708-2.101-3.407-2.702c0.521-0.048,0.976-0.135,1.205-0.276
			c-1.008,0.101-2.156,0.043-3.168-0.055c0.169-0.593-0.474-1.356-1.475-1.734c-1.032-0.39-2.052-0.222-2.278,0.377
			c-0.063,0.17-0.055,0.355,0.011,0.543c-1.596-0.55-3.187-1.359-4.718-2.407c4.319,0.292,7.829-3.704,6.605-7.737
			c2.062-0.05,4.255-0.804,5.985,0.126c1.403,0.757,2.743,2.893,3.159,6.251c-0.488-0.128-1.803,0.286-3.018,1.569
			c-0.747,0.787-1.212,1.671-1.17,2.324c-1.164-1.523-1.609-5.437-1.226-7.323c-0.147,0.371-0.248,0.809-0.309,1.285
			c-0.12-0.371-0.273-0.946-0.209-1.304c-0.259,0.39-0.185,1.442,0.167,1.715c-0.011,0.128-0.02,0.256-0.023,0.388
			c-0.92-0.305-1.978-0.24-2.222,0.465c-0.423,1.215,1.308,2.5,2.557,2.62c0.315,1.24,0.841,2.299,1.535,2.763
			c0.439,0.354,1.46,0.19,2.388-0.184c0.32,0.093,0.645,0.126,0.96,0.104C51.473,52.112,50.769,53.325,50.281,53.886z"/>
		<path fill="#FFFFFF" d="M46.441,46.121c-0.258-0.193-0.678-0.36-0.705-0.263c-0.028,0.096,0.462,0.411,0.729,0.534
			c0.011,0.107,0.022,0.214,0.036,0.32c-0.304-0.191-0.93-0.617-0.992-0.493c-0.062,0.125,0.699,0.642,1.026,0.727
			c0.015,0.104,0.031,0.208,0.051,0.312c-0.877-0.171-1.771-0.984-1.597-1.461c0.168-0.458,0.905-0.324,1.425-0.155
			C46.421,45.802,46.428,45.961,46.441,46.121z"/>
		<path fill="#FFFFFF" d="M46.41,45.501c-0.615-0.244-1.444-0.299-1.617,0.222c-0.223,0.676,0.769,1.588,1.837,1.771
			c0.014,0.062,0.026,0.126,0.039,0.188c-1.156-0.187-2.533-1.323-2.21-2.217c0.182-0.505,1.06-0.621,1.949-0.329
			C46.408,45.256,46.407,45.379,46.41,45.501z"/>
		<path d="M51.963,50.651c0.519-0.101,0.998-0.35,1.377-0.734c1.556,0.466,3.034,1.024,3.518,1.259
			c0.254,0.751,0.331,2.048-0.127,3.156c-0.634-0.165-3.572-1.14-5.267-1.768C51.718,52.011,51.912,51.355,51.963,50.651z"/>
		<path fill="#FDB927" d="M55.108,54.119c0.694,0.217,1.263,0.379,1.529,0.418c-0.059,0.119-0.124,0.239-0.197,0.354
			c0.56-0.256,0.902-1.213,0.946-2.173c0.043-0.988-0.275-2.068-0.946-2.154c0.095,0.029,0.188,0.128,0.271,0.278
			c-0.235-0.12-0.522-0.247-0.836-0.375c0.096-0.045,0.197-0.081,0.304-0.104c1.041-0.225,2.137,0.752,2.444,2.181
			c0.31,1.429-0.285,2.769-1.327,2.994C56.452,55.721,55.574,55.114,55.108,54.119z"/>
		<path d="M59.577,57.699c0.432-1.432,2.517-4.033,2.896-4.239C61.215,53.977,59.284,57.2,59.577,57.699z"/>
		<ellipse transform="matrix(0.9356 0.3531 -0.3531 0.9356 20.5149 -11.933)" cx="42.969" cy="50.27" rx="1.387" ry="0.594"/>
		
			<ellipse transform="matrix(0.9356 0.3531 -0.3531 0.9356 20.5088 -11.9408)" fill="#FFFFFF" cx="42.98" cy="50.238" rx="1.18" ry="0.395"/>
		<path d="M39.47,34.609c-0.233-0.695,0.161-2.91,0.845-3.704c0.61-0.708,1.823-0.478,2.236,0.624
			c0.566,1.5-0.511,3.417-1.533,3.789C40.604,35.469,39.629,35.076,39.47,34.609z"/>
		<path d="M35.501,31.877c0.945,1.279,1.41,2.682,0.736,3.18c-0.545,0.403-1.71-0.115-2.852-1.659
			c-0.991-1.34-1.367-2.693-0.804-3.109C33.145,29.872,34.51,30.537,35.501,31.877z"/>
		<path fill="#FFFFFF" d="M34.826,31.471c-0.142,1.103-2.359-0.259-2.249-0.846c-0.222,0.618,0.359,1.753,1.01,2.635
			c0.934,1.262,2.087,2.006,2.533,1.678C36.691,34.513,36.212,32.98,34.826,31.471z"/>
		<path d="M42.483,49.898c-0.038,0.077,1.034,0.536,1.081,0.456C43.611,50.275,42.538,49.793,42.483,49.898z"/>
		<path d="M42.405,50.183c-0.039,0.077,1.032,0.536,1.079,0.458C43.53,50.561,42.459,50.077,42.405,50.183z"/>
		<path fill="#FFFFFF" d="M38.419,43.186c0.652-0.571,1.131-1.116,1.198-1.508c-0.703,1.333-4.523,3.752-5.656,4.352
			c0.344,0.025,2.665-1.345,4.229-2.648c0.642-0.021,1.622-0.718,1.704-1.132C39.619,42.637,38.869,43.023,38.419,43.186z"/>
		<path fill="#FFFFFF" d="M41.304,39.516c0.156,0.367,0.172,1.247-0.085,1.876C41.6,41.068,41.652,39.901,41.304,39.516z"/>
		<path fill="#FFFFFF" d="M52.043,47.037c0.151,0.177,0.43,0.488,0.674,0.59C52.666,47.458,52.229,47.002,52.043,47.037z"/>
		<path fill="#FFFFFF" d="M51.68,50.697c0.499-0.066,1.248-0.27,1.856-1.021C53.511,50.107,52.431,50.899,51.68,50.697z"/>
		<path fill="#AE6219" d="M58.339,11.228c0.027,0.226,0.025,0.475-0.002,0.738c-0.144,0.303-0.304,0.599-0.479,0.887
			c-0.285-1.742-1.427-3.535-2.478-4.442c0.869,0.375,1.579,0.83,2.077,1.29C57.959,10.161,58.289,10.818,58.339,11.228z"/>
		<path fill="#AE6219" d="M58.193,12.726c-0.068,0.264-0.159,0.537-0.271,0.818c-0.002-0.106-0.006-0.212-0.016-0.32
			C58.007,13.062,58.104,12.895,58.193,12.726z"/>
		<path fill="#FFFFFF" d="M54.773,8.168c1.765,1.42,2.863,3.726,2.964,5.813c-0.318,0.691-0.753,1.411-1.29,2.112
			c0.679-3.585-1.352-6.999-3.78-8.458C53.431,7.755,54.137,7.939,54.773,8.168z"/>
		<path fill="#AE6219" d="M44.457,15.448c-0.467-0.994-1.104-1.767-1.744-2.277c0.387-0.371,0.813-0.741,1.273-1.102
			c0.122,0.137,0.276,0.228,0.361,0.206c0.155-0.04,0.471-0.289,0.692-0.427c0.059,0.09,0.119,0.156,0.199,0.174
			c0.229,0.049,0.682-0.132,0.663-0.47c-0.002-0.054-0.021-0.122-0.048-0.197c0.131-0.077,0.263-0.155,0.397-0.231
			c0.069,0.11,0.14,0.191,0.228,0.21c0.301,0.064,0.718-0.144,0.698-0.457c-0.004-0.056-0.032-0.134-0.074-0.224
			c0.119-0.063,0.238-0.126,0.358-0.188c0.085,0.12,0.16,0.209,0.219,0.229c0.239,0.083,0.654-0.162,0.659-0.394
			c0-0.055-0.026-0.139-0.071-0.236c0.148-0.071,0.298-0.141,0.445-0.207c0.076,0.13,0.144,0.227,0.209,0.252
			c0.271,0.105,0.63-0.12,0.671-0.391c0.007-0.042-0.018-0.119-0.058-0.213c0.103-0.042,0.202-0.081,0.301-0.119
			c0.11,0.153,0.207,0.27,0.265,0.28c0.212,0.039,0.479-0.16,0.498-0.306c0.007-0.054-0.008-0.126-0.039-0.211
			c0.158-0.045,0.324-0.084,0.38-0.199c0.023-0.051,0.031-0.119,0.025-0.193c0.812-0.184,1.603-0.302,2.355-0.359
			c1.673,1.444,2.982,3.829,3.005,6.413c-0.573,0.582-1.207,1.106-1.886,1.558c-2.686,1.791-6.33,2.868-9.367,2.795
			C45.257,17.94,44.934,16.466,44.457,15.448z"/>
		<path fill="#FFFFFF" d="M44.035,20.702c-0.594-0.125-1.182-0.315-1.727-0.554c1.359-0.526,1.004-2.804,0.464-4.096
			c-0.572-1.374-1.572-2.203-2.595-2.138c0.216-0.403,0.472-0.813,0.763-1.213c1.096,0.065,2.396,1.194,3.213,2.94
			C44.881,17.195,45.237,19.472,44.035,20.702z"/>
		<path fill="#AE6219" d="M40.012,17.314c-0.057-0.516,0.436-1.542,1.38-2.714c0.426,0.333,0.821,0.85,1.12,1.566
			c0.348,0.831,0.576,1.911,0.421,2.721C41.093,18.433,40.042,17.579,40.012,17.314z"/>
		<path fill="#FFFFFF" d="M44.769,11.397c0.053,0.074,0.098,0.151,0.138,0.225c-0.205,0.143-0.449,0.347-0.566,0.388
			c-0.139,0.047-0.32-0.34-0.281-0.435c0.037-0.088,0.289-0.278,0.513-0.435C44.636,11.22,44.703,11.307,44.769,11.397z"/>
		<path fill="#FFFFFF" d="M45.977,10.67c0.054,0.076,0.101,0.154,0.145,0.23c-0.125,0.073-0.251,0.146-0.376,0.219
			c-0.091-0.167-0.212-0.346-0.341-0.497c0.122-0.075,0.247-0.148,0.373-0.221C45.839,10.484,45.906,10.573,45.977,10.67z"/>
		<path fill="#FFFFFF" d="M47.143,10.011c0.061,0.079,0.115,0.16,0.17,0.238c-0.112,0.058-0.224,0.117-0.335,0.176
			c-0.1-0.164-0.229-0.339-0.358-0.491c0.108-0.058,0.219-0.114,0.329-0.17C47.011,9.842,47.078,9.923,47.143,10.011z"/>
		<path fill="#FFFFFF" d="M48.445,9.414c0.05,0.072,0.096,0.146,0.137,0.218c-0.146,0.066-0.292,0.134-0.438,0.204
			c-0.097-0.158-0.22-0.329-0.346-0.477c0.15-0.067,0.3-0.132,0.448-0.194C48.315,9.243,48.387,9.326,48.445,9.414z"/>
		<path fill="#FFFFFF" d="M49.576,9.012c0.037,0.052,0.073,0.103,0.109,0.155c-0.087,0.035-0.177,0.069-0.266,0.105
			c-0.084-0.145-0.187-0.302-0.301-0.443C49.206,8.8,49.293,8.77,49.38,8.743C49.441,8.825,49.509,8.915,49.576,9.012z"/>
		<path fill="#FFFFFF" d="M50.657,8.817c-0.073,0.034-0.152,0.058-0.219,0.078c-0.076-0.133-0.172-0.272-0.274-0.396
			c0.16-0.039,0.325-0.071,0.386-0.079C50.624,8.41,50.793,8.756,50.657,8.817z"/>
		<path fill="#AE6219" d="M46.282,8.374c1.88-0.831,3.95-1.024,5.84-0.812c0.309,0.167,0.612,0.368,0.907,0.597
			c-0.678,0.048-1.393,0.149-2.14,0.316c-0.062-0.128-0.154-0.235-0.269-0.271c-0.117-0.037-0.456,0.045-0.639,0.096
			c-0.09-0.088-0.178-0.156-0.252-0.184c-0.262-0.102-0.522,0.029-0.573,0.212c-0.013,0.044,0.012,0.109,0.062,0.189
			c-0.098,0.032-0.195,0.065-0.292,0.1c-0.105-0.102-0.211-0.178-0.304-0.204c-0.336-0.091-0.61,0.16-0.638,0.295
			c-0.017,0.076,0.021,0.157,0.082,0.243c-0.153,0.067-0.308,0.134-0.462,0.205c-0.103-0.099-0.203-0.169-0.282-0.19
			c-0.256-0.068-0.548,0.114-0.616,0.371c-0.014,0.056,0.021,0.13,0.08,0.217c-0.118,0.062-0.234,0.123-0.351,0.185
			c-0.112-0.107-0.217-0.184-0.294-0.2c-0.29-0.062-0.644,0.198-0.622,0.427c0.006,0.062,0.046,0.139,0.108,0.229
			c-0.137,0.08-0.271,0.16-0.403,0.242c-0.104-0.095-0.208-0.162-0.296-0.178c-0.361-0.064-0.614,0.216-0.639,0.418
			c-0.008,0.062,0.048,0.155,0.132,0.269c-0.195,0.134-0.513,0.345-0.599,0.585c-0.034,0.091-0.026,0.187,0.005,0.279
			c-0.501,0.388-0.954,0.783-1.365,1.177c-0.486-0.336-0.961-0.515-1.348-0.519c0.071-0.093,0.146-0.186,0.222-0.277
			C42.64,10.613,44.442,9.186,46.282,8.374z"/>
		<path fill="#AE6219" d="M40.054,14.155c0.354-0.031,0.728,0.059,1.09,0.275c-0.919,1.164-1.387,2.189-1.393,2.786
			C39.19,16.763,39.378,15.517,40.054,14.155z"/>
		<path fill="#AE6219" d="M39.559,17.351c0.084,0.087,0.187,0.158,0.3,0.211c0.318,0.43,1.391,1.18,3.003,1.595
			c-0.141,0.421-0.416,0.734-0.875,0.842C40.646,19.344,39.629,18.387,39.559,17.351z"/>
		<path fill="#AE6219" d="M54.837,17.832c-0.712,0.639-1.519,1.216-2.408,1.682c-2.586,1.354-5.61,1.698-8.1,1.244
			c0.352-0.336,0.571-0.79,0.688-1.302c2.944,0.101,6.623-0.839,9.551-2.814c0.625-0.421,1.214-0.9,1.751-1.431
			c-0.019,0.412-0.069,0.826-0.158,1.242C55.767,16.931,55.323,17.396,54.837,17.832z"/>
		<path fill="#FFFFFF" d="M44.521,10.687c-0.014,0.049,0.216,0.298,0.396,0.562c0.177,0.264,0.302,0.542,0.354,0.567
			c0.106,0.048,0.418-0.084,0.43-0.256c0.014-0.21-0.531-1.019-0.777-1.096C44.79,10.422,44.552,10.571,44.521,10.687z"/>
		<path fill="#FFFFFF" d="M45.728,9.965c-0.002,0.08,0.253,0.321,0.435,0.59c0.184,0.272,0.299,0.574,0.36,0.607
			c0.121,0.064,0.454-0.103,0.442-0.261c-0.02-0.28-0.655-1.093-0.855-1.151C45.939,9.701,45.731,9.824,45.728,9.965z"/>
		<path fill="#FFFFFF" d="M46.909,9.33c-0.018,0.061,0.233,0.314,0.429,0.587c0.196,0.275,0.335,0.572,0.407,0.597
			c0.144,0.05,0.406-0.119,0.414-0.214c0.008-0.095-0.666-1.104-0.863-1.152C47.102,9.099,46.942,9.207,46.909,9.33z"/>
		<path fill="#FFFFFF" d="M48.206,8.729c-0.018,0.084,0.233,0.308,0.417,0.58c0.185,0.273,0.343,0.583,0.425,0.608
			c0.164,0.047,0.331-0.07,0.345-0.198c0.015-0.122-0.577-1.074-0.814-1.135C48.433,8.546,48.227,8.631,48.206,8.729z"/>
		<path fill="#FFFFFF" d="M49.363,8.385c-0.013,0.057,0.202,0.257,0.381,0.514c0.187,0.269,0.333,0.559,0.386,0.573
			c0.103,0.028,0.243-0.013,0.268-0.103c0.057-0.202-0.542-1.011-0.729-1.08C49.495,8.226,49.385,8.285,49.363,8.385z"/>
	</g>
</g>
</svg>
