<?xml version="1.0" encoding="utf-8"?>
<!-- Generator: Adobe Illustrator 16.0.4, SVG Export Plug-In . SVG Version: 6.00 Build 0)  -->
<!DOCTYPE svg PUBLIC "-//W3C//DTD SVG 1.1//EN" "http://www.w3.org/Graphics/SVG/1.1/DTD/svg11.dtd">
<svg version="1.1" id="Layer_1" xmlns="http://www.w3.org/2000/svg" xmlns:xlink="http://www.w3.org/1999/xlink" x="0px" y="0px"
	 width="72px" height="72px" viewBox="0 0 72 72" enable-background="new 0 0 72 72" xml:space="preserve">
<g>
	<path fill="#231F20" d="M26.93,6.727c-0.055-0.377-0.43-1.193-1.051-1.746c-1.122-0.997-3.038-1.822-5.21-2.127
		c-2.015-0.282-4.25-0.116-6.272,0.779c-1.954,0.863-3.821,2.361-5.153,4.014c-1.732,2.148-2.255,4.165-1.716,5.119
		c-0.294,1.67,2.307,3.436,4.703,3.946c2.591,0.553,5.854,0.232,8.675-1.249C24.914,13.359,27.258,8.975,26.93,6.727z"/>
	<path fill="#AE6219" d="M26.701,6.815c0.029,0.229,0.026,0.48-0.002,0.748c-0.145,0.306-0.307,0.605-0.484,0.896
		c-0.287-1.761-1.443-3.575-2.504-4.493c0.879,0.381,1.595,0.841,2.101,1.305C26.317,5.737,26.651,6.402,26.701,6.815z"/>
	<path fill="#AE6219" d="M26.554,8.332c-0.07,0.266-0.161,0.542-0.273,0.826c-0.003-0.107-0.008-0.214-0.018-0.323
		C26.365,8.669,26.462,8.502,26.554,8.332z"/>
	<path fill="#FFFFFF" d="M23.095,3.722c1.784,1.436,2.895,3.769,2.997,5.879c-0.321,0.698-0.76,1.426-1.304,2.135
		c0.686-3.625-1.368-7.076-3.823-8.553C21.736,3.304,22.451,3.491,23.095,3.722z"/>
	<path fill="#AE6219" d="M12.661,11.083c-0.47-1.004-1.116-1.786-1.763-2.302c0.392-0.375,0.822-0.749,1.288-1.115
		c0.125,0.14,0.279,0.231,0.365,0.208c0.157-0.041,0.476-0.292,0.7-0.432c0.06,0.091,0.123,0.158,0.203,0.176
		c0.231,0.05,0.688-0.133,0.67-0.476c-0.003-0.054-0.021-0.123-0.05-0.199c0.134-0.079,0.268-0.157,0.403-0.234
		c0.07,0.111,0.141,0.194,0.229,0.212c0.304,0.066,0.726-0.145,0.706-0.461c-0.003-0.057-0.031-0.136-0.074-0.227
		c0.121-0.063,0.242-0.127,0.362-0.19c0.087,0.122,0.163,0.212,0.222,0.233c0.243,0.084,0.661-0.165,0.666-0.399
		c0-0.055-0.026-0.14-0.073-0.238c0.151-0.073,0.301-0.142,0.45-0.21c0.078,0.131,0.146,0.229,0.212,0.255
		c0.273,0.106,0.637-0.121,0.678-0.396c0.007-0.042-0.016-0.12-0.057-0.216c0.102-0.042,0.204-0.082,0.304-0.121
		c0.111,0.155,0.207,0.272,0.267,0.284c0.214,0.039,0.485-0.163,0.504-0.31c0.006-0.054-0.009-0.128-0.04-0.213
		c0.159-0.046,0.328-0.086,0.383-0.202c0.024-0.051,0.033-0.12,0.027-0.196c0.82-0.186,1.621-0.305,2.381-0.362
		c1.692,1.46,3.018,3.873,3.04,6.484c-0.58,0.589-1.221,1.119-1.907,1.576c-2.716,1.811-6.402,2.9-9.474,2.826
		C13.47,13.604,13.143,12.112,12.661,11.083z"/>
	<path fill="#FFFFFF" d="M12.236,16.397c-0.6-0.127-1.195-0.319-1.748-0.561c1.375-0.533,1.016-2.836,0.47-4.143
		c-0.58-1.389-1.591-2.228-2.625-2.162c0.219-0.408,0.478-0.823,0.772-1.227c1.107,0.065,2.422,1.207,3.248,2.972
		C13.091,12.85,13.451,15.153,12.236,16.397z"/>
	<path fill="#AE6219" d="M8.167,12.971c-0.058-0.522,0.439-1.56,1.396-2.745c0.431,0.335,0.83,0.859,1.133,1.583
		c0.351,0.84,0.581,1.934,0.425,2.753C9.26,14.101,8.197,13.239,8.167,12.971z"/>
	<path fill="#FFFFFF" d="M12.977,6.988c0.054,0.075,0.099,0.151,0.14,0.227c-0.208,0.144-0.455,0.35-0.573,0.391
		c-0.141,0.049-0.324-0.344-0.284-0.439c0.037-0.089,0.293-0.282,0.519-0.44C12.842,6.808,12.91,6.896,12.977,6.988z"/>
	<path fill="#FFFFFF" d="M14.198,6.251c0.055,0.077,0.102,0.157,0.146,0.234c-0.128,0.073-0.254,0.146-0.381,0.221
		c-0.091-0.169-0.214-0.35-0.343-0.503c0.123-0.074,0.249-0.149,0.376-0.224C14.06,6.064,14.129,6.154,14.198,6.251z"/>
	<path fill="#FFFFFF" d="M15.379,5.585c0.059,0.08,0.117,0.162,0.171,0.242c-0.113,0.058-0.226,0.118-0.338,0.178
		c-0.103-0.166-0.232-0.342-0.364-0.497c0.111-0.058,0.222-0.115,0.334-0.172C15.245,5.414,15.313,5.498,15.379,5.585z"/>
	<path fill="#FFFFFF" d="M16.696,4.981c0.05,0.073,0.096,0.148,0.138,0.22c-0.147,0.067-0.295,0.136-0.444,0.208
		c-0.098-0.161-0.221-0.333-0.35-0.484c0.15-0.067,0.302-0.133,0.453-0.196C16.563,4.809,16.636,4.893,16.696,4.981z"/>
	<path fill="#FFFFFF" d="M17.84,4.574c0.037,0.052,0.073,0.105,0.109,0.158c-0.089,0.034-0.178,0.07-0.269,0.106
		c-0.083-0.146-0.189-0.305-0.303-0.448c0.088-0.031,0.175-0.059,0.263-0.087C17.702,4.385,17.771,4.476,17.84,4.574z"/>
	<path fill="#FFFFFF" d="M18.933,4.378c-0.076,0.035-0.154,0.059-0.223,0.079c-0.077-0.135-0.173-0.276-0.276-0.402
		c0.162-0.039,0.328-0.071,0.39-0.079C18.897,3.966,19.07,4.316,18.933,4.378z"/>
	<path fill="#AE6219" d="M14.508,3.928c1.901-0.838,3.996-1.034,5.906-0.82c0.312,0.17,0.62,0.372,0.918,0.605
		c-0.687,0.047-1.409,0.15-2.165,0.318c-0.062-0.128-0.156-0.238-0.27-0.273c-0.12-0.037-0.463,0.045-0.647,0.096
		c-0.092-0.089-0.18-0.157-0.254-0.186c-0.265-0.103-0.528,0.03-0.581,0.215c-0.013,0.045,0.014,0.11,0.062,0.19
		c-0.098,0.032-0.196,0.066-0.295,0.101c-0.107-0.103-0.213-0.18-0.308-0.206c-0.339-0.092-0.615,0.162-0.645,0.299
		c-0.017,0.076,0.021,0.159,0.085,0.247c-0.156,0.065-0.312,0.135-0.468,0.206c-0.106-0.099-0.206-0.17-0.287-0.191
		c-0.259-0.069-0.553,0.116-0.622,0.375c-0.015,0.056,0.021,0.131,0.081,0.22c-0.12,0.062-0.238,0.123-0.355,0.187
		c-0.115-0.11-0.22-0.187-0.298-0.204c-0.293-0.063-0.65,0.2-0.628,0.433c0.005,0.062,0.047,0.139,0.108,0.23
		c-0.137,0.081-0.273,0.162-0.407,0.244c-0.105-0.096-0.21-0.163-0.3-0.179c-0.365-0.065-0.621,0.219-0.646,0.423
		c-0.007,0.062,0.049,0.155,0.133,0.271c-0.198,0.135-0.518,0.35-0.606,0.592c-0.033,0.092-0.025,0.189,0.005,0.282
		c-0.506,0.392-0.966,0.792-1.38,1.189c-0.492-0.339-0.972-0.52-1.363-0.524c0.074-0.094,0.147-0.188,0.224-0.281
		C10.824,6.195,12.646,4.75,14.508,3.928z"/>
	<path fill="#AE6219" d="M8.208,9.776c0.357-0.031,0.736,0.06,1.102,0.278c-0.929,1.177-1.402,2.214-1.408,2.818
		C7.336,12.415,7.524,11.154,8.208,9.776z"/>
	<path fill="#AE6219" d="M7.707,13.008c0.087,0.087,0.188,0.159,0.304,0.213c0.323,0.434,1.406,1.193,3.037,1.613
		c-0.143,0.426-0.421,0.743-0.885,0.851C8.808,15.023,7.779,14.057,7.707,13.008z"/>
	<path fill="#AE6219" d="M20.723,15.195c-2.614,1.37-5.673,1.717-8.19,1.258c0.354-0.339,0.577-0.797,0.695-1.317
		c2.978,0.101,6.698-0.849,9.658-2.845c0.632-0.426,1.228-0.911,1.771-1.448c-0.019,0.416-0.07,0.835-0.16,1.257
		C23.514,13.291,22.236,14.403,20.723,15.195z"/>
	<path fill="#FFFFFF" d="M12.727,6.269c-0.014,0.049,0.22,0.302,0.399,0.569c0.18,0.267,0.307,0.548,0.36,0.573
		c0.107,0.049,0.422-0.085,0.434-0.259c0.014-0.213-0.537-1.03-0.786-1.108C12.999,6.001,12.759,6.152,12.727,6.269z"/>
	<path fill="#FFFFFF" d="M13.947,5.54c-0.002,0.079,0.256,0.325,0.44,0.596c0.185,0.275,0.302,0.58,0.364,0.613
		c0.122,0.066,0.459-0.104,0.447-0.263c-0.02-0.283-0.664-1.105-0.866-1.165C14.161,5.271,13.952,5.397,13.947,5.54z"/>
	<path fill="#FFFFFF" d="M15.142,4.896c-0.017,0.062,0.236,0.318,0.434,0.595c0.197,0.278,0.338,0.579,0.412,0.604
		c0.146,0.05,0.41-0.121,0.418-0.217c0.008-0.096-0.673-1.116-0.872-1.166C15.335,4.663,15.175,4.771,15.142,4.896z"/>
	<path fill="#FFFFFF" d="M16.453,4.289c-0.018,0.084,0.236,0.311,0.423,0.587c0.186,0.275,0.346,0.59,0.429,0.613
		c0.166,0.048,0.335-0.071,0.35-0.198c0.014-0.125-0.584-1.088-0.823-1.149C16.682,4.104,16.475,4.189,16.453,4.289z"/>
	<path fill="#FFFFFF" d="M17.624,3.941c-0.012,0.058,0.204,0.26,0.384,0.52c0.188,0.271,0.337,0.565,0.391,0.58
		c0.105,0.029,0.245-0.013,0.271-0.105c0.058-0.203-0.548-1.022-0.738-1.091C17.756,3.781,17.646,3.841,17.624,3.941z"/>
	<path fill="#231F20" d="M47.969,28.644c0-2.762,2.039-5,4.553-5c2.515,0,4.527,2.238,4.527,5c0,2.763-2.013,5.001-4.527,5.001
		c-1.371,0-2.522-0.565-3.357-1.618c-0.199-1.196-0.668-2.341-1.193-3.235C47.971,28.742,47.969,28.694,47.969,28.644z"/>
	<path fill="#231F20" d="M37.753,19.24c0.593-2.628,3.259-4.268,5.957-3.661c2.695,0.607,4.404,3.231,3.812,5.861
		c-0.44,1.959-2.037,3.365-3.937,3.705c-0.95-0.325-2.069-0.501-3.233-0.485C38.38,23.651,37.256,21.447,37.753,19.24z"/>
	<path fill="#231F20" d="M32.673,29.37c0.397-0.831,0.85-1.344,1.521-2.027c2.846-2.893,7.504-2.953,10.177-1.597
		c2.299,1.165,4.096,3.487,4.479,6.519c0.186,1.475-0.062,3.007-0.633,4.349c0.003-0.029,0.009-0.059,0.014-0.089
		c0.382-2.892-2.109-4.932-5.221-3.652c-1.075,0.441-2.159,1.233-3.112,2.381c0.615-1.473,1.114-4.727,0.805-6.931
		c-0.438-3.108-3.065-3.829-5.648-1.523c-0.879,0.784-1.74,2.215-1.995,3.051C33.008,29.686,32.861,29.304,32.673,29.37z"/>
	<path fill="#231F20" d="M68.999,48.532c-0.78-0.666-2.83-0.605-4.078-0.902c-1.031-0.244-1.677-0.628-2.121-1.139
		c2.032,0.267,3.813-0.153,4.728-1.187c0.757-0.854,0.517-1.996-0.107-2.362c-0.876-0.514-2.084-0.003-3.164,0.104
		c-0.729,0.073-2.032-0.072-2.695-0.221c-0.722-0.518-1.749-0.882-2.782-0.893c-0.582-0.008-1.193,0.118-1.701,0.301
		c-0.191-0.715-1.014-0.842-1.926-0.521c-2.276-1.588-5.301-2.392-8.297-2.365c0.492-0.451,0.957-1.238,1.197-1.871
		c0.909-1.537,1.328-3.174,1.148-4.973c0.87,0.912,2.009,1.472,3.309,1.472c2.669,0,4.832-2.366,4.832-5.284
		c0-2.918-2.163-5.285-4.832-5.285c-2.561,0-4.656,2.177-4.821,4.93c-0.861-1.276-2.002-2.213-3.217-2.826
		c-0.129-0.065-0.264-0.125-0.403-0.184c1.823-0.476,3.358-1.885,3.788-3.799c0.623-2.766-1.243-5.53-4.103-6.174
		c-2.858-0.644-5.722,1.076-6.343,3.842c-0.49,2.17,0.612,4.327,2.453,5.472c-2.075,0.134-4.38,0.898-5.97,2.514
		c-2.059,2.095-2.744,4.876-2.177,7.663c-0.338-0.119-0.732-0.142-1.065-0.163c-0.259-0.997-0.888-2.115-1.615-2.213
		c-0.834-0.112-1.938,0.776-1.938,2.032c0,0.699,0.544,1.713,1.373,2.191c-0.12,0.792-0.031,1.567,0.261,2.265
		c-0.379,0.021-0.813,0.169-1.134,0.267c-0.25-0.009-0.536,0.025-0.833,0.104c-0.361,0.095-0.673,0.24-0.907,0.407
		c-0.667-0.493-1.357-0.987-2.042-1.467c-2.442-1.709-4.833-3.241-6.001-3.837c-0.868-1.916-2.408-2.287-2.981-1.606
		c-0.6-0.889-1.295-1.581-1.674-1.942c0.022-1.234-0.116-2.631-0.404-3.612c-1.107-3.773-3.568-4.898-5.152-4.842
		c-2.888,0.104-4.957,2.844-4.965,6.977c-0.006,2.75,0.912,6.333,2.854,9.248c1.743,2.614,4.342,4.644,7.365,4.392
		c2.233-0.186,3.383-2.117,3.661-3.725c0.517,0.377,1.085,0.057,1.423-0.627l0.102-0.227c0.002-0.006,0.004-0.01,0.005-0.017
		c0.632,0.378,1.652,1.109,2.698,1.943c-0.807,1.62-0.603,4.011-0.043,5.316c0.22,0.514,0.387,0.77,0.629,1.079
		c-0.724,0.232-2.86,1.3-3.533,1.87c-0.482,0.41,0.333,1.564,0.866,2.173c-1.684,1.132-2.462,2.796-2.026,3.836
		c0.724,1.722,3.183,1.629,4.839,1.195c0.267,0.558,0.796,0.932,1.374,0.976c0.762,2.805-1.357,6.343-0.36,9.206
		c1.09,3.126,5.264,3.53,8.274,0.472c2.758-2.801,3.821-7.487,1.925-11.624c-0.66-1.441-1.577-2.592-2.335-3.325
		c0.22-0.099,0.437-0.207,0.649-0.327c2.407,2.062,3.774,7.525,8.149,10.231c4.992,3.09,11.096,0.026,15.095,5.352
		c-3.5-5.509-9.761-2.385-14.973-5.571c-4.149-2.536-5.857-8.868-7.74-10.331c1.165-0.813,2.161-2.091,2.78-3.502
		c1.218-1.517,2.893-3.267,4.343-4.316c1.388,0.449,2.144,1.316,2.49,2.375c-0.853,0.448-1.26,1.061-1.316,1.648
		c-0.606,0.407-1.151,1.476-1.326,2.488c-0.364,0.235-0.73,0.394-1.114,0.466c-0.912,0.172-2.3-0.169-3.122,0.72
		c-0.42,0.453-0.618,1.344,0.228,2.195c0.898,0.906,2.604,0.971,4.03,0.146c0.312,0.842,0.987,1.655,1.694,2.056
		c0.364,1.77,0.397,3.482,1.444,4.492c1.194,1.219,2.987,0.592,2.982-0.85c0-0.712-0.699-1.573-0.732-2.718
		c-0.013-0.473,0.063-1.004,0.297-1.598c0.035-0.016,0.067-0.032,0.103-0.048c0.349,1.004,0.979,1.979,1.555,2.562
		c0.421,0.429,1.079,0.935,2.193,0.937c2.098,0.005,2.349-1.873,1.453-2.735c-0.67-0.646-2.142-1.179-2.676-2.831
		c0.147-0.204,0.274-0.408,0.368-0.608c0.672,0.409,1.873,0.906,3.033,0.665c1.655-0.346,2.244-1.758,1.845-2.489
		c-0.665-1.207-2.289-0.531-3.171-0.535c-0.699-0.004-1.336-0.357-1.64-0.569c-0.274-0.531-0.757-1.015-1.208-1.303
		c0.216-0.844-0.233-1.865-1.514-2.322c-0.379-0.967-0.968-1.938-1.659-2.679c0.203-0.068,0.399-0.152,0.584-0.249
		c2.683,0.064,6.229,0.501,8.979,1.937c-0.53,1.217-0.09,2.133,0.757,2.3c-0.014,0.065-0.024,0.131-0.033,0.195
		c-0.15,1.099,0.223,2.138,0.231,2.784c0.016,1.196-1.509,2.263-1.926,3.147c-0.584,1.244,0.805,2.568,2.798,1.502
		c1.5-0.804,2.02-2.153,1.991-3.1c0.312,0.137,0.752,0.262,1.18,0.3c0.318,0.982,0.877,2.161,1.565,3.07
		c0.799,1.052,1.871,2.017,3.249,2.045c1.187,0.022,1.839-0.855,1.839-1.576c0-1.426-1.611-1.912-2.49-3.242
		c-0.415-0.629-0.537-1.251-0.463-1.817c1.481,0.044,3.645,2.131,6.357,1.47C69.507,50.849,69.684,49.115,68.999,48.532z"/>
	<path fill="#FEE4CD" d="M29.391,36.961c0.607,0.015,1.243-0.433,1.359-1.089c0.039-0.215,0.043-0.584-0.024-0.923
		c1.021,0.089,2.474,0.828,3.283,1.798c-0.171-0.364-0.435-0.699-0.756-0.992c0.355-0.614,0.257-4.119-0.627-4.092
		c-0.749,0.023-0.677,2.256-0.206,3.499c-0.143-0.08-0.29-0.151-0.439-0.213c-0.373-1.711-0.061-4.169,0.582-5.338
		c0.201-0.215,0.401,0.314,0.49,0.655c0.295-0.916,1.287-2.472,2.157-3.286c2.219-2.072,4.713-1.784,5.192,1.409
		c0.311,2.06-0.043,5.29-0.847,7.484c0.958-1.193,2.289-2.279,3.653-2.794c3.229-1.219,5.033,1.159,4.713,3.463
		c-0.177,1.258-0.96,2.63-2.444,3.66c0.165-0.393,0.248-0.795,0.227-1.178c-0.41,1.342-1.298,2.437-2.43,3.012
		c-1.424,0.725-3.113,0.69-4.988-0.336c0.144,0.141,0.296,0.266,0.457,0.379c-0.615-0.062-1.282-0.257-1.686-0.407
		c0.486-0.12,0.965-0.261,1.431-0.441c2.017,1.145,4.237,0.88,5.349-0.556c1.183-1.525,0.537-3.711,0.808-5.678
		c0.342,0.012,0.66,0.064,0.9,0.174c-0.44-0.61-2.046-0.57-2.75,0.104c0.312-0.124,0.81-0.229,1.317-0.266
		c-0.647,3.665-5.378,6.763-9.631,6.683c-1.712-0.031-3.19-0.522-4.239-1.359c-1.07-0.854-1.69-2.069-1.545-3.525
		C28.914,36.901,29.146,36.955,29.391,36.961z"/>
	<path fill="#FDB927" d="M32.348,54.987c1.642,3.646,1.151,8.129-1.905,11.315c-2.845,2.967-6.52,2.587-7.583-0.368
		c-0.957-2.662,1.11-5.61,0.278-9.101c1.476-0.2,2.993-2.06,2.207-4.798c0.177-0.087,0.757-0.418,0.882-0.483
		c0.959,0.437,2.236,0.633,3.883,0.122C30.884,52.46,31.724,53.601,32.348,54.987z"/>
	<path fill="#FFFFFF" d="M67.409,51.021c-2.597,0.551-4.66-1.385-6.236-1.345c0.028-0.143,0.069-0.276,0.122-0.405
		c-0.517,0.375-0.567,1.608,0.072,2.569c1.009,1.519,2.453,1.895,2.462,3.059c0.004,0.659-0.463,1.336-1.524,1.301
		c-1.211-0.038-2.458-1.179-2.988-1.932c-0.577-0.818-1.269-1.985-1.62-2.872c0.242,0.004,0.46-0.029,0.611-0.114
		c-0.53-0.009-1.566-0.267-2.055-0.484c-0.035-0.21-0.101-0.389-0.188-0.522c0.301,1.792-0.999,3.089-1.972,3.604
		c-1.76,0.936-2.876-0.075-2.315-1.09c0.587-1.059,1.926-1.93,1.903-3.306c-0.013-0.665-0.301-1.523-0.15-2.671
		c0.131-1.007,0.842-2.336,1.83-2.899c-0.966,0.188-1.811,1.369-2.096,2.442c-1.224-0.316-0.822-2.019,0.279-3.174
		c1.572-1.647,3.153-1.646,3.373-0.886c-0.462,0.188-0.817,0.422-0.938,0.64c0.693-0.456,1.825-0.711,2.8-0.696
		c1.337,0.018,2.782,0.599,3.696,1.67c-0.092-0.249-0.26-0.494-0.488-0.723c0.541,0.116,1.583,0.262,2.342,0.175
		c0.903-0.103,2.223-0.629,2.957-0.227c0.661,0.361,0.604,1.401,0.026,1.966c-0.934,0.91-2.63,1.391-4.704,1.15
		c-0.078-0.114-0.152-0.231-0.222-0.355c0.032,0.517,0.575,1.529,2.42,2.024c1.487,0.397,3.36,0.237,4.05,0.8
		C69.339,49.116,69.309,50.618,67.409,51.021z"/>
	<path fill="#FFFFFF" d="M32.888,32.075c0.31,0.831,0.435,3.118,0.256,3.584c-0.153-0.13-0.318-0.251-0.491-0.36
		c-0.168-0.5-0.335-1.028-0.37-1.638C32.74,33.697,32.869,32.642,32.888,32.075z"/>
	<path fill="#B22C1B" d="M44.471,34.995c-0.161,0.792-0.138,1.68-0.157,2.547c-0.879,0.314-1.618,1.186-1.934,2.038
		c-1.313,0.265-2.103,1.322-1.928,2.043c-0.559-0.062-1.135-0.228-1.701-0.496c2.885-1.207,5.238-3.634,5.559-6.13
		C44.364,34.995,44.416,34.995,44.471,34.995z"/>
	<path fill="#F79C85" d="M40.652,41.64c-0.14-0.705,0.713-1.525,1.648-1.82c-0.076,0.272-0.104,0.538-0.078,0.775
		c0.227-0.966,1.136-2.354,2.082-2.797c-0.034,0.997-0.163,1.95-0.73,2.685C42.925,41.325,41.846,41.718,40.652,41.64z"/>
	<path fill="#E9AE11" d="M5.107,23.636c0.88-0.282,2.105,0.139,2.618,3.314c0.362,2.246,0.25,5.014,0.526,7.353
		c0.181,1.532,0.521,3.001,1.261,4.47c0.328,0.648,0.684,1.188,1.039,1.651c-1.969-0.287-3.688-1.263-4.786-2.062
		c-1.919-2.941-2.808-6.628-2.798-8.941C2.979,26.817,3.785,24.771,5.107,23.636z"/>
	<path fill="#E9AE11" d="M6.095,38.844c1.145,0.812,2.934,1.672,4.584,1.742c0.809,1.009,1.595,1.613,2.009,2.113
		C10.163,42.839,7.82,41.256,6.095,38.844z"/>
	<path fill="#FDB927" d="M16.558,39.029c0.066-0.612,0.004-1.173-0.178-1.567c0.218,2.156-0.921,4.956-3.474,5.219
		c-0.68-0.931-1.996-1.67-3.18-4.016c-0.71-1.408-1.029-2.793-1.204-4.294c-0.288-2.485-0.171-5.225-0.553-7.468
		c-0.513-3.013-1.702-3.688-2.617-3.463c0.658-0.487,1.428-0.764,2.283-0.791c1.396-0.044,3.767,1.165,4.785,4.764
		c0.483,1.708,0.606,3.633,0.492,5.351c0.133-0.443,0.208-0.982,0.236-1.559c0.815,0.825,2.636,3.508,2.985,4.844
		c0.026-0.787-0.498-1.982-1.174-3.014c0.444-0.634,1.966-0.251,2.701,1.904C18.458,37.274,17.609,40.055,16.558,39.029z"/>
	<path fill="#231F20" d="M16.917,54.586c-0.369-0.868,0.312-2.376,1.964-3.525c0.534,0.595,1.262,1.289,2.044,1.837
		c-0.229,0.3-0.802,0.834-0.981,0.956c0.285-0.018,0.812-0.332,1.176-0.822c0.278,0.149,0.733,0.34,0.984,0.347
		c0.3,0.007,1.031-0.304,1.678-0.564c0.204,0.548-0.179,1.618-0.837,2.189C21.214,55.945,17.643,56.29,16.917,54.586z"/>
	<path fill="#FDB927" d="M21.75,55.786c0.569-0.166,1.147-0.426,1.348-0.588c0.786-0.641,1.25-1.733,0.911-2.488
		c0.464-0.244,0.76-0.375,1.135-0.578C25.942,55.677,22.899,57.72,21.75,55.786z"/>
	<path fill="#231F20" d="M34.404,46.852c0.093-0.944,0.331-2.657-0.92-4.93c0.226,0.032,0.494,0.07,1.039,0.077
		c0.696,0.009,1.383-0.088,2.075-0.226c0.843,0.465,1.979,0.616,2.502,0.527c0.05,0.027,0.112,0.067,0.161,0.092
		C37.567,43.319,35.755,45.06,34.404,46.852z"/>
	<path fill="#FFFFFF" d="M49.306,55.464c0.798,0.799,0.483,2.235-1.195,2.211c-0.942-0.013-1.568-0.452-1.956-0.842
		c-0.667-0.666-1.358-1.745-1.645-2.453c0.81-0.426,1.616-1.083,2.175-1.765C47.136,54.261,48.71,54.869,49.306,55.464z"/>
	<path fill="#FFFFFF" d="M47.463,50.337c0.12-0.279,0.131-0.684-0.014-1.078c0.428,0.274,0.967,0.494,1.505,0.497
		c0.75,0.007,2.362-0.696,2.931,0.335c0.321,0.583-0.312,1.809-1.735,2.048c-1.047,0.175-2.168-0.185-2.863-0.513
		c0.098-0.254,0.142-0.497,0.113-0.72c-0.53,1.421-2.761,3.375-4.383,3.958c0.281-0.019,0.591-0.094,0.907-0.216
		c-0.238,0.579-0.321,1.098-0.312,1.562c0.026,1.288,0.744,2.042,0.744,2.641c-0.003,1.16-1.37,1.722-2.458,0.607
		c-0.973-0.992-1.027-2.891-1.383-4.121c0.216,0.086,0.43,0.128,0.633,0.117c-1.788-0.772-2.705-2.819-2.748-3.653
		c-0.085,0.348-0.054,0.731,0.057,1.118c-1.382,0.681-2.872,0.657-3.734-0.133c-0.653-0.6-0.726-1.376-0.25-1.832
		c0.73-0.699,2.073-0.388,2.988-0.591c0.338-0.075,0.752-0.28,1.014-0.476c-0.013,0.178-0.009,0.345,0.021,0.491
		c0.13-0.646,0.7-2.323,1.352-2.885c0.052,0.342,0.223,0.661,0.49,0.914c0.707,0.666,1.832,0.943,2.898,0.886
		c1.04,0.503,1.604,1.544,1.457,2.938c0.662-1.311-0.244-2.506-1.049-2.974c0.584-0.089,1.194-0.292,1.613-0.58
		c0.347-0.24,0.593-0.54,0.732-0.866C46.706,48.308,47.437,49.456,47.463,50.337z"/>
	<path fill="#FFFFFF" d="M45.063,48.436c-1.04,0.653-3.188,0.861-4.483-0.227c-0.854-0.719-0.538-1.86,0.633-2.526
		c0.007,0.022,0.013,0.046,0.02,0.068c0.164,0.65,0.09,1.356,0.164,1.589c0.073,0.232,0.796,0.471,1.341,0.47
		c1.105-0.002,1.978-0.715,2.165-1.372c-0.072-0.271-0.142-0.647-0.255-0.958C45.928,46.029,46.396,47.598,45.063,48.436z"/>
	<path fill="#231F20" d="M44.66,46.485c-0.244,0.633-1.814,1.463-3.014,0.796c0.085-2.211-0.619-3.619-2.694-4.348
		c0.206-0.139,0.429-0.312,0.612-0.414c0.95,0.376,2.034,0.403,2.994,0.151C43.293,43.439,44.193,44.803,44.66,46.485z"/>
	<path fill="#231F20" d="M43.915,42.076c0.568-0.338,1.086-0.961,1.397-1.531c0.458-0.248,0.87-0.549,1.232-0.887
		c3-0.085,6.127,0.769,8.336,2.164c-0.521,0.229-1.053,0.598-1.498,1.077c-0.355,0.384-0.617,0.756-0.802,1.107
		C49.801,42.472,46.729,42.172,43.915,42.076z"/>
	<path fill="#231F20" d="M29.014,32.662c0.812,0.117,1.642,2.45,1.529,3.128c-0.089,0.536-0.646,0.957-1.136,0.944
		c-1.132-0.025-2.021-1.5-2.021-2.246C27.386,33.402,28.289,32.558,29.014,32.662z"/>
	<path fill="#231F20" d="M18.131,38.187c0.21-0.688,0.271-1.559,0.084-2.5l-0.073-0.318c-0.047-0.186-0.104-0.374-0.173-0.56
		c-0.003-0.009-0.006-0.017-0.01-0.026c0.981,0.579,3.148,1.994,5.49,3.625c0.618,1.244,0.75,2.985,0.578,4.58
		C22.57,41.248,20.018,39.238,18.131,38.187z"/>
	<path fill="#BF2F38" d="M21.062,45.615c-0.587-1.424-0.66-3.74-0.089-5.038c1.172,0.95,2.341,2.003,3.003,2.812
		c-0.135,0.946-0.375,1.81-0.681,2.465c-0.579,1.242-1.327,1.17-1.628,0.821C21.408,46.334,21.223,46.004,21.062,45.615z"/>
	<path fill="#EF3E42" d="M22.068,53.077c-0.429-0.042-1.518-0.812-2.418-1.721c-0.983-0.993-1.917-2.175-1.662-2.456
		c0.238-0.264,2.833-1.604,3.498-1.864c0.571,0.672,1.353,1.327,1.761,1.766c0.642,0.686,1.5,2.006,2.646,2.584
		C25.893,51.386,22.795,53.078,22.068,53.077z"/>
	<path fill="#EF3E42" d="M34.09,47.287c-0.004,0.005-0.008,0.01-0.011,0.016c-0.023,0.051-0.041,0.097-0.055,0.139
		c-0.914,1.647-1.967,2.752-3.063,3.389c-1.635,0.953-3.355,0.954-4.699,0.354c-1.259-0.561-1.877-1.697-2.791-2.574
		c-0.322-0.31-0.91-0.808-1.458-1.481c1.17,0.244,2.08-1.755,2.316-3.676c0.166-1.351,0.128-3.431-0.499-4.728
		c2.837,1.987,5.877,4.192,7.267,5.792c-0.162-0.37-0.571-0.861-1.15-1.428c0.522,0.257,1.407,0.833,1.665,1.129
		c-0.177-0.36-0.471-0.677-0.835-0.923c0.45-0.26,0.746-0.698,0.706-1.102c-0.063-0.614-0.846-0.898-1.733-0.797
		c-0.394,0.046-0.947,0.233-1.213,0.43c-0.401-0.336-0.832-0.682-1.287-1.036c0.895-0.315,1.354-0.795,1.203-1.169
		c-0.051-0.125-0.16-0.223-0.311-0.289c0.178-0.049,0.466-0.125,0.681-0.17c0.259,0.533,0.639,1.018,1.145,1.423
		c0.771,0.619,1.84,1.104,3.205,1.283C34.495,44.181,34.223,46.604,34.09,47.287z"/>
	<path fill="#FFFFFF" d="M30.313,43.034c0.339-0.173,0.591-0.49,0.563-0.762c-0.042-0.398-0.602-0.549-1.22-0.478
		c-0.239,0.027-0.654,0.145-0.857,0.253c-0.043-0.035-0.087-0.072-0.13-0.109c0.236-0.169,0.753-0.34,1.106-0.38
		c0.779-0.089,1.467,0.122,1.52,0.633c0.037,0.364-0.274,0.759-0.731,0.97C30.483,43.115,30.399,43.073,30.313,43.034z"/>
	<path fill="#FFFFFF" d="M29.559,42.721c-0.089-0.083-0.181-0.166-0.276-0.25c0.247-0.091,0.689-0.222,0.829-0.237
		c-0.123-0.115-0.674,0.047-0.937,0.14c-0.08-0.07-0.161-0.141-0.243-0.211c0.181-0.089,0.548-0.188,0.752-0.212
		c0.534-0.062,1.019,0.013,1.051,0.327c0.025,0.244-0.268,0.545-0.631,0.669c-0.136-0.05-0.275-0.092-0.417-0.126
		c0.226-0.066,0.667-0.23,0.659-0.353C30.25,42.533,29.781,42.663,29.559,42.721z"/>
	<path fill="#FFFFFF" d="M28.286,39.684c-0.09-0.306-0.707-0.355-1.457-0.158c-0.318,0.084-0.589,0.206-0.794,0.342
		c0.041,0.031,0.081,0.061,0.121,0.091c0.166-0.102,0.387-0.195,0.637-0.262c0.588-0.153,1.117-0.101,1.183,0.12
		c0.065,0.222-0.358,0.525-0.945,0.681c-0.043,0.011-0.084,0.017-0.126,0.027c0.053,0.039,0.107,0.08,0.16,0.12
		C27.484,40.498,28.409,40.097,28.286,39.684z"/>
	<path fill="#FFFFFF" d="M26.654,40.332c0.036,0.027,0.072,0.055,0.107,0.083c0.075-0.015,0.151-0.031,0.237-0.055
		c0.501-0.132,0.874-0.365,0.831-0.51c-0.042-0.144-0.484-0.153-0.985-0.021c-0.225,0.06-0.423,0.138-0.57,0.218
		c0.022,0.016,0.043,0.031,0.064,0.047c0.251-0.109,0.659-0.252,0.848-0.187c-0.177,0.038-0.529,0.149-0.764,0.249
		c0.043,0.033,0.087,0.065,0.13,0.099c0.272-0.079,0.72-0.215,0.805-0.259C27.338,40.124,26.925,40.259,26.654,40.332z"/>
	<path fill="#231F20" d="M35.21,36.035c0.791-0.062,0.659-1.189,0.555-3.131c-0.1-1.881-0.096-3.04-0.896-3.07
		c-0.656-0.026-1.159,1.138-1.033,3.021C33.948,34.516,34.55,36.086,35.21,36.035z"/>
	<path fill="#FFFFFF" d="M35.548,32.907c-0.075-1.614-0.075-2.688-0.536-2.901c0.179,0.822-0.29,2.624-0.975,2.233
		c0,0.188,0.004,0.385,0.017,0.591c0.097,1.665,0.708,3.089,1.128,3.066C35.815,35.86,35.635,34.748,35.548,32.907z"/>
	<path fill="#231F20" d="M57.295,44.409c0.611,0.128,2.148,0.961,2.628,1.506C59.314,45.756,57.376,44.649,57.295,44.409z"/>
	<path fill="#231F20" d="M57.937,43.479c0.481,0.305,2.1,0.546,2.819,0.561C60.261,43.688,58.227,43.464,57.937,43.479z"/>
	<path fill="#231F20" d="M56.288,45.594c0.076,0.368,1.371,1.731,1.889,2.003C58.05,47.052,56.479,45.627,56.288,45.594z"/>
	<path fill="#231F20" d="M24.084,57.542c0.241-0.186,1.472-0.839,1.795-0.887C25.44,56.52,24.164,57.22,24.084,57.542z"/>
	<path fill="#231F20" d="M24.022,58.361c0.461-0.476,2.966-1.632,3.626-1.624C27.09,56.476,24.444,57.562,24.022,58.361z"/>
	<path fill="#FFFFFF" d="M39.564,42.52c-0.184,0.102-0.406,0.275-0.612,0.414C39.272,42.935,39.538,42.682,39.564,42.52z"/>
	<path fill="#FFFFFF" d="M21.12,53.031c-0.363,0.49-0.891,0.805-1.176,0.822C20.492,53.927,21.011,53.546,21.12,53.031z"/>
</g>
</svg>
