<?xml version="1.0" encoding="utf-8"?>
<!-- Generator: Adobe Illustrator 16.0.4, SVG Export Plug-In . SVG Version: 6.00 Build 0)  -->
<!DOCTYPE svg PUBLIC "-//W3C//DTD SVG 1.1//EN" "http://www.w3.org/Graphics/SVG/1.1/DTD/svg11.dtd">
<svg version="1.1" id="Layer_1" xmlns="http://www.w3.org/2000/svg" xmlns:xlink="http://www.w3.org/1999/xlink" x="0px" y="0px"
	 width="72px" height="72px" viewBox="0 0 72 72" enable-background="new 0 0 72 72" xml:space="preserve">
<g>
	<path fill="#0B0A0B" d="M49.125,14.832c-1.075-1.532-0.85-6.748,2.652-9.918c4.41-3.991,8.895-3.203,10.582-1.278
		c1.894,2.156,0.488,8.373-3.47,11.034C54.281,17.772,50.094,16.213,49.125,14.832z"/>
	<path fill="#884E00" d="M48.835,12.19c-0.062,0.901,0.187,2.289,0.514,2.569c0.029-0.066,0.069-0.181,0.069-0.181
		c-0.05-0.051-0.082-0.119-0.097-0.16c0.498,0.186,1.563,0.587,2.188,0.619c-0.347-0.843-1.094-1.872-1.835-2.379
		c-0.088,0.251-0.254,1.313-0.263,1.546c-0.198-0.248,0.037-1.342,0.125-1.643C49.457,12.48,49.117,12.246,48.835,12.19z"/>
	<path fill="#884E00" d="M51.599,15.232c0.119,0.266,0.201,0.534,0.099,0.793c-0.642-0.11-1.741-0.62-2.176-1.012
		c-0.029-0.132,0.017-0.27,0.046-0.336C50.072,14.89,50.697,15.17,51.599,15.232z"/>
	<path fill="#F4F2EF" d="M48.85,11.983c1.423,0.316,3.314,2.696,3.004,4.084c0.224,0.054,0.629,0.118,0.854,0.136
		c0.513-0.665,0.845-2.065-0.692-3.692c-1.418-1.502-2.519-1.533-3.076-1.287C48.913,11.377,48.855,11.81,48.85,11.983z"/>
	<path fill="#884E00" d="M48.989,10.926c0.395-2.431,1.402-4.224,2.901-5.668c1.451-1.401,3.272-2.458,4.892-2.715
		c0.646,0.126,1.326,0.446,1.789,0.71C57.82,3.28,56.58,3.681,55.744,4.316c-0.413-0.333-0.966-0.703-1.318-0.345
		c-0.353,0.358,0.335,0.709,0.533,0.844c-0.124,0.104-0.462,0.373-0.544,0.433c-0.341-0.246-0.886-0.547-1.066-0.345
		c-0.181,0.203,0.089,0.71,0.367,0.909c-0.128,0.123-0.444,0.44-0.529,0.536c-0.356-0.242-0.906-0.363-1.025-0.216
		c-0.143,0.178-0.027,0.45,0.219,0.71c0.435,0.459,1.269,0.871,1.467,0.612c0.184-0.238-0.086-0.628-0.554-1.018
		c0.114-0.106,0.473-0.445,0.555-0.505C54.286,6.24,55.01,6.717,55.182,6.5c0.172-0.217-0.282-0.857-0.608-1.119
		c0.181-0.152,0.494-0.378,0.587-0.436c0.366,0.246,0.925,0.665,1.063,0.506c0.14-0.157,0.019-0.627-0.326-0.98
		c0.906-0.703,2.175-1.015,2.823-1.131c1.594,0.936,3.038,2.508,3.526,4.298c-0.902,3.023-4.002,6.012-8.417,7.341
		c2.999-0.345,7.452-3.284,8.504-7.046c0.126,0.396,0.179,0.839,0.182,0.995c-1.532,4.876-5.334,7.344-9.556,7.289
		c1.371-1.724-0.634-4.555-2.691-5.25c0.271-0.891,1.184-2.63,2.103-3.658c-1.046,0.813-1.948,2.505-2.254,3.604
		C49.773,10.829,49.296,10.82,48.989,10.926z"/>
	<path fill="#F4F2EF" d="M52.293,6.226c-0.125,0.329,1.051,1.18,1.423,1.13C53.853,6.986,52.535,6.05,52.293,6.226z"/>
	<path fill="#F4F2EF" d="M53.479,5.022c-0.054,0.489,1.307,1.323,1.554,1.354C55.01,5.942,53.78,4.887,53.479,5.022z"/>
	<path fill="#F4F2EF" d="M56.11,5.305c0.163-0.423-1.094-1.524-1.527-1.279C54.221,4.258,55.994,5.332,56.11,5.305z"/>
	<path fill="#F4F2EF" d="M57.351,2.446c2.543,0.808,4.958,3.241,5.278,6.037c0.182-0.686,0.222-1.293,0.248-1.545
		c-0.908-2.244-2.388-3.832-4.317-4.61C58.158,2.318,57.63,2.397,57.351,2.446z"/>
	<path fill="#884E00" d="M59.329,2.42c0.395,0.209,0.653,0.411,0.791,0.506c0.27-0.032,0.759,0.04,0.881,0.047
		C60.558,2.665,59.88,2.445,59.329,2.42z"/>
	<path fill="#884E00" d="M60.285,3.056c0.917,0.748,1.891,1.771,2.38,2.886c0.173-0.739-0.013-1.392-0.117-1.617
		c-0.17-0.364-0.604-0.794-0.992-1.041C61.342,3.148,60.459,3.012,60.285,3.056z"/>
	<path fill="#884E00" d="M62.908,6.437c-0.063-0.146-0.124-0.279-0.15-0.342c0.056-0.172,0.107-0.625,0.108-0.686
		C62.938,5.774,62.939,6.159,62.908,6.437z"/>
	<path fill="#0B0A0B" d="M53.758,24.623c0.907-2.252,2.21-6.875,2.366-7.406C56.23,18.334,54.709,23.148,53.758,24.623z"/>
	<path fill="#0B0A0B" d="M53.325,17.857c-0.046,4.006-3.478,13.899-4.658,15.451C50.663,28.834,53.035,20.501,53.325,17.857z"/>
	<path fill="#0B0A0B" d="M34.954,19.565c0.273-2.363-1.093-4.241-0.883-5.147c0.21-0.907,1.225-1.18,2.028-0.748
		c0.66,0.355,1.099,1.19,1.251,2.115c0.186,1.138,0.049,2.401,0.334,2.972c0.13,0.014,0.443,0.076,0.533,0.114
		c1.591-1.528,1.442-2.844,1.898-3.873c0.46-1.037,1.671-1.171,2.337,0.004c0.36,0.634,0.372,1.767-0.046,2.814
		c-0.349,0.877-1.02,1.679-1.697,2.347c0.11,0.225,0.379,0.911,0.399,1.032c1.382,0.279,2.281-0.746,2.992-0.674
		c0.774,0.077,1.555,1.066,0.869,2.281c-0.638,1.131-2.014,1.449-3.634,1.326c-0.738,1.832-1.645,2.747-3.421,2.916
		c-0.206,0.429-0.716,0.748-1.363,0.818c-0.493,1.448-1.658,3.67-2.953,5.147l0.009,0.102c0.251-0.086,0.836-0.237,0.951-0.242
		c0.285-1.07,0.793-1.983,1.621-1.795c0.83,0.19,1.365,1.695,0.412,3.326c0.601,2.233-0.831,5.776-5.684,6.55
		c-0.108,0.104-0.501,0.486-0.501,0.486l0.034,0.058c0.407-0.407,1.905-0.876,2.688-0.285c0.582,0.44,0.104,1.062-0.12,1.521
		c0.067,0.131,0.153,0.385,0.2,0.463c1.162-2.339,3.54-3.61,6.016-2.596c0.098-0.596,0.382-0.984,0.836-1.216
		c-0.212-1.046-1.48-2.596-1.567-4.16c-0.067-1.223,0.419-2.276,1.521-3.117c-0.126-0.588,0.872-1.266,2.478-1.374
		c1.396-0.094,2.881,0.703,3.717,1.581c0.32-0.095,0.987-0.138,1.171,0.23c0.1,0.197-0.179,0.661-0.283,0.784
		c0.371,0.65,0.75,1.525,0.868,1.989c0.302,0.089,0.455,0.135,0.503,0.373c0.099,0.497-0.19,0.761-0.254,1.065
		c0.066,1.112-0.105,2.198-0.483,3.27c0.099,0,0.448-0.052,0.492,0.002c0.214,0.26,0.28,1.734-0.139,2.771
		c0.126,0.242,0.071,0.534-0.002,0.706c-0.119,0.279-0.364,0.417-0.627,0.426c-0.473,0.652-1.338,1.787-2.437,1.313
		c-0.895,0.708-1.736,0.861-2.374,0.637c-0.731-0.256-1.316-1.142-1.574-1.793c-0.122-0.03-0.285-0.098-0.341-0.123
		c-0.346,2.875-2.143,3.42-3.241,4.003c-0.119,0.576-0.247,1.264-0.543,2.021c2.354,4.096,0.168,7.513-3.151,7.57
		c0.534,0.399,1.042,1.344,0.565,2.262c1.372,0.664,3.043,0.346,4.269,1.224c1.244,0.894,1.266,2.734,0.537,4.064
		c0.415,1.318-1.173,2.868-2.976,3.386c-0.272,0.739-0.671,0.9-0.838,0.871c-0.166-0.028-0.417-0.166-0.519-0.651
		c-0.901,0.086-2.043-0.161-2.576-0.308c-0.347,0.3-0.775,0.47-0.963,0.381c-0.221-0.104-0.111-0.599-0.106-0.769
		c-0.491-0.224-1.085-0.619-1.442-0.869c-0.291,0.115-0.564,0.22-0.731,0.09c-0.166-0.128-0.161-0.496-0.061-0.846
		c-0.619-0.649-1.303-1.736-1.568-2.411c-0.296,0.088-0.603,0.029-1.079-0.35c-4.937,2.386-11.064-0.344-13.977,2.659
		c2.649-3.366,8.588-0.513,13.755-2.963c-0.3-0.322-0.602-0.967-0.703-1.19c-0.381,0.005-0.602-0.003-0.667-0.173
		c-0.105-0.273-0.003-0.786,0.315-1.071c-0.136-0.908-0.065-2.488,1.466-2.528c0.556-1.634,1.859-2.7,3.554-2.229
		c0.175-0.116,0.498-0.183,0.636-0.189c-0.191-0.394-0.353-1.235-0.249-1.855c-3.025-0.114-5.944-1.33-6.276-4.575
		c-2.02-0.251-2.818-2.06-1.086-4.399c-0.095-0.407-0.334-1.488-0.329-2.379c-1.903-0.59-4.837,0.033-6.416,1.937
		c0.577,0.438,0.786,1.206,0.299,1.632c0.701,0.844,1.102,1.008,1.415,1.039c1.185,0.123,1.792-0.512,2.518-0.401
		c1.039,0.16,1.297,1.322,0.441,2.355c-1.331,1.605-3.212,0.278-3.328,0.271c-0.244-0.01-0.627,0.379-0.606,0.941
		c1.275,1.942,1.847,3.394,1.392,5.059c-0.461,1.687-2.056,1.649-2.481,1.055c-0.56-0.784-0.063-2.581-0.476-3.764
		c-0.507,0.195-1.119,0.167-1.403,0.158c-0.312,1.051-0.354,2.636-1.312,3.708c-1.004,1.122-2.719,0.979-3.125-0.178
		c-0.443-1.261,2.119-3.283,2.092-4.666c-0.239-0.283-0.577-0.621-0.811-0.828c-1.405,0.766-3.126,1.029-4.095-0.178
		c-0.869-1.084-0.227-2.375,1.119-2.101c0.97,0.195,1.688,0.642,2.491,0.298c-0.161-1.541,0.521-2.584,1.658-3.417
		c-0.443-0.707,0.472-1.94,2.106-1.831c1.122-1.617,3.571-2.742,5.58-2.936c-1.207-1.112-0.379-2.762-1.025-3.352
		c-2.146,3.77-7.138,2.214-7.666-1.24c-0.527-3.445,3.438-6.618,6.737-3.824c0.134-0.661,0.501-1.743,0.879-2.394
		c-3.549-1.296-3.604-5.324-1.116-7.161c2.828-2.088,6.569,0.083,6.555,3.261c1.239-0.212,3.01,0.072,4.009,0.542
		c0.7-0.221,1.644-0.226,2.458,0.671c0.384,0.419,0.949,1.202,0.445,1.882c0.571,0.424,1.427,1.451,1.665,1.824
		c0.797-0.875,1.617-2.856,1.756-4.012c-0.334-0.446-0.53-1.157-0.239-1.695c-0.565-0.786-0.963-1.11-1.417-1.28
		c-1.074-0.399-2.267,0.556-3.291,0.074c-1.109-0.525-0.973-2.065,0.178-2.767c1.656-1.008,2.73,0.186,4.127,0.551
		C33.872,21.244,34.285,20.189,34.954,19.565z"/>
	<path fill="#F4F2EF" d="M12.317,45.549c-0.251-0.632,1.019-1.973,2.714-1.287c1.727,0.698,1.758,1.668,1.381,1.864
		c-0.235-0.158-0.507-0.22-0.669-0.193c0.585,0.239,0.967,0.947,1.491,1.309c1.501,1.039,2.651-0.254,3.45-0.013
		c0.754,0.228,0.598,1.538-0.206,2.159c-1.26,0.972-2.102,0.091-2.87,0.035c-0.448-0.035-0.871,0.457-0.705,1.138
		c0.131,0.534,1.253,2.072,1.368,3.628c0.142,1.894-1.035,2.965-1.918,2.326c-0.769-0.561,0.018-2.46-0.785-3.981
		c-0.683,0.304-1.503,0.274-1.634,0.419c-0.229,0.255-0.438,1.958-0.977,2.929c-0.33,0.596-0.988,1.374-1.781,1.31
		c-0.792-0.066-1.475-0.431-1.122-1.47c0.435-1.279,1.842-2.285,1.836-3.837c-0.257-0.515-0.681-0.769-0.845-0.977
		c-1.313,0.5-2.948,0.907-3.899-0.093c-0.521-0.55-0.409-1.365-0.119-1.583c0.977-0.732,2.636,0.837,3.638-0.07
		c-0.086-1.906,1.117-3.622,3.4-3.96C13.464,45.1,12.832,45.281,12.317,45.549z"/>
	<path fill="#0B0A0B" d="M14.193,48.421c-0.188-0.839,0.028-2.005,0.16-2.231C14.534,46.653,14.24,47.66,14.193,48.421z"/>
	<path fill="#0B0A0B" d="M12.833,49.149c0.077-0.978,0.434-2.605,0.968-3.087C13.489,47.021,13.028,48.79,12.833,49.149z"/>
	<path fill="#0B0A0B" d="M12.271,48.124c0.038-0.697,0.413-1.758,1.151-2.231C13.032,46.615,12.434,47.494,12.271,48.124z"/>
	<path fill="#884E00" d="M18.285,35.441c-1.149-5.233,3.952-10.562,9.51-8.612C24.499,28.016,20.107,30.516,18.285,35.441z"/>
	<path fill="#884E00" d="M29.648,27.054c-0.259-0.125-0.59-0.179-0.897-0.185c-5.775,1.545-9.966,6.28-10.355,9.618
		c-0.073,0.634,0.582,0.671,0.801,1.166c0.332,0.751-0.197,2.207,0.794,3.073c0.623,0.544,2.439,0.486,2.922-1.875
		c0.438-2.145,0.073-3.872-0.154-4.947c0.216-1.917,5.592-5.292,7.952-4.997c0,0-0.061,0.047-0.104,0.073
		c0.086,0.046,0.286,0.146,0.286,0.146C31.41,28.453,30.199,27.286,29.648,27.054z"/>
	<path fill="#0B0A0B" d="M20.688,39.249c-0.619-0.09-0.729-0.955-0.662-1.346c0.081-0.477,0.45-1.231,1.161-1.126
		c0.637,0.099,0.616,1.054,0.564,1.437C21.7,38.599,21.37,39.353,20.688,39.249z"/>
	<path fill="#F4F2EF" d="M20.751,38.97c0.735,0.189,1.1-1.848,0.324-1.996C20.2,36.807,19.941,38.762,20.751,38.97z"/>
	<path fill="#F4F2EF" d="M23.262,35.021c0.259,1.144,0.321,2.237,0.101,3.621c1.958,1.83,6.302,2.706,9.092,1.619
		c2.444-0.952,4.049-2.662,3.881-5.493c-0.563,0.537-1.007,0.657-1.372,0.467c-0.367-0.189-0.588-0.693-0.437-2.025
		c-1.156,0.138-2.112,1.309-2.633,2.071c-0.011-0.351,0.229-0.786,0.229-0.786c-0.206-0.168-0.406-0.67-0.551-1.072
		c-0.408-1.139-0.979-2.07-0.567-2.463c0.412-0.393,1.783,1.005,1.961,2.538c0.102-0.074,0.264-0.194,0.367-0.271
		c-0.239-1.036-1.576-3.644-3.305-4.102c-0.175,0.371-0.021,1.125,0.004,1.428c-0.472-0.563-0.822-1.015-1.316-1.022
		c-1.679,0.706-3.717,1.85-4.591,2.906c0.165,1.726,0.815,2.964,1.722,4.164C24.975,35.721,23.735,34.842,23.262,35.021z"/>
	<path fill="#0B0A0B" d="M29.331,34.1c0.469,1.269,1.221,1.982,1.542,1.835c1.012-0.47-0.435-5.18-1.782-4.792
		C28.526,31.307,28.862,32.832,29.331,34.1z"/>
	<path fill="#F4F2EF" d="M22.087,40.927c0.424-0.268,0.956-1.053,1.157-1.758c0.95,1.761,2.126,2.908,3.381,3.147
		c1.253,0.239,2.537-0.78,3.082-1.228c0.164-0.008,0.575-0.018,0.665-0.032c-1.052,1.04-2.774,2.47-4.42,1.823
		c-1.65-0.646-2.617-1.892-2.678-1.992c0.052,0.235,0.199,0.495,0.257,0.56C23.178,41.42,22.528,41.246,22.087,40.927z"/>
	<path fill="#D31245" d="M24,40.013c1.488,1.935,3.229,2.467,4.517,1.525c-0.345-0.459-1.225-0.654-2.091-0.461
		c0.096,0.161,0.303,0.473,0.453,0.571C26.481,41.55,25.496,40.226,24,40.013z"/>
	<path fill="#F4F2EF" d="M34.374,25.504c-0.446,1.471,1.774,2.769,3.22,1.56c-0.478-0.032-1.061-0.179-1.228-0.256
		c1.97,0.253,3.735-0.435,4.827-2.851c1.348,0.062,2.9-0.198,3.516-1.28c0.332-0.58,0.26-1.578-0.474-1.896
		c-0.568-0.246-1.285,0.986-3.09,0.641c0,0,0.016,0.135-0.035,0.233c-0.149-0.397-0.495-1.22-0.555-1.323
		c-0.073,0.062-0.173,0.113-0.173,0.113c0.576-1.17,1.339-1.192,1.846-3.174c0.525-2.062-0.428-2.929-1.107-2.815
		c-0.957,0.157-0.992,1.79-1.33,2.692c-0.385,1.036-1.017,1.643-1.287,1.837c0.239,0.134,0.736,0.579,0.794,0.693
		c-0.628-0.367-1.827-0.778-2.138-0.819c0,0,0.167-0.07,0.215-0.07c-0.247-0.546-0.104-1.858-0.305-2.99
		c-0.143-0.809-0.534-1.507-1.042-1.858c-0.424-0.29-1.391-0.393-1.68,0.376c-0.365,0.962,1.471,2.747,0.792,5.367
		c-0.645,0.791-0.942,1.452-1.213,2.686c0,0-0.035-0.108-0.044-0.173c-0.753-0.114-1.757-0.74-2.519-0.839
		c-0.924-0.118-2.741,0.638-2.177,2.123c0.151,0.397,0.565,0.587,1.065,0.549c0.711-0.053,1.626-0.44,2.479-0.299
		c1.409,0.236,1.537,2.194,3.526,2.368C35.639,26.342,34.989,26.118,34.374,25.504z"/>
	<path fill="#0B0A0B" d="M36.636,26.374c0.69-0.671,1.104-1.722,1.064-2.698c-0.184-0.194-0.268-0.396-0.312-0.76
		c-0.047-0.365,0.087-0.704,0.293-0.726c0.224-0.024,0.653,0.659,0.443,1.221c-0.073,0.203-0.203,0.278-0.271,0.298
		c0.006,0.102,0.115,0.655-0.1,1.271C37.537,25.593,37.072,26.141,36.636,26.374z"/>
	<path fill="#F4F2EF" d="M37.794,23.493c-0.356-0.261-0.231-1.105-0.127-1.152c0.104-0.048,0.443,0.451,0.312,0.958
		C37.955,23.39,37.873,23.553,37.794,23.493z"/>
	<path fill="#BEC0C2" d="M46.477,32.545c0.174,0.173,0.372,0.422,0.511,0.617c0.146-0.187,0.25-0.409,0.224-0.557
		C46.926,32.41,46.684,32.485,46.477,32.545z"/>
	<path fill="#BEC0C2" d="M48.042,35.595c0.027,0.138,0.123,0.595,0.136,0.716c0.101-0.154,0.17-0.349,0.126-0.576
		C48.287,35.656,48.127,35.573,48.042,35.595z"/>
	<path fill="#BEC0C2" d="M47.931,43.125c-0.041,0.089-0.215,0.402-0.263,0.481C47.85,43.646,48.034,43.292,47.931,43.125z"/>
	<path fill="#DFC771" d="M47.648,40.28c-0.062,0.143-0.203,0.429-0.239,0.477c0.202-0.099,0.449-0.352,0.547-0.511
		C47.856,40.246,47.699,40.276,47.648,40.28z"/>
	<path fill="#DFC771" d="M48.081,40.427c0.271,1.81-1.357,5.128-2.848,4.6c0.693-0.597,1.532-2.105,2.052-3.896
		C47.611,40.949,47.954,40.656,48.081,40.427z"/>
	<path fill="#DFC771" d="M44.649,31.96c1.919,1.123,3.236,3.525,3.154,6.647c0.598-2.525-0.708-6.563-4.234-7.525
		c-1.454-0.396-3.328,0.361-3.267,0.839C41.698,31.173,43.19,31.107,44.649,31.96z"/>
	<path fill="#DFC771" d="M40.109,38.665c-0.718-1.698-1.557-3.031-1.193-4.627c0.364-1.594,2.829-3.261,5.365-1.968
		c2.536,1.293,3.711,4.871,3.024,7.894c-0.883,3.88-2.713,5.909-4.263,5.696c-0.906-0.123-1.421-0.997-1.642-1.499
		c1.139,0.07,1.786-1.075,1.681-1.912c-0.311,0.98-1.023,2.06-2.344,1.384c0.002-0.223-0.039-0.522-0.069-0.646
		c0.245-0.121,0.574-0.121,0.66-0.132c0,0-0.065,0.198-0.132,0.265c0.638-0.305,0.903-1.164,0.77-1.627
		c-0.132-0.463-0.568-1.166-1.343-1.178c0,0,0.016,0.069,0.035,0.125c-0.409,0.046-0.766,0.222-1.031,0.354
		c0,0-0.102-0.058-0.173-0.092c0.058-0.904,1.722-1.967,3.095-0.286c-0.079-0.549-1.21-1.432-2.282-1.123
		c-0.028-0.175-0.072-0.424-0.124-0.535c1.552-1.117,3.043-1.662,4.216-1.732C42.487,36.846,40.772,37.931,40.109,38.665z"/>
	<path fill="#005695" d="M23.153,45.352c-0.859,1.187-0.878,2.229-0.499,2.93c0.747,1.383,2.917,0.827,3.399,1.011
		c-0.703,0.175-1.442,0.222-1.641,0.222c0.251,2.629,3.044,4.621,7.335,4.126c2.924-0.337,4.928-2.647,5.505-5.525
		c-0.393,0.182-0.93,0.633-1.119,0.932c0.219-1.549,3.44-1.555,4.13-4.176c0.562-2.128-0.438-3.815-1.562-4.142
		c-1.959-0.572-3.802,0.392-4.756,1.791c-0.79,1.158-0.791,1.857-1.294,2.718c0.025-0.478,0.26-1.266,0.377-1.59
		c-0.051-0.192-0.166-0.524-0.191-0.619c-0.254,0.47-0.239,0.802-0.314,0.982c-0.284-0.797,0.535-1.603,0.602-2.039
		c0.065-0.436,0.001-0.65-0.584-0.74c-0.586-0.09-1.393,0.068-1.945,0.465c0.28,0.366,0.626,0.694,1.24,0.916
		c0.177-0.234,0.343-0.802-0.288-0.934c0.4-0.112,0.661,0.149,0.7,0.404c0.083,0.534-0.608,1.694-0.717,2.126
		c0.182,0.633,0.606,1.106,0.71,1.528c-0.624-0.08-1.167-0.688-1.497-0.756c-0.759,0.975-1.732,1.966-2.816,2.398
		c-1.507,0.598-3.497,0.196-4.441-0.935c0,0,0.084,0.007,0.119,0.016C23.481,46.171,23.255,45.66,23.153,45.352z"/>
	<path fill="#005695" d="M36.836,50.255c1.038,1.944,0.982,4.105,0.052,5.509c-0.929,1.404-3.433,2.038-5.077,0.905
		c0.19-0.695,0.455-1.732,0.345-2.746C34.048,53.602,35.883,52.307,36.836,50.255z"/>
	<path fill="#005695" d="M30.707,54.088c0.206-0.004,0.789-0.057,0.981-0.083c0.101,0.737-0.043,1.613-0.257,2.396
		C31.041,56.107,30.544,55.339,30.707,54.088z"/>
	<path fill="#DFC771" d="M30.829,56.171c0.082,0.103,0.332,0.389,0.407,0.456c-0.12,0.244-0.367,0.658-0.461,0.733
		c-0.099-0.132-0.23-0.549-0.281-0.679c-0.063,0.621,0.136,1.258,0.312,1.483c-0.868,1.978-2.236,3.697-3.636,4.54
		c-0.197-0.472-0.492-1.396-0.615-2.195c-0.163,0.655,0.155,1.751,0.358,2.364c-0.162,0.116-0.444,0.256-0.568,0.323
		c-0.234-0.254-0.686-0.941-0.904-1.721c-0.354-1.264-0.16-2.872,1.02-2.939c-0.071,0.387-0.036,1.106,0.028,1.346
		c0.093-0.44,0.066-1.667,0.861-2.586c0.625-0.723,1.37-1.041,2.497-0.995c-0.583,0.517-0.798,1.664,0.056,2.681
		C29.418,57.853,29.247,56.546,30.829,56.171z"/>
	<path fill="#DFC771" d="M33.377,57.582l0.082,0.005c0.791,0.624,1.077,1.512,0.663,2.182c-0.442,0.715-1.493,0.885-3.07,0.111
		c0.765,0.777,2.444,1.238,3.186,0.148c1.876,0.833,4.091,0.493,4.876,2.193c0.67,1.444,0.037,3.902-3.321,5.13
		c-3.25,1.188-7.576-1.927-8.437-4.287c1.541-1.038,2.796-2.607,3.764-4.589c0.39,0.296,1.18,0.574,2.055-0.082
		c0,0-0.147-0.006-0.214-0.005C33.055,58.214,33.28,57.773,33.377,57.582z"/>
	<path fill="#0B0A0B" d="M33.952,60.716c-0.654,0.437-1.948,1.054-2.376,1.244C32.479,61.788,33.714,61.271,33.952,60.716z"/>
	<path fill="#DFC771" d="M38.892,65.502c0.113,1.004-1.264,2.214-2.92,2.693c-2.226,0.646-5.933-0.128-7.845-3.353
		c2.17,2.232,5.024,3.662,7.592,2.844C37.29,67.188,38.336,66.307,38.892,65.502z"/>
	<path fill="#BEC0C2" d="M35.935,68.574c-0.069,0.214-0.41,0.486-0.535,0.521c-0.133-0.065-0.31-0.248-0.326-0.386
		C35.347,68.68,35.667,68.655,35.935,68.574z"/>
	<path fill="#BEC0C2" d="M31.962,68.323c-0.154-0.051-0.431-0.163-0.536-0.213c-0.013,0.183-0.054,0.289-0.012,0.424
		C31.528,68.551,31.729,68.539,31.962,68.323z"/>
	<path fill="#BEC0C2" d="M29.114,66.598c-0.063,0.226-0.058,0.407,0.001,0.489c0.167,0.004,0.34-0.094,0.402-0.117
		C29.405,66.873,29.214,66.714,29.114,66.598z"/>
	<path fill="#DFC771" d="M27.25,63.678c-0.155,0.073-0.509-0.022-0.613-0.178c0.191-0.095,0.342-0.2,0.427-0.247
		C27.134,63.4,27.203,63.598,27.25,63.678z"/>
	<path fill="#BEC0C2" d="M25.078,61.183c-0.175,0.225-0.193,0.622-0.179,0.763c0.104,0.002,0.266,0.023,0.377-0.019
		C25.221,61.746,25.121,61.38,25.078,61.183z"/>
	<path fill="#0B0A0B" d="M42.545,47.027c0.495,0.449,1.647,0.933,2.642,0.871c-1.056,3.391-3.06,6.609-4.435,8.349
		c2.113-2.251,3.774-5.207,4.648-8.377c0.432-0.075,1.396-0.431,1.855-0.746c-0.65,0.219-1.495,0.422-1.766,0.453
		c0.124-0.499,0.329-1.588,0.367-1.941c-0.22,0.887-0.47,1.684-0.565,1.941C44.661,47.651,43.605,47.543,42.545,47.027z"/>
	<path fill="#0B0A0B" d="M43.666,48.264c-0.172,2.683-1.571,6.236-4.588,9.333C41.324,54.804,42.615,52.623,43.666,48.264z"/>
	<path fill="#F4F2EF" d="M22.847,42.799c0,0,0.507,0.143,0.78,0.287C23.18,43.023,22.847,42.799,22.847,42.799z"/>
</g>
</svg>
