<?xml version="1.0" standalone="no"?>
<!DOCTYPE svg PUBLIC "-//W3C//DTD SVG 20010904//EN"
 "http://www.w3.org/TR/2001/REC-SVG-20010904/DTD/svg10.dtd">
<svg version="1.0" xmlns="http://www.w3.org/2000/svg"
 width="500.000000pt" height="500.000000pt" viewBox="0 0 500.000000 500.000000"
 preserveAspectRatio="xMidYMid meet">
<metadata>
Created by potrace 1.11, written by Peter Selinger 2001-2013
</metadata>
<g transform="translate(0.000000,500.000000) scale(0.100000,-0.100000)"
fill="#000000" stroke="none">
<path d="M3977 3798 c-204 -20 -307 -157 -311 -412 -1 -87 1 -96 36 -168 46
-91 94 -138 195 -185 40 -20 77 -43 82 -52 14 -27 14 -208 0 -217 -7 -4 -103
-7 -213 -6 -111 1 -243 -2 -295 -6 -60 -5 -98 -4 -107 3 -22 15 -25 215 -4
225 160 78 173 88 206 152 57 112 63 158 40 280 -22 113 -54 174 -129 245 -78
75 -97 83 -190 83 -185 0 -322 -95 -367 -255 -30 -109 9 -304 80 -397 19 -23
35 -44 36 -46 0 -1 38 -17 82 -36 45 -18 88 -39 97 -46 12 -10 15 -35 15 -121
0 -125 14 -113 -145 -129 -115 -11 -173 -21 -395 -70 -174 -38 -282 -66 -345
-89 -27 -10 -81 -26 -120 -36 -38 -9 -94 -25 -123 -36 -29 -10 -61 -19 -70
-19 -10 0 -33 -9 -53 -19 -20 -11 -56 -25 -80 -31 -57 -15 -190 -70 -304 -125
-49 -24 -137 -65 -195 -91 -58 -25 -138 -61 -178 -80 -40 -19 -75 -34 -77 -34
-9 0 -213 -89 -258 -111 -23 -12 -89 -39 -147 -60 -301 -108 -368 -141 -460
-226 -63 -57 -77 -91 -60 -133 18 -43 75 -68 196 -84 86 -12 215 -15 619 -13
281 2 551 0 600 -4 50 -4 308 -11 575 -14 267 -3 501 -8 520 -11 58 -7 805
-29 965 -28 106 1 186 8 273 23 147 26 192 40 297 94 127 65 311 264 363 392
21 51 25 75 23 159 -3 266 -157 491 -428 632 l-118 61 -7 69 c-3 38 -9 92 -11
121 -6 56 5 74 53 88 90 26 183 108 227 201 30 65 33 81 33 162 0 152 -39 244
-136 322 -80 64 -175 90 -287 78z m153 -102 c113 -46 158 -101 182 -222 9 -45
8 -66 -7 -122 -16 -56 -27 -75 -69 -117 -131 -129 -277 -141 -387 -31 -99 99
-123 203 -77 336 26 74 93 149 149 167 61 20 144 15 209 -11z m-763 -74 c167
-86 215 -330 89 -456 -55 -56 -148 -100 -207 -99 -96 0 -192 77 -221 176 -14
50 -14 211 1 248 17 47 74 101 136 131 49 24 69 28 111 24 28 -2 69 -13 91
-24z m637 -997 c88 -6 198 -48 277 -103 80 -55 183 -164 217 -229 63 -120 59
-264 -13 -422 -42 -90 -174 -211 -300 -274 -80 -40 -259 -71 -405 -71 -238 1
-626 14 -760 26 -74 6 -353 13 -620 15 -267 1 -530 7 -585 11 -126 12 -791 -2
-865 -18 -158 -33 -560 10 -560 59 0 22 66 61 162 95 56 20 138 50 180 67 42
16 82 29 89 29 7 0 42 13 78 29 36 17 104 46 151 66 46 19 141 66 210 104 69
38 170 88 225 111 55 24 129 56 165 72 88 41 356 134 455 159 44 11 141 40
215 63 78 26 183 51 249 60 62 9 175 32 250 51 75 18 161 38 191 44 30 5 105
19 167 31 61 12 169 25 240 28 148 8 472 6 587 -3z"/>
<path d="M3972 3515 c-35 -15 -71 -79 -72 -125 0 -59 74 -130 136 -130 61 0
114 66 114 142 0 102 -83 154 -178 113z"/>
<path d="M3203 3435 c-61 -26 -77 -100 -36 -178 23 -46 107 -72 154 -47 24 13
59 81 59 116 0 35 -28 91 -54 109 -26 19 -81 19 -123 0z"/>
</g>
</svg>
